<svg width="20" height="20" viewBox="0 0 20 20" fill="none" xmlns="http://www.w3.org/2000/svg">
<mask id="mask0_227_6127" style="mask-type:alpha" maskUnits="userSpaceOnUse" x="0" y="0" width="20" height="20">
<rect width="20" height="20" fill="#D9D9D9"/>
</mask>
<g mask="url(#mask0_227_6127)">
<path d="M4.16699 15.0415C4.91699 14.3054 5.78866 13.7257 6.78199 13.3023C7.77477 12.8784 8.84755 12.6665 10.0003 12.6665C11.1531 12.6665 12.2262 12.8784 13.2195 13.3023C14.2123 13.7257 15.0837 14.3054 15.8337 15.0415V4.4165C15.8337 4.36095 15.8059 4.30539 15.7503 4.24984C15.6948 4.19428 15.6392 4.1665 15.5837 4.1665H4.41699C4.36144 4.1665 4.30588 4.19428 4.25033 4.24984C4.19477 4.30539 4.16699 4.36095 4.16699 4.4165V15.0415ZM10.0003 10.8748C10.7503 10.8748 11.3892 10.6109 11.917 10.0832C12.4448 9.55539 12.7087 8.9165 12.7087 8.1665C12.7087 7.40262 12.4448 6.76012 11.917 6.239C11.3892 5.71845 10.7503 5.45817 10.0003 5.45817C9.25033 5.45817 8.61144 5.71845 8.08366 6.239C7.55588 6.76012 7.29199 7.40262 7.29199 8.1665C7.29199 8.9165 7.55588 9.55539 8.08366 10.0832C8.61144 10.6109 9.25033 10.8748 10.0003 10.8748ZM4.41699 17.0832C4.00033 17.0832 3.64616 16.9373 3.35449 16.6457C3.06283 16.354 2.91699 15.9998 2.91699 15.5832V4.4165C2.91699 3.99984 3.06283 3.64567 3.35449 3.354C3.64616 3.06234 4.00033 2.9165 4.41699 2.9165H15.5837C16.0003 2.9165 16.3545 3.06234 16.6462 3.354C16.9378 3.64567 17.0837 3.99984 17.0837 4.4165V15.5832C17.0837 15.9998 16.9378 16.354 16.6462 16.6457C16.3545 16.9373 16.0003 17.0832 15.5837 17.0832H4.41699ZM5.37533 15.8332H14.6253V15.6665C13.9725 15.0693 13.2539 14.6282 12.4695 14.3432C11.6845 14.0587 10.8614 13.9165 10.0003 13.9165C9.1531 13.9165 8.33366 14.0587 7.54199 14.3432C6.75033 14.6282 6.0281 15.0623 5.37533 15.6457V15.8332ZM10.0003 9.62484C9.59755 9.62484 9.25366 9.479 8.96866 9.18734C8.68421 8.89567 8.54199 8.55539 8.54199 8.1665C8.54199 7.76373 8.68421 7.41984 8.96866 7.13484C9.25366 6.85039 9.59755 6.70817 10.0003 6.70817C10.4031 6.70817 10.747 6.85039 11.032 7.13484C11.3164 7.41984 11.4587 7.76373 11.4587 8.1665C11.4587 8.55539 11.3164 8.89567 11.032 9.18734C10.747 9.479 10.4031 9.62484 10.0003 9.62484Z" fill="#191C1A"/>
</g>
</svg>
