<svg width="24" height="24" viewBox="0 0 24 24" fill="none" xmlns="http://www.w3.org/2000/svg">
<mask id="mask0_942_926" style="mask-type:alpha" maskUnits="userSpaceOnUse" x="0" y="0" width="24" height="24">
<rect width="24" height="24" fill="#D9D9D9"/>
</mask>
<g mask="url(#mask0_942_926)">
<path d="M8.72498 14.3811L9.61817 15.2743L12 12.8924L14.3818 15.2743L15.275 14.3811L12.8932 11.9993L15.275 9.61742L14.3818 8.72423L12 11.1061L9.61817 8.72423L8.72498 9.61742L11.1068 11.9993L8.72498 14.3811ZM6.34315 17.6561C5.55913 16.8721 4.97121 15.9864 4.5794 14.9992C4.18719 14.0115 3.99109 13.0115 3.99109 11.9993C3.99109 10.987 4.18719 9.987 4.5794 8.99934C4.97121 8.01207 5.55913 7.12642 6.34315 6.3424C7.12717 5.55838 8.01301 4.97027 9.00068 4.57806C9.98795 4.18625 10.9877 3.99034 12 3.99034C13.0123 3.99034 14.0123 4.18645 14.9999 4.57865C15.9872 4.97047 16.8728 5.55838 17.6569 6.3424C18.4409 7.12642 19.029 8.01226 19.4212 8.99993C19.813 9.9872 20.0089 10.987 20.0089 11.9993C20.0089 13.0115 19.813 14.0113 19.4212 14.9986C19.029 15.9862 18.4409 16.8721 17.6569 17.6561C16.8728 18.4401 15.9872 19.028 14.9999 19.4199C14.0123 19.8121 13.0123 20.0082 12 20.0082C10.9877 20.0082 9.98795 19.8123 9.00068 19.4205C8.01301 19.0282 7.12717 18.4401 6.34315 17.6561ZM7.23633 16.7629C8.56619 18.0928 10.1541 18.7577 12 18.7577C13.8459 18.7577 15.4338 18.0928 16.7637 16.7629C18.0935 15.4331 18.7585 13.8452 18.7585 11.9993C18.7585 10.1533 18.0935 8.56545 16.7637 7.23559C15.4338 5.90573 13.8459 5.2408 12 5.2408C10.1541 5.2408 8.56619 5.90573 7.23633 7.23559C5.90648 8.56545 5.24155 10.1533 5.24155 11.9993C5.24155 13.8452 5.90648 15.4331 7.23633 16.7629Z" fill="#717972"/>
</g>
</svg>
