<svg width="44" height="32" viewBox="0 0 44 32" fill="none" xmlns="http://www.w3.org/2000/svg">
<path d="M2.75005 0H41.25C41.9838 0.00475941 42.6857 0.300685 43.2014 0.822731C43.717 1.34478 44.0043 2.05022 44 2.784V29.218C44.004 29.9515 43.7166 30.6566 43.2009 31.1783C42.6853 31.6999 41.9836 31.9955 41.25 32H2.75005C2.38681 31.9979 2.02754 31.9243 1.69275 31.7833C1.35797 31.6424 1.05422 31.4369 0.798862 31.1786C0.5435 30.9202 0.341522 30.6141 0.204461 30.2777C0.0673994 29.9413 -0.00206059 29.5812 4.66449e-05 29.218V2.784C-0.00421036 2.05022 0.28307 1.34478 0.798741 0.822731C1.31441 0.300685 2.01627 0.00475941 2.75005 0Z" fill="white"/>
<path d="M8.148 11L4 20.121H8.965L9.581 18.667H10.988L11.604 20.121H17.065V19.011L17.552 20.121H20.379L20.866 18.988V20.121H32.236L33.618 18.705L34.912 20.122L40.75 20.134L36.589 15.587L40.75 11.001H35.003L33.658 12.391L32.405 11.001H20.039L18.977 13.355L17.89 11.001H12.936V12.073L12.385 11.001L8.148 11ZM9.109 12.3H11.529L14.28 18.485V12.3H16.931L19.056 16.735L21.014 12.3H23.652V18.845H22.047L22.034 13.716L19.694 18.845H18.258L15.905 13.716V18.845H12.605L11.979 17.378H8.594L7.965 18.834H6.2L9.109 12.3ZM25.121 12.3H31.648L33.648 14.443L35.709 12.3H37.709L34.665 15.585L37.698 18.837H35.614L33.614 16.669L31.547 18.834H25.121V12.293V12.3ZM10.286 13.407L9.172 16.021H11.399L10.286 13.407ZM26.733 13.655V14.85H30.294V16.182H26.733V17.482H30.727L32.583 15.561L30.806 13.65H26.733V13.655Z" fill="#26A6D1"/>
</svg>
