<svg width="24" height="25" viewBox="0 0 24 25" fill="none" xmlns="http://www.w3.org/2000/svg">
<mask id="mask0_1527_1690" style="mask-type:alpha" maskUnits="userSpaceOnUse" x="0" y="0" width="24" height="25">
<rect y="0.947266" width="24" height="24" fill="#D9D9D9"/>
</mask>
<g mask="url(#mask0_1527_1690)">
<path d="M9.63692 18L9.08308 14.7605H8V13.9538H8.93538L8.76308 12.9202H8V12.1134H8.62769L8.09846 9H9.08308L9.56308 12.1134H10.88L11.4462 9H12.5785L13.1569 12.1134H14.4738L14.9292 9H15.9015L15.3969 12.1134H16V12.9202H15.2615L15.1015 13.9538H16V14.7605H14.9662L14.4492 18H13.3415L12.7508 14.7605H11.2862L10.7323 18H9.63692ZM11.7415 12.1134H12.2954L12.0123 10.1849L11.7415 12.1134ZM9.84615 13.9538H10.5846L10.7323 12.9202H9.69846L9.84615 13.9538ZM11.4338 13.9538H12.6031L12.4431 12.9202H11.6062L11.4338 13.9538ZM13.4769 13.9538H14.2277L14.3631 12.9202H13.3046L13.4769 13.9538ZM10.1908 16.6387L10.4492 14.7605H9.94462L10.1908 16.6387ZM13.8708 16.6891L14.1169 14.7605H13.6246L13.8708 16.6891Z" fill="#15D282"/>
<path d="M11.9992 23.4473C10.0492 23.4473 8.27855 22.9639 6.68722 21.9973C5.09522 21.0306 3.84922 19.7306 2.94922 18.0973V20.0973H1.44922V15.5973H5.94922V17.0973H4.12422C4.84089 18.5639 5.90755 19.7389 7.32422 20.6223C8.74089 21.5056 10.2992 21.9473 11.9992 21.9473C13.2159 21.9473 14.3619 21.7223 15.4372 21.2723C16.5119 20.8223 17.4536 20.2056 18.2622 19.4223C19.0702 18.6389 19.7159 17.7139 20.1992 16.6473C20.6826 15.5806 20.9492 14.4306 20.9992 13.1973H22.4992C22.4659 14.6139 22.1659 15.9433 21.5992 17.1853C21.0326 18.4266 20.2782 19.5139 19.3362 20.4473C18.3949 21.3806 17.2952 22.1139 16.0372 22.6473C14.7786 23.1806 13.4326 23.4473 11.9992 23.4473Z" fill="#15D282"/>
<path d="M12.0008 2.44727C13.9508 2.44727 15.7214 2.9306 17.3128 3.89727C18.9048 4.86393 20.1508 6.16393 21.0508 7.79727V5.79727H22.5508V10.2973H18.0508V8.79727H19.8758C19.1591 7.3306 18.0924 6.1556 16.6758 5.27227C15.2591 4.38893 13.7008 3.94727 12.0008 3.94727C10.7841 3.94727 9.63812 4.17227 8.56278 4.62226C7.48812 5.07226 6.54645 5.68893 5.73778 6.47227C4.92978 7.2556 4.28411 8.1806 3.80078 9.24727C3.31745 10.3139 3.05078 11.4639 3.00078 12.6973H1.50078C1.53411 11.2806 1.83411 9.95126 2.40078 8.70926C2.96745 7.46793 3.72178 6.3806 4.66378 5.44727C5.60512 4.51393 6.70478 3.7806 7.96278 3.24726C9.22145 2.71393 10.5674 2.44727 12.0008 2.44727Z" fill="#15D282"/>
</g>
</svg>
