<svg width="32" height="32" viewBox="0 0 32 32" fill="none" xmlns="http://www.w3.org/2000/svg">
<circle cx="16" cy="16" r="16" fill="#EEF5EE"/>
<path fill-rule="evenodd" clip-rule="evenodd" d="M9.3335 16.0003C9.3335 15.5401 9.70659 15.167 10.1668 15.167H21.8335C22.2937 15.167 22.6668 15.5401 22.6668 16.0003C22.6668 16.4606 22.2937 16.8337 21.8335 16.8337H10.1668C9.70659 16.8337 9.3335 16.4606 9.3335 16.0003Z" fill="#002110"/>
<path fill-rule="evenodd" clip-rule="evenodd" d="M16.5894 9.57709C16.9149 9.90252 16.9149 10.4302 16.5894 10.7556L11.3453 15.9997L16.5894 21.2438C16.9149 21.5692 16.9149 22.0968 16.5894 22.4223C16.264 22.7477 15.7363 22.7477 15.4109 22.4223L9.57757 16.5889C9.25214 16.2635 9.25214 15.7359 9.57757 15.4104L15.4109 9.57709C15.7363 9.25165 16.264 9.25165 16.5894 9.57709Z" fill="#002110"/>
</svg>
