<svg width="24" height="24" viewBox="0 0 24 24" fill="none" xmlns="http://www.w3.org/2000/svg">
<path d="M20.9533 10.8279C21.6775 10.8279 21.9798 9.89746 21.3916 9.46855L12.4408 2.95762C12.3129 2.86397 12.1586 2.81348 12.0001 2.81348C11.8417 2.81348 11.6873 2.86397 11.5595 2.95762L2.60874 9.46855C2.02046 9.89512 2.3228 10.8279 3.04936 10.8279H4.50015V19.5936H2.81265C2.70952 19.5936 2.62515 19.6779 2.62515 19.7811V20.9998C2.62515 21.1029 2.70952 21.1873 2.81265 21.1873H21.1876C21.2908 21.1873 21.3751 21.1029 21.3751 20.9998V19.7811C21.3751 19.6779 21.2908 19.5936 21.1876 19.5936H19.5001V10.8279H20.9533ZM8.92983 19.5936H6.18764V10.8279H8.92983V19.5936ZM13.3595 19.5936H10.6173V10.8279H13.3595V19.5936ZM17.8126 19.5936H15.047V10.8279H17.8126V19.5936ZM5.64624 9.23184L12.0001 4.60996L18.354 9.23184H5.64624Z" fill="#015AC3"/>
</svg>
