<svg width="56" height="56" viewBox="0 0 56 56" fill="none" xmlns="http://www.w3.org/2000/svg">
<circle cx="28" cy="28" r="28" fill="#FFEEE0"/>
<mask id="mask0_928_8887" style="mask-type:alpha" maskUnits="userSpaceOnUse" x="12" y="12" width="32" height="32">
<rect x="12" y="12" width="32" height="32" fill="#D9D9D9"/>
</mask>
<g mask="url(#mask0_928_8887)">
<path d="M16.4 40.1249C15.7333 40.1249 15.1667 39.8915 14.7 39.4249C14.2333 38.9582 14 38.3915 14 37.7249V24.2582H16V37.7249C16 37.8138 16.0444 37.9026 16.1333 37.9915C16.2222 38.0804 16.3111 38.1249 16.4 38.1249H37.6667V40.1249H16.4ZM21.0667 35.4582C20.4 35.4582 19.8333 35.2249 19.3667 34.7582C18.9 34.2915 18.6667 33.7249 18.6667 33.0582V19.4582H25.5333V17.0582C25.5333 16.3915 25.7667 15.8249 26.2333 15.3582C26.7 14.8915 27.2667 14.6582 27.9333 14.6582H32.7333C33.4 14.6582 33.9667 14.8915 34.4333 15.3582C34.9 15.8249 35.1333 16.3915 35.1333 17.0582V19.4582H42V33.0582C42 33.7249 41.7667 34.2915 41.3 34.7582C40.8333 35.2249 40.2667 35.4582 39.6 35.4582H21.0667ZM21.0667 33.4582H39.6C39.6889 33.4582 39.7778 33.4138 39.8667 33.3249C39.9556 33.236 40 33.1471 40 33.0582V21.4582H20.6667V33.0582C20.6667 33.1471 20.7111 33.236 20.8 33.3249C20.8889 33.4138 20.9778 33.4582 21.0667 33.4582ZM27.5333 19.4582H33.1333V17.0582C33.1333 16.9693 33.0889 16.8804 33 16.7915C32.9111 16.7026 32.8222 16.6582 32.7333 16.6582H27.9333C27.8444 16.6582 27.7556 16.7026 27.6667 16.7915C27.5778 16.8804 27.5333 16.9693 27.5333 17.0582V19.4582Z" fill="#D17D00"/>
</g>
</svg>
