<svg width="20" height="20" viewBox="0 0 20 20" fill="none" xmlns="http://www.w3.org/2000/svg">
<path fill-rule="evenodd" clip-rule="evenodd" d="M5.02894 2.53911C4.79172 2.59978 4.69575 2.64157 4.48964 2.77394C4.2314 2.93983 4.00525 3.1845 3.86541 3.44937C3.64556 3.86572 3.64546 3.86749 3.64478 6.6331C3.64437 8.39973 3.63339 9.1257 3.60717 9.1257C3.58679 9.1257 3.45327 9.17225 3.31052 9.22914C2.72496 9.46251 2.23206 9.91043 1.95648 10.4596C1.67057 11.0294 1.68192 10.9189 1.66931 13.2549C1.65823 15.3013 1.65895 15.327 1.73003 15.4732C1.78272 15.5815 1.84091 15.6398 1.94749 15.6912C2.08124 15.7556 2.15534 15.7613 2.86669 15.7613H3.64037L3.65083 16.4735C3.66054 17.1338 3.66649 17.1927 3.73282 17.2817C3.97855 17.6114 4.36977 17.6114 4.6155 17.2817C4.68176 17.1927 4.68785 17.1334 4.69804 16.4735L4.70908 15.7613H10.4141H16.119L16.1301 16.4735C16.1403 17.1334 16.1464 17.1927 16.2126 17.2817C16.4584 17.6114 16.8496 17.6114 17.0953 17.2817C17.1616 17.1927 17.1676 17.1338 17.1773 16.4735L17.1878 15.7613H17.9614C18.6728 15.7613 18.7469 15.7556 18.8806 15.6912C18.9872 15.6398 19.0454 15.5815 19.0981 15.4732C19.1692 15.327 19.1699 15.3013 19.1588 13.2549C19.1462 10.9189 19.1576 11.0294 18.8716 10.4596C18.5961 9.91043 18.1032 9.46251 17.5176 9.22914C17.3749 9.17225 17.2413 9.1257 17.221 9.1257C17.1947 9.1257 17.1838 8.39973 17.1833 6.6331C17.1827 3.86667 17.1826 3.86585 16.9622 3.44839C16.758 3.06169 16.3716 2.73103 15.9359 2.57021C15.7724 2.50988 15.5342 2.50685 10.4824 2.50123C6.27538 2.49657 5.16509 2.50426 5.02894 2.53911ZM15.5373 3.547C15.7442 3.59117 15.9708 3.77404 16.0595 3.96845C16.1188 4.09844 16.1225 4.25068 16.1232 6.58205L16.124 9.05764H15.273H14.4219L14.4056 8.43662C14.3922 7.93027 14.3754 7.76857 14.314 7.56092C14.0665 6.7228 13.4326 6.09687 12.5837 5.85224C12.3143 5.77462 12.2934 5.77387 10.4141 5.77387C8.53471 5.77387 8.51382 5.77462 8.24446 5.85224C7.39549 6.09687 6.76162 6.7228 6.51411 7.56092C6.45277 7.76857 6.43588 7.93027 6.42254 8.43662L6.4062 9.05764H5.55514H4.70412L4.70488 6.58205C4.70559 4.25068 4.70929 4.09844 4.76861 3.96845C4.8505 3.78905 5.08693 3.58944 5.26469 3.54966C5.47069 3.50355 15.3218 3.501 15.5373 3.547ZM12.3514 6.87378C12.8072 7.01541 13.1307 7.33184 13.2896 7.79177C13.3427 7.94514 13.3545 8.07778 13.3545 8.51852V9.05764H10.4141H7.47361V8.51852C7.47361 8.07778 7.48545 7.94514 7.53848 7.79177C7.69552 7.33749 8.01814 7.01851 8.46516 6.87555C8.63454 6.82138 8.82687 6.81522 10.4025 6.81359C12.0023 6.81192 12.1688 6.81706 12.3514 6.87378ZM16.8211 10.1117C17.3802 10.2028 17.8495 10.603 18.0386 11.15C18.1035 11.3379 18.1071 11.4356 18.1071 13.0273V14.7064H10.4141H2.72103V13.0273C2.72103 11.4356 2.72459 11.3379 2.78955 11.15C2.97333 10.6184 3.45043 10.2019 3.97636 10.1139C4.21635 10.0737 16.5752 10.0716 16.8211 10.1117Z" fill="#717972"/>
</svg>
