<svg width="28" height="28" viewBox="0 0 28 28" fill="none" xmlns="http://www.w3.org/2000/svg">
<path fill-rule="evenodd" clip-rule="evenodd" d="M18.4244 1.1665C18.9074 1.1665 19.2994 1.5585 19.2994 2.0415L19.3 3.03062C21.0034 3.14741 22.4182 3.73089 23.4195 4.73429C24.5127 5.83212 25.0879 7.41062 25.0821 9.30412V19.9476C25.0821 23.835 22.6134 26.25 18.6409 26.25H8.7732C4.8007 26.25 2.33203 23.8011 2.33203 19.859V9.30179C2.33203 5.63518 4.5336 3.2816 8.12417 3.03102L8.12488 2.0415C8.12488 1.5585 8.51688 1.1665 8.99988 1.1665C9.48288 1.1665 9.87488 1.5585 9.87488 2.0415L9.87453 3.00867H17.5489L17.5494 2.0415C17.5494 1.5585 17.9414 1.1665 18.4244 1.1665ZM23.332 11.5545H4.08203V19.859C4.08203 22.8526 5.74803 24.5 8.7732 24.5H18.6409C21.666 24.5 23.3321 22.883 23.3321 19.9476L23.332 11.5545ZM18.9001 18.8955C19.3831 18.8955 19.7751 19.2875 19.7751 19.7705C19.7751 20.2535 19.3831 20.6455 18.9001 20.6455C18.4171 20.6455 18.0204 20.2535 18.0204 19.7705C18.0204 19.2875 18.4066 18.8955 18.8896 18.8955H18.9001ZM13.723 18.8955C14.206 18.8955 14.598 19.2875 14.598 19.7705C14.598 20.2535 14.206 20.6455 13.723 20.6455C13.24 20.6455 12.8433 20.2535 12.8433 19.7705C12.8433 19.2875 13.2295 18.8955 13.7125 18.8955H13.723ZM8.53508 18.8955C9.01808 18.8955 9.41008 19.2875 9.41008 19.7705C9.41008 20.2535 9.01808 20.6455 8.53508 20.6455C8.05208 20.6455 7.65425 20.2535 7.65425 19.7705C7.65425 19.2875 8.04158 18.8955 8.52458 18.8955H8.53508ZM18.9001 14.361C19.3831 14.361 19.7751 14.753 19.7751 15.236C19.7751 15.719 19.3831 16.111 18.9001 16.111C18.4171 16.111 18.0204 15.719 18.0204 15.236C18.0204 14.753 18.4066 14.361 18.8896 14.361H18.9001ZM13.723 14.361C14.206 14.361 14.598 14.753 14.598 15.236C14.598 15.719 14.206 16.111 13.723 16.111C13.24 16.111 12.8433 15.719 12.8433 15.236C12.8433 14.753 13.2295 14.361 13.7125 14.361H13.723ZM8.53508 14.361C9.01808 14.361 9.41008 14.753 9.41008 15.236C9.41008 15.719 9.01808 16.111 8.53508 16.111C8.05208 16.111 7.65425 15.719 7.65425 15.236C7.65425 14.753 8.04158 14.361 8.52458 14.361H8.53508ZM17.5489 4.75867H9.87453L9.87488 5.881C9.87488 6.364 9.48288 6.756 8.99988 6.756C8.51688 6.756 8.12488 6.364 8.12488 5.881L8.12426 4.78516C5.51066 5.00471 4.08203 6.589 4.08203 9.30179V9.8045H23.332L23.3321 9.30179C23.3367 7.86095 22.9494 6.74095 22.1805 5.97095C21.5056 5.29406 20.519 4.88981 19.3004 4.78572L19.2994 5.881C19.2994 6.364 18.9074 6.756 18.4244 6.756C17.9414 6.756 17.5494 6.364 17.5494 5.881L17.5489 4.75867Z" fill="#008952"/>
</svg>
