<svg width="20" height="20" viewBox="0 0 20 20" fill="none" xmlns="http://www.w3.org/2000/svg">
<path fill-rule="evenodd" clip-rule="evenodd" d="M13.1612 0.833984C13.5062 0.833984 13.7862 1.11398 13.7862 1.45898L13.7866 2.16549C15.0034 2.24891 16.0139 2.66569 16.7292 3.3824C17.51 4.16657 17.9208 5.29407 17.9167 6.64657V14.2491C17.9167 17.0257 16.1533 18.7507 13.3158 18.7507H6.2675C3.43 18.7507 1.66667 17.0016 1.66667 14.1857V6.6449C1.66667 4.02589 3.23921 2.34477 5.8039 2.16578L5.80442 1.45898C5.80442 1.11398 6.08442 0.833984 6.42942 0.833984C6.77442 0.833984 7.05442 1.11398 7.05442 1.45898L7.05417 2.14982H12.5358L12.5362 1.45898C12.5362 1.11398 12.8162 0.833984 13.1612 0.833984ZM16.6667 8.25398H2.91667V14.1857C2.91667 16.3241 4.10667 17.5007 6.2675 17.5007H13.3158C15.4767 17.5007 16.6667 16.3457 16.6667 14.2491L16.6667 8.25398ZM13.501 13.4976C13.846 13.4976 14.126 13.7776 14.126 14.1226C14.126 14.4676 13.846 14.7476 13.501 14.7476C13.156 14.7476 12.8727 14.4676 12.8727 14.1226C12.8727 13.7776 13.1485 13.4976 13.4935 13.4976H13.501ZM9.80308 13.4976C10.1481 13.4976 10.4281 13.7776 10.4281 14.1226C10.4281 14.4676 10.1481 14.7476 9.80308 14.7476C9.45808 14.7476 9.17475 14.4676 9.17475 14.1226C9.17475 13.7776 9.45058 13.4976 9.79558 13.4976H9.80308ZM6.09742 13.4976C6.44242 13.4976 6.72242 13.7776 6.72242 14.1226C6.72242 14.4676 6.44242 14.7476 6.09742 14.7476C5.75242 14.7476 5.46825 14.4676 5.46825 14.1226C5.46825 13.7776 5.74492 13.4976 6.08992 13.4976H6.09742ZM13.501 10.2587C13.846 10.2587 14.126 10.5387 14.126 10.8836C14.126 11.2286 13.846 11.5086 13.501 11.5086C13.156 11.5086 12.8727 11.2286 12.8727 10.8836C12.8727 10.5387 13.1485 10.2587 13.4935 10.2587H13.501ZM9.80308 10.2587C10.1481 10.2587 10.4281 10.5387 10.4281 10.8836C10.4281 11.2286 10.1481 11.5086 9.80308 11.5086C9.45808 11.5086 9.17475 11.2286 9.17475 10.8836C9.17475 10.5387 9.45058 10.2587 9.79558 10.2587H9.80308ZM6.09742 10.2587C6.44242 10.2587 6.72242 10.5387 6.72242 10.8836C6.72242 11.2286 6.44242 11.5086 6.09742 11.5086C5.75242 11.5086 5.46825 11.2286 5.46825 10.8836C5.46825 10.5387 5.74492 10.2587 6.08992 10.2587H6.09742ZM12.5358 3.39982H7.05417L7.05442 4.20148C7.05442 4.54648 6.77442 4.82648 6.42942 4.82648C6.08442 4.82648 5.80442 4.54648 5.80442 4.20148L5.80397 3.41874C3.93711 3.57556 2.91667 4.7072 2.91667 6.6449V7.00398H16.6667L16.6667 6.6449C16.67 5.61573 16.3933 4.81573 15.8442 4.26573C15.3621 3.78224 14.6574 3.49348 13.787 3.41914L13.7862 4.20148C13.7862 4.54648 13.5062 4.82648 13.1612 4.82648C12.8162 4.82648 12.5362 4.54648 12.5362 4.20148L12.5358 3.39982Z" fill="#717972"/>
</svg>
