<svg width="24" height="24" viewBox="0 0 24 24" fill="none" xmlns="http://www.w3.org/2000/svg">
<mask id="mask0_720_336" style="mask-type:alpha" maskUnits="userSpaceOnUse" x="0" y="0" width="24" height="24">
<rect width="24" height="24" fill="#D9D9D9"/>
</mask>
<g mask="url(#mask0_720_336)">
<path d="M21.5 21.05L17.95 17.5H4.3C3.8 17.5 3.375 17.325 3.025 16.975C2.675 16.625 2.5 16.2 2.5 15.7V4.3C2.5 3.8 2.675 3.375 3.025 3.025C3.375 2.675 3.8 2.5 4.3 2.5H19.7C20.2 2.5 20.625 2.675 20.975 3.025C21.325 3.375 21.5 3.8 21.5 4.3V21.05ZM4 4.3V16H18.575L20 17.425V4.3C20 4.21667 19.971 4.14567 19.913 4.087C19.8543 4.029 19.7833 4 19.7 4H4.3C4.21667 4 4.146 4.029 4.088 4.087C4.02933 4.14567 4 4.21667 4 4.3ZM4 4.3V17.425V4V4.3Z" fill="#191C1A"/>
</g>
</svg>
