<svg width="20" height="20" viewBox="0 0 20 20" fill="none" xmlns="http://www.w3.org/2000/svg">
<mask id="mask0_1696_1068" style="mask-type:alpha" maskUnits="userSpaceOnUse" x="0" y="0" width="20" height="20">
<rect width="20" height="20" fill="#D9D9D9"/>
</mask>
<g mask="url(#mask0_1696_1068)">
<path d="M8.81315 13.5443L14.4173 7.9401L13.5423 7.0651L8.81315 11.7943L6.43815 9.41927L5.56315 10.2943L8.81315 13.5443ZM10.0007 17.9193C8.90343 17.9193 7.87232 17.7109 6.90732 17.2943C5.94176 16.8776 5.10482 16.3151 4.39648 15.6068C3.68815 14.8984 3.12565 14.0615 2.70898 13.0959C2.29232 12.1309 2.08398 11.0998 2.08398 10.0026C2.08398 8.90538 2.29232 7.87399 2.70898 6.90844C3.12565 5.94344 3.68815 5.10677 4.39648 4.39844C5.10482 3.6901 5.94176 3.1276 6.90732 2.71094C7.87232 2.29427 8.90343 2.08594 10.0007 2.08594C11.0979 2.08594 12.1293 2.29427 13.0948 2.71094C14.0598 3.1276 14.8965 3.6901 15.6048 4.39844C16.3132 5.10677 16.8757 5.94344 17.2923 6.90844C17.709 7.87399 17.9173 8.90538 17.9173 10.0026C17.9173 11.0998 17.709 12.1309 17.2923 13.0959C16.8757 14.0615 16.3132 14.8984 15.6048 15.6068C14.8965 16.3151 14.0598 16.8776 13.0948 17.2943C12.1293 17.7109 11.0979 17.9193 10.0007 17.9193ZM10.0007 16.6693C11.8618 16.6693 13.4382 16.0234 14.7298 14.7318C16.0215 13.4401 16.6673 11.8637 16.6673 10.0026C16.6673 8.14149 16.0215 6.5651 14.7298 5.27344C13.4382 3.98177 11.8618 3.33594 10.0007 3.33594C8.13954 3.33594 6.56315 3.98177 5.27148 5.27344C3.97982 6.5651 3.33398 8.14149 3.33398 10.0026C3.33398 11.8637 3.97982 13.4401 5.27148 14.7318C6.56315 16.0234 8.13954 16.6693 10.0007 16.6693Z" fill="#717972"/>
</g>
</svg>
