<svg width="64" height="64" viewBox="0 0 64 64" fill="none" xmlns="http://www.w3.org/2000/svg">
<mask id="mask0_305_304" style="mask-type:alpha" maskUnits="userSpaceOnUse" x="0" y="0" width="64" height="64">
<rect width="64" height="64" fill="#D9D9D9"/>
</mask>
<g mask="url(#mask0_305_304)">
<path d="M28.1993 43.3332L46.1327 25.3998L43.3327 22.5998L28.1993 37.7332L20.5993 30.1332L17.7993 32.9332L28.1993 43.3332ZM31.9993 57.3332C28.4882 57.3332 25.1887 56.6665 22.1007 55.3332C19.0109 53.9998 16.3327 52.1998 14.066 49.9332C11.7993 47.6665 9.99935 44.9883 8.66602 41.8985C7.33268 38.8105 6.66602 35.5109 6.66602 31.9998C6.66602 28.4887 7.33268 25.1883 8.66602 22.0985C9.99935 19.0105 11.7993 16.3332 14.066 14.0665C16.3327 11.7998 19.0109 9.99984 22.1007 8.6665C25.1887 7.33317 28.4882 6.6665 31.9993 6.6665C35.5105 6.6665 38.8109 7.33317 41.9007 8.6665C44.9887 9.99984 47.666 11.7998 49.9327 14.0665C52.1993 16.3332 53.9993 19.0105 55.3327 22.0985C56.666 25.1883 57.3327 28.4887 57.3327 31.9998C57.3327 35.5109 56.666 38.8105 55.3327 41.8985C53.9993 44.9883 52.1993 47.6665 49.9327 49.9332C47.666 52.1998 44.9887 53.9998 41.9007 55.3332C38.8109 56.6665 35.5105 57.3332 31.9993 57.3332ZM31.9993 53.3332C37.9549 53.3332 42.9993 51.2665 47.1327 47.1332C51.266 42.9998 53.3327 37.9554 53.3327 31.9998C53.3327 26.0443 51.266 20.9998 47.1327 16.8665C42.9993 12.7332 37.9549 10.6665 31.9993 10.6665C26.0438 10.6665 20.9993 12.7332 16.866 16.8665C12.7327 20.9998 10.666 26.0443 10.666 31.9998C10.666 37.9554 12.7327 42.9998 16.866 47.1332C20.9993 51.2665 26.0438 53.3332 31.9993 53.3332Z" fill="#006D40"/>
</g>
</svg>
