<svg width="20" height="20" viewBox="0 0 20 20" fill="none" xmlns="http://www.w3.org/2000/svg">
<mask id="mask0_403_643" style="mask-type:alpha" maskUnits="userSpaceOnUse" x="0" y="0" width="20" height="20">
<rect width="20" height="20" fill="#D9D9D9"/>
</mask>
<g mask="url(#mask0_403_643)">
<path d="M2.87305 18.791V13.4994C2.87305 12.4021 3.2586 11.468 4.02971 10.6968C4.80027 9.92629 5.73416 9.54102 6.83138 9.54102H7.78971V2.87435C7.78971 2.45768 7.93555 2.0999 8.22721 1.80102C8.51888 1.50268 8.87305 1.35352 9.28971 1.35352H10.7064C11.123 1.35352 11.4772 1.50268 11.7689 1.80102C12.0605 2.0999 12.2064 2.45768 12.2064 2.87435V9.54102H13.1647C14.2619 9.54102 15.1961 9.92629 15.9672 10.6968C16.7378 11.468 17.123 12.4021 17.123 13.4994V18.791H2.87305ZM4.12305 17.541H6.12305V14.8327C6.12305 14.666 6.18194 14.5202 6.29971 14.3952C6.41805 14.2702 6.56749 14.2077 6.74805 14.2077C6.9286 14.2077 7.07777 14.2702 7.19555 14.3952C7.31388 14.5202 7.37305 14.666 7.37305 14.8327V17.541H9.37305V14.8327C9.37305 14.666 9.43221 14.5202 9.55055 14.3952C9.66833 14.2702 9.81749 14.2077 9.99805 14.2077C10.1786 14.2077 10.328 14.2702 10.4464 14.3952C10.5642 14.5202 10.623 14.666 10.623 14.8327V17.541H12.623V14.8327C12.623 14.666 12.6822 14.5202 12.8005 14.3952C12.9183 14.2702 13.0675 14.2077 13.248 14.2077C13.4286 14.2077 13.578 14.2702 13.6964 14.3952C13.8142 14.5202 13.873 14.666 13.873 14.8327V17.541H15.873V13.4994C15.873 12.7494 15.6092 12.1105 15.0814 11.5827C14.5536 11.0549 13.9147 10.791 13.1647 10.791H6.83138C6.08138 10.791 5.44249 11.0549 4.91471 11.5827C4.38694 12.1105 4.12305 12.7494 4.12305 13.4994V17.541ZM10.9564 9.54102V2.87435C10.9564 2.79102 10.9319 2.7249 10.883 2.67602C10.8347 2.62768 10.7758 2.60352 10.7064 2.60352H9.28971C9.22027 2.60352 9.16138 2.62768 9.11305 2.67602C9.06416 2.7249 9.03971 2.79102 9.03971 2.87435V9.54102H10.9564Z" fill="#1C1B1F"/>
</g>
</svg>
