<svg width="36" height="36" viewBox="0 0 36 36" fill="none" xmlns="http://www.w3.org/2000/svg">
<path d="M15.5372 7.2C15.2729 6.93109 14.9442 6.73433 14.5823 6.62848C14.2205 6.52263 13.8375 6.51121 13.47 6.59531C13.0991 6.67728 12.7551 6.8518 12.4698 7.10261C12.1846 7.35342 11.9675 7.67235 11.8388 8.02969L4.25907 28.8562C4.14087 29.1952 4.10496 29.5574 4.15431 29.913C4.20366 30.2686 4.33685 30.6073 4.5429 30.9013C4.74894 31.1952 5.02193 31.436 5.33935 31.6036C5.65676 31.7713 6.00949 31.8611 6.36844 31.8656C6.63144 31.866 6.89272 31.8233 7.14188 31.7391L27.9684 24.1594C28.3258 24.0306 28.6447 23.8135 28.8955 23.5283C29.1463 23.2431 29.3208 22.899 29.4028 22.5281C29.4869 22.1606 29.4755 21.7777 29.3696 21.4158C29.2638 21.0539 29.067 20.7252 28.7981 20.4609L15.5372 7.2ZM14.6934 26.5922L9.40594 21.3047L11.2481 16.2141L19.7841 24.75L14.6934 26.5922ZM6.38251 29.6156L8.54813 23.6391L12.3591 27.45L6.38251 29.6156ZM22.1184 23.8922L12.1059 13.8797L13.9481 8.78906L27.2091 22.05L22.1184 23.8922ZM22.4981 10.125C22.5188 9.36415 22.701 8.61639 23.0325 7.93125C23.7778 6.44063 25.1841 5.625 26.9981 5.625C27.9403 5.625 28.545 5.30156 28.9247 4.6125C29.1183 4.2223 29.2284 3.79606 29.2481 3.36094C29.2481 3.21386 29.2773 3.06824 29.334 2.93253C29.3907 2.79682 29.4738 2.67372 29.5785 2.57037C29.6831 2.46703 29.8073 2.38549 29.9437 2.33049C30.0801 2.2755 30.2261 2.24814 30.3731 2.25C30.6715 2.25 30.9576 2.36853 31.1686 2.5795C31.3796 2.79048 31.4981 3.07663 31.4981 3.375C31.4981 5.18906 30.3028 7.875 26.9981 7.875C26.0559 7.875 25.4513 8.19844 25.0716 8.8875C24.878 9.2777 24.7679 9.70394 24.7481 10.1391C24.7481 10.2861 24.7189 10.4318 24.6622 10.5675C24.6055 10.7032 24.5224 10.8263 24.4178 10.9296C24.3131 11.033 24.189 11.1145 24.0526 11.1695C23.9162 11.2245 23.7702 11.2519 23.6231 11.25C23.3248 11.25 23.0386 11.1315 22.8276 10.9205C22.6167 10.7095 22.4981 10.4234 22.4981 10.125ZM19.1231 5.625V2.25C19.1231 1.95163 19.2417 1.66548 19.4526 1.4545C19.6636 1.24353 19.9498 1.125 20.2481 1.125C20.5465 1.125 20.8326 1.24353 21.0436 1.4545C21.2546 1.66548 21.3731 1.95163 21.3731 2.25V5.625C21.3731 5.92337 21.2546 6.20952 21.0436 6.4205C20.8326 6.63147 20.5465 6.75 20.2481 6.75C19.9498 6.75 19.6636 6.63147 19.4526 6.4205C19.2417 6.20952 19.1231 5.92337 19.1231 5.625ZM33.4247 17.1984C33.6359 17.4117 33.7545 17.6998 33.7545 18C33.7545 18.3002 33.6359 18.5883 33.4247 18.8016C33.2097 19.0095 32.9222 19.1257 32.6231 19.1257C32.324 19.1257 32.0366 19.0095 31.8216 18.8016L29.5716 16.5516C29.3922 16.333 29.3005 16.0555 29.3144 15.7731C29.3282 15.4906 29.4467 15.2234 29.6466 15.0235C29.8466 14.8235 30.1137 14.7051 30.3962 14.6912C30.6786 14.6774 30.9561 14.769 31.1747 14.9484L33.4247 17.1984ZM34.0997 11.1937L30.7247 12.3187C30.6117 12.3578 30.4927 12.3769 30.3731 12.375C30.1056 12.3751 29.8467 12.2798 29.6431 12.1062C29.4395 11.9327 29.3044 11.6922 29.262 11.428C29.2197 11.1638 29.2729 10.8932 29.4121 10.6647C29.5513 10.4362 29.7674 10.2648 30.0216 10.1813L33.3966 9.05625C33.5369 9.01008 33.685 8.99201 33.8323 9.00307C33.9797 9.01412 34.1234 9.05409 34.2553 9.12069C34.3871 9.18728 34.5046 9.27921 34.601 9.39121C34.6974 9.5032 34.7707 9.63309 34.8169 9.77344C34.863 9.91379 34.8811 10.0619 34.8701 10.2092C34.859 10.3565 34.819 10.5002 34.7524 10.6321C34.6858 10.764 34.5939 10.8815 34.4819 10.9779C34.3699 11.0742 34.24 11.1476 34.0997 11.1937Z" fill="#015AC3"/>
</svg>
