<svg width="28" height="28" viewBox="0 0 28 28" fill="none" xmlns="http://www.w3.org/2000/svg">
<path fill-rule="evenodd" clip-rule="evenodd" d="M12.8002 2.02196C11.1081 2.18413 9.822 2.54414 8.41641 3.2491C7.29973 3.80912 6.39147 4.47381 5.43249 5.43274C4.40693 6.45835 3.76349 7.35895 3.15006 8.62759C2.43101 10.1145 2.06763 11.5941 2.00766 13.2793C1.93843 15.2243 2.33839 17.0754 3.20374 18.8154C3.81334 20.0411 4.43968 20.9082 5.43249 21.9011C6.43625 22.9048 7.3073 23.5316 8.53613 24.1344C9.39354 24.555 9.94714 24.7597 10.8164 24.9778C13.0972 25.5499 15.3848 25.4402 17.6133 24.6518C18.2888 24.4129 19.4679 23.8219 20.0741 23.4185C21.7386 22.3109 23.1142 20.7816 24.025 19.0261C24.849 17.4377 25.2613 15.8617 25.3257 14.0546C25.3949 12.1096 24.9949 10.2585 24.1296 8.51846C23.5614 7.37592 22.9288 6.48047 22.0406 5.5614C21.0556 4.54213 20.0896 3.8389 18.7972 3.20034C17.4463 2.53292 16.1877 2.17665 14.6928 2.03852C14.2282 1.9956 13.1719 1.98634 12.8002 2.02196Z" fill="#D9D9D9"/>
<path d="M15.0295 12.9706C14.4835 12.4248 13.743 12.1182 12.9709 12.1182C12.1988 12.1182 11.4583 12.4248 10.9122 12.9706L8.85287 15.0293C8.30678 15.5754 8 16.316 8 17.0883C8 17.8606 8.30678 18.6012 8.85287 19.1473C9.39895 19.6934 10.1396 20.0002 10.9119 20.0002C11.6841 20.0002 12.4248 19.6934 12.9709 19.1473L14.0002 18.118" stroke="#191C1A" stroke-linecap="round" stroke-linejoin="round"/>
<path d="M12.9707 15.0293C13.5168 15.5751 14.2573 15.8818 15.0294 15.8818C15.8015 15.8818 16.542 15.5751 17.088 15.0293L19.1474 12.9706C19.6935 12.4245 20.0002 11.6839 20.0002 10.9116C20.0002 10.1393 19.6935 9.3987 19.1474 8.85262C18.6013 8.30654 17.8606 7.99976 17.0884 7.99976C16.3161 7.99976 15.5755 8.30654 15.0294 8.85262L14 9.88195" stroke="#191C1A" stroke-linecap="round" stroke-linejoin="round"/>
</svg>
