<svg width="20" height="20" viewBox="0 0 20 20" fill="none" xmlns="http://www.w3.org/2000/svg">
<mask id="mask0_5748_1538" style="mask-type:alpha" maskUnits="userSpaceOnUse" x="0" y="0" width="20" height="20">
<rect width="20" height="20" fill="#D9D9D9"/>
</mask>
<g mask="url(#mask0_5748_1538)">
<path d="M7.33203 18.2298L5.85287 15.709L3.04036 15.1048L3.3112 12.1882L1.39453 10.0007L3.3112 7.81315L3.04036 4.89648L5.85287 4.29232L7.33203 1.77148L9.9987 2.91732L12.6654 1.77148L14.1445 4.29232L16.957 4.89648L16.6862 7.81315L18.6029 10.0007L16.6862 12.1882L16.957 15.1048L14.1445 15.709L12.6654 18.2298L9.9987 17.084L7.33203 18.2298ZM7.8737 16.6257L9.9987 15.7298L12.1445 16.6257L13.332 14.6257L15.6237 14.1048L15.4154 11.7507L16.957 10.0007L15.4154 8.22982L15.6237 5.87565L13.332 5.37565L12.1237 3.37565L9.9987 4.27148L7.85286 3.37565L6.66536 5.37565L4.3737 5.87565L4.58203 8.22982L3.04036 10.0007L4.58203 11.7507L4.3737 14.1257L6.66536 14.6257L7.8737 16.6257ZM9.1237 12.6673L13.5404 8.25065L12.6654 7.35482L9.1237 10.8965L7.33203 9.12565L6.45703 10.0007L9.1237 12.6673Z" fill="white"/>
</g>
</svg>
