<svg width="20" height="20" viewBox="0 0 20 20" fill="none" xmlns="http://www.w3.org/2000/svg">
<mask id="mask0_227_6109" style="mask-type:alpha" maskUnits="userSpaceOnUse" x="0" y="0" width="20" height="20">
<rect width="20" height="20" fill="#D9D9D9"/>
</mask>
<g mask="url(#mask0_227_6109)">
<path d="M4.41699 17.0832C4.00033 17.0832 3.64616 16.9373 3.35449 16.6457C3.06283 16.354 2.91699 15.9998 2.91699 15.5832V4.4165C2.91699 3.99984 3.06283 3.64567 3.35449 3.354C3.64616 3.06234 4.00033 2.9165 4.41699 2.9165H15.5837C16.0003 2.9165 16.3545 3.06234 16.6462 3.354C16.9378 3.64567 17.0837 3.99984 17.0837 4.4165V15.5832C17.0837 15.9998 16.9378 16.354 16.6462 16.6457C16.3545 16.9373 16.0003 17.0832 15.5837 17.0832H4.41699ZM4.41699 15.8332H9.37533V4.1665H4.41699C4.36144 4.1665 4.30588 4.19428 4.25033 4.24984C4.19477 4.30539 4.16699 4.36095 4.16699 4.4165V15.5832C4.16699 15.6387 4.19477 15.6943 4.25033 15.7498C4.30588 15.8054 4.36144 15.8332 4.41699 15.8332ZM10.6253 15.8332H15.5837C15.6392 15.8332 15.6948 15.8054 15.7503 15.7498C15.8059 15.6943 15.8337 15.6387 15.8337 15.5832V9.99984H10.6253V15.8332ZM10.6253 8.74984H15.8337V4.4165C15.8337 4.36095 15.8059 4.30539 15.7503 4.24984C15.6948 4.19428 15.6392 4.1665 15.5837 4.1665H10.6253V8.74984Z" fill="#191C1A"/>
</g>
</svg>
