<svg width="24" height="24" viewBox="0 0 24 24" fill="none" xmlns="http://www.w3.org/2000/svg">
<mask id="mask0_1554_494" style="mask-type:alpha" maskUnits="userSpaceOnUse" x="0" y="0" width="24" height="24">
<rect width="24" height="24" fill="#D9D9D9"/>
</mask>
<g mask="url(#mask0_1554_494)">
<path d="M4.95882 21.5C4.41471 21.5 3.95221 21.3096 3.57132 20.9287C3.19044 20.5478 3 20.0853 3 19.5412V4.95882C3 4.41471 3.19044 3.95221 3.57132 3.57132C3.95221 3.19044 4.41471 3 4.95882 3H19.5412C20.0853 3 20.5478 3.19044 20.9287 3.57132C21.3096 3.95221 21.5 4.41471 21.5 4.95882V19.5412C21.5 20.0853 21.3096 20.5478 20.9287 20.9287C20.5478 21.3096 20.0853 21.5 19.5412 21.5H4.95882ZM4.95882 19.8676H11.4338V4.63235H4.95882C4.88627 4.63235 4.81373 4.66863 4.74118 4.74118C4.66863 4.81373 4.63235 4.88627 4.63235 4.95882V19.5412C4.63235 19.6137 4.66863 19.6863 4.74118 19.7588C4.81373 19.8314 4.88627 19.8676 4.95882 19.8676ZM13.0662 19.8676H19.5412C19.6137 19.8676 19.6863 19.8314 19.7588 19.7588C19.8314 19.6863 19.8676 19.6137 19.8676 19.5412V12.25H13.0662V19.8676ZM13.0662 10.6176H19.8676V4.95882C19.8676 4.88627 19.8314 4.81373 19.7588 4.74118C19.6863 4.66863 19.6137 4.63235 19.5412 4.63235H13.0662V10.6176Z" fill="#191C1A"/>
</g>
</svg>
