<svg width="20" height="20" viewBox="0 0 20 20" fill="none" xmlns="http://www.w3.org/2000/svg">
<mask id="mask0_291_185" style="mask-type:alpha" maskUnits="userSpaceOnUse" x="0" y="0" width="20" height="20">
<rect width="20" height="20" fill="#D9D9D9"/>
</mask>
<g mask="url(#mask0_291_185)">
<path d="M6.08333 17.0835C5.66667 17.0835 5.3125 16.9377 5.02083 16.646C4.72917 16.3543 4.58333 16.0002 4.58333 15.5835V5.00016H3.75V3.75016H7.5V3.021H12.5V3.75016H16.25V5.00016H15.4167V15.5835C15.4167 16.0002 15.2708 16.3543 14.9792 16.646C14.6875 16.9377 14.3333 17.0835 13.9167 17.0835H6.08333ZM14.1667 5.00016H5.83333V15.5835C5.83333 15.6529 5.85778 15.7121 5.90667 15.761C5.955 15.8093 6.01389 15.8335 6.08333 15.8335H13.9167C13.9722 15.8335 14.0278 15.8057 14.0833 15.7502C14.1389 15.6946 14.1667 15.6391 14.1667 15.5835V5.00016ZM7.83333 14.1668H9.08333V6.66683H7.83333V14.1668ZM10.9167 14.1668H12.1667V6.66683H10.9167V14.1668ZM5.83333 5.00016V15.8335V15.5835V5.00016Z" fill="#717972"/>
</g>
</svg>
