<svg width="24" height="24" viewBox="0 0 24 24" fill="none" xmlns="http://www.w3.org/2000/svg">
<mask id="mask0_1548_12528" style="mask-type:alpha" maskUnits="userSpaceOnUse" x="0" y="0" width="24" height="24">
<rect width="24" height="24" fill="#D9D9D9"/>
</mask>
<g mask="url(#mask0_1548_12528)">
<path d="M3.5 20.5V19H5.5V5.3C5.5 4.8 5.675 4.375 6.025 4.025C6.375 3.675 6.8 3.5 7.3 3.5H16.7C17.2 3.5 17.625 3.675 17.975 4.025C18.325 4.375 18.5 4.8 18.5 5.3V19H20.5V20.5H3.5ZM17 19V5.3C17 5.23333 16.9667 5.16667 16.9 5.1C16.8333 5.03333 16.7667 5 16.7 5H7.3C7.23333 5 7.16667 5.03333 7.1 5.1C7.03333 5.16667 7 5.23333 7 5.3V19H17ZM14.125 12.875C14.3583 12.875 14.5627 12.7917 14.738 12.625C14.9127 12.4583 15 12.25 15 12C15 11.75 14.9127 11.5417 14.738 11.375C14.5627 11.2083 14.3583 11.125 14.125 11.125C13.875 11.125 13.6627 11.2083 13.488 11.375C13.3127 11.5417 13.225 11.75 13.225 12C13.225 12.25 13.3127 12.4583 13.488 12.625C13.6627 12.7917 13.875 12.875 14.125 12.875Z" fill="#002110"/>
</g>
</svg>
