<svg width="24" height="24" viewBox="0 0 24 24" fill="none" xmlns="http://www.w3.org/2000/svg">
<mask id="mask0_762_253" style="mask-type:alpha" maskUnits="userSpaceOnUse" x="0" y="0" width="24" height="24">
<rect width="24" height="24" fill="#D9D9D9"/>
</mask>
<g mask="url(#mask0_762_253)">
<path d="M6.22461 13.5C5.80794 13.5 5.45394 13.354 5.16261 13.062C4.87061 12.7707 4.72461 12.4167 4.72461 12C4.72461 11.5833 4.87061 11.2293 5.16261 10.938C5.45394 10.646 5.80794 10.5 6.22461 10.5C6.64128 10.5 6.99561 10.646 7.28761 10.938C7.57894 11.2293 7.72461 11.5833 7.72461 12C7.72461 12.4167 7.57894 12.7707 7.28761 13.062C6.99561 13.354 6.64128 13.5 6.22461 13.5ZM11.9996 13.5C11.5829 13.5 11.2289 13.354 10.9376 13.062C10.6456 12.7707 10.4996 12.4167 10.4996 12C10.4996 11.5833 10.6456 11.2293 10.9376 10.938C11.2289 10.646 11.5829 10.5 11.9996 10.5C12.4163 10.5 12.7703 10.646 13.0616 10.938C13.3536 11.2293 13.4996 11.5833 13.4996 12C13.4996 12.4167 13.3536 12.7707 13.0616 13.062C12.7703 13.354 12.4163 13.5 11.9996 13.5ZM17.7746 13.5C17.3579 13.5 17.0039 13.354 16.7126 13.062C16.4206 12.7707 16.2746 12.4167 16.2746 12C16.2746 11.5833 16.4206 11.2293 16.7126 10.938C17.0039 10.646 17.3579 10.5 17.7746 10.5C18.1913 10.5 18.5456 10.646 18.8376 10.938C19.1289 11.2293 19.2746 11.5833 19.2746 12C19.2746 12.4167 19.1289 12.7707 18.8376 13.062C18.5456 13.354 18.1913 13.5 17.7746 13.5Z" fill="#717972"/>
</g>
</svg>
