<svg width="32" height="32" viewBox="0 0 32 32" fill="none" xmlns="http://www.w3.org/2000/svg">
<rect width="32" height="32" rx="8" fill="#D8E2FF"/>
<mask id="mask0_1027_1158" style="mask-type:alpha" maskUnits="userSpaceOnUse" x="6" y="6" width="20" height="20">
<rect x="6" y="6" width="20" height="20" fill="#D9D9D9"/>
</mask>
<g mask="url(#mask0_1027_1158)">
<path d="M10.293 21.832H11.3346L19.043 14.1237L18.0221 13.082L10.293 20.8112V21.832ZM21.7096 13.207L18.8971 10.4154L19.8138 9.4987C20.1055 9.22092 20.4632 9.08203 20.8871 9.08203C21.3105 9.08203 21.661 9.22092 21.9388 9.4987L22.793 10.3529C23.0291 10.6029 23.1541 10.8979 23.168 11.2379C23.1819 11.5784 23.0638 11.8668 22.8138 12.1029L21.7096 13.207ZM20.8138 14.1237L11.8555 23.082H9.04297V20.2695L18.0013 11.3112L20.8138 14.1237ZM18.5221 13.6029L18.0221 13.082L19.043 14.1237L18.5221 13.6029Z" fill="#015AC3"/>
</g>
</svg>
