<svg width="20" height="20" viewBox="0 0 20 20" fill="none" xmlns="http://www.w3.org/2000/svg">
<mask id="mask0_762_274" style="mask-type:alpha" maskUnits="userSpaceOnUse" x="0" y="0" width="20" height="20">
<rect width="20" height="20" fill="#D9D9D9"/>
</mask>
<g mask="url(#mask0_762_274)">
<path d="M4.29102 15.832H5.33268L13.041 8.1237L12.0202 7.08203L4.29102 14.8112V15.832ZM15.7077 7.20703L12.8952 4.41536L13.8119 3.4987C14.1035 3.22092 14.4613 3.08203 14.8852 3.08203C15.3085 3.08203 15.6591 3.22092 15.9369 3.4987L16.791 4.35286C17.0271 4.60286 17.1521 4.89786 17.166 5.23786C17.1799 5.57842 17.0619 5.86675 16.8119 6.10286L15.7077 7.20703ZM14.8119 8.1237L5.85352 17.082H3.04102V14.2695L11.9993 5.3112L14.8119 8.1237ZM12.5202 7.60286L12.0202 7.08203L13.041 8.1237L12.5202 7.60286Z" fill="#191C1A"/>
</g>
</svg>
