<svg width="36" height="36" viewBox="0 0 36 36" fill="none" xmlns="http://www.w3.org/2000/svg">
<rect width="36" height="36" rx="8" fill="#D8E2FF"/>
<mask id="mask0_235_6622" style="mask-type:alpha" maskUnits="userSpaceOnUse" x="8" y="8" width="20" height="20">
<rect x="8" y="8" width="20" height="20" fill="#D9D9D9"/>
</mask>
<g mask="url(#mask0_235_6622)">
<path d="M12.291 23.833H13.3327L21.041 16.1247L20.0202 15.083L12.291 22.8122V23.833ZM23.7077 15.208L20.8952 12.4163L21.8119 11.4997C22.1035 11.2219 22.4613 11.083 22.8852 11.083C23.3085 11.083 23.6591 11.2219 23.9369 11.4997L24.791 12.3538C25.0271 12.6038 25.1521 12.8988 25.166 13.2388C25.1799 13.5794 25.0619 13.8677 24.8119 14.1038L23.7077 15.208ZM22.8119 16.1247L13.8535 25.083H11.041V22.2705L19.9993 13.3122L22.8119 16.1247ZM20.5202 15.6038L20.0202 15.083L21.041 16.1247L20.5202 15.6038Z" fill="#015AC3"/>
</g>
</svg>
