<svg width="20" height="20" viewBox="0 0 20 20" fill="none" xmlns="http://www.w3.org/2000/svg">
<path fill-rule="evenodd" clip-rule="evenodd" d="M17.0143 2.68312C17.2585 2.92729 17.2585 3.32312 17.0143 3.56729L3.86934 16.7115C3.74767 16.834 3.58767 16.8948 3.42767 16.8948C3.26767 16.8948 3.10767 16.834 2.986 16.7115C2.74184 16.4673 2.74184 16.0723 2.986 15.8281L4.62929 14.1858C3.45111 13.1082 2.45168 11.6555 1.71775 9.94496C1.64942 9.78662 1.64942 9.60829 1.71775 9.45079C2.56859 7.48079 3.76692 5.84996 5.18359 4.73579C7.92761 2.56417 11.5351 2.4489 14.3904 4.42356L16.131 2.68312C16.3752 2.43896 16.7702 2.43896 17.0143 2.68312ZM16.7058 6.70062C17.3092 7.50146 17.8392 8.42729 18.2817 9.44896C18.3508 9.60729 18.3508 9.78729 18.2817 9.94479C16.535 13.9923 13.4392 16.4081 10 16.4081C9.21917 16.4081 8.4425 16.2815 7.6925 16.0323C7.365 15.9231 7.1875 15.569 7.29667 15.2415C7.40584 14.9131 7.75834 14.739 8.0875 14.8456C8.71 15.0531 9.35334 15.1581 10 15.1581C12.8567 15.1581 15.4675 13.1231 17.025 9.69729C16.645 8.86479 16.2025 8.11062 15.7075 7.45229C15.5 7.17646 15.555 6.78396 15.8308 6.57646C16.1058 6.36896 16.4983 6.42562 16.7058 6.70062ZM5.95775 5.71746C4.76109 6.65912 3.73359 8.03079 2.97525 9.69912C3.63646 11.1595 4.50511 12.3911 5.51405 13.3006L7.29555 11.5193C6.93311 10.986 6.73809 10.3572 6.73809 9.69879C6.73809 7.89879 8.20142 6.43462 9.99975 6.43462C10.6522 6.43462 11.2905 6.6333 11.8219 6.99238L13.4898 5.32454C11.1125 3.78769 8.21899 3.92789 5.95775 5.71746ZM12.6978 9.55129C13.0378 9.61212 13.2636 9.93712 13.2028 10.2771C12.9636 11.6046 11.9119 12.658 10.5853 12.8996C10.5478 12.9063 10.5094 12.9096 10.4728 12.9096C10.1769 12.9096 9.91359 12.698 9.85859 12.3963C9.79692 12.0571 10.0219 11.7313 10.3619 11.6696C11.1786 11.5213 11.8253 10.873 11.9719 10.0555C12.0336 9.71629 12.3586 9.49296 12.6978 9.55129ZM9.99975 7.68462C8.89059 7.68462 7.98809 8.58796 7.98809 9.69879C7.98809 10.0199 8.06369 10.3299 8.20621 10.6083L10.9109 7.90332C10.6325 7.76142 10.3193 7.68462 9.99975 7.68462Z" fill="#717972"/>
</svg>
