<svg width="20" height="20" viewBox="0 0 20 20" fill="none" xmlns="http://www.w3.org/2000/svg">
<path fill-rule="evenodd" clip-rule="evenodd" d="M10.0026 3.33398C13.4493 3.33648 16.5443 5.75232 18.2826 9.79732C18.351 9.95482 18.351 10.1332 18.2826 10.2907C16.5451 14.3365 13.4493 16.7523 10.0026 16.7548H9.99762C6.55095 16.7523 3.45595 14.3365 1.71762 10.2907C1.65012 10.1332 1.65012 9.95482 1.71762 9.79732C3.45595 5.75232 6.55178 3.33648 9.99762 3.33398H10.0026ZM10.0001 4.58398C7.13678 4.58482 4.52512 6.62065 2.97512 10.044C4.52512 13.4682 7.13595 15.504 10.0001 15.5048C12.8643 15.504 15.4751 13.4682 17.0251 10.044C15.4751 6.62065 12.8643 4.58482 10.0001 4.58398ZM9.99987 6.78465C11.7974 6.78465 13.2599 8.24715 13.2599 10.0447C13.2599 11.8413 11.7974 13.303 9.99987 13.303C8.20237 13.303 6.7407 11.8413 6.7407 10.0447C6.7407 8.24715 8.20237 6.78465 9.99987 6.78465ZM9.99987 8.03465C8.89153 8.03465 7.9907 8.93632 7.9907 10.0447C7.9907 11.1522 8.89153 12.053 9.99987 12.053C11.1082 12.053 12.0099 11.1522 12.0099 10.0447C12.0099 8.93632 11.1082 8.03465 9.99987 8.03465Z" fill="#717972"/>
</svg>
