<svg width="28" height="28" viewBox="0 0 28 28" fill="none" xmlns="http://www.w3.org/2000/svg">
<path fill-rule="evenodd" clip-rule="evenodd" d="M12.8925 2.36157C9.23903 2.74124 6.04238 4.72502 4.09727 7.81979C1.84207 11.408 1.74235 16.0838 3.84292 19.7474C4.94854 21.6757 6.5703 23.2612 8.48447 24.2852C10.1132 25.1564 11.9111 25.6369 13.5994 25.6522L14.2156 25.6578L14.2272 21.128L14.2389 16.5983H12.9835H11.7282V15.1386V13.6788L12.9719 13.6667L14.2156 13.6545L14.2414 12.1256C14.2649 10.7379 14.2765 10.563 14.3679 10.2316C14.7154 8.9706 15.554 8.1317 16.817 7.78132C17.1455 7.69018 17.2897 7.67986 18.2547 7.67854C18.8446 7.67772 19.5274 7.6941 19.7722 7.71492L20.2172 7.75275V9.0684V10.3841L19.1332 10.3993C18.0556 10.4144 18.0479 10.4152 17.8137 10.5385C17.3109 10.8033 17.2506 11.0155 17.2506 12.5208V13.6774H18.6883C19.479 13.6774 20.1258 13.6928 20.1257 13.7116C20.1256 13.7304 20.0435 14.371 19.9432 15.135C19.8428 15.899 19.7608 16.5408 19.7608 16.5612C19.7608 16.5816 19.196 16.5983 18.5057 16.5983H17.2506V20.9113C17.2506 23.2834 17.2586 25.2242 17.2684 25.2242C17.3554 25.2242 18.4417 24.8134 18.853 24.6249C20.2256 23.996 21.2915 23.2387 22.3858 22.1147C23.338 21.1368 23.9291 20.2914 24.5354 19.04C25.0745 17.9274 25.4422 16.6868 25.611 15.4117C25.6861 14.8441 25.6861 13.0874 25.611 12.5592C25.2274 9.86053 24.113 7.59014 22.2649 5.7421C20.4547 3.93185 18.1983 2.80295 15.6304 2.42272C15.0705 2.3398 13.4502 2.30365 12.8925 2.36157Z" fill="#4267B2"/>
</svg>
