<svg width="24" height="24" viewBox="0 0 24 24" fill="none" xmlns="http://www.w3.org/2000/svg">
<mask id="mask0_1448_15903" style="mask-type:alpha" maskUnits="userSpaceOnUse" x="0" y="0" width="24" height="24">
<rect width="24" height="24" fill="#D9D9D9"/>
</mask>
<g mask="url(#mask0_1448_15903)">
<path d="M11.3744 19.5C11.1244 19.5 10.9161 19.4167 10.7494 19.25C10.5828 19.0833 10.4994 18.875 10.4994 18.625V12.825L4.89945 5.725C4.71611 5.45833 4.69111 5.18733 4.82444 4.912C4.95778 4.63733 5.18278 4.5 5.49944 4.5H18.4994C18.8161 4.5 19.0411 4.63733 19.1744 4.912C19.3078 5.18733 19.2828 5.45833 19.0994 5.725L13.4994 12.825V18.625C13.4994 18.875 13.4161 19.0833 13.2494 19.25C13.0828 19.4167 12.8744 19.5 12.6244 19.5H11.3744ZM11.9994 12.3L16.9494 6H7.04945L11.9994 12.3Z" fill="#1C1B1F"/>
</g>
</svg>
