<svg width="24" height="24" viewBox="0 0 24 24" fill="none" xmlns="http://www.w3.org/2000/svg">
<path fill-rule="evenodd" clip-rule="evenodd" d="M5.69767 13.6659C7.715 13.6659 9.35614 15.2988 9.35614 17.3055C9.35614 19.3123 7.715 20.9452 5.69767 20.9452C3.67916 20.9452 2.03684 19.3123 2.03684 17.3055C2.03684 15.2988 3.67916 13.6659 5.69767 13.6659ZM5.69767 15.4293C4.65138 15.4293 3.80024 16.271 3.80024 17.3055C3.80024 18.3412 4.65138 19.1818 5.69767 19.1818C6.74278 19.1818 7.59274 18.3412 7.59274 17.3055C7.59274 16.271 6.74278 15.4293 5.69767 15.4293ZM20.6189 16.4694C21.1056 16.4694 21.5006 16.8644 21.5006 17.3511C21.5006 17.8378 21.1056 18.2328 20.6189 18.2328H13.2114C12.7247 18.2328 12.3297 17.8378 12.3297 17.3511C12.3297 16.8644 12.7247 16.4694 13.2114 16.4694H20.6189ZM5.37449 3.42871C7.393 3.42871 9.03414 5.0628 9.03414 7.06955C9.03414 9.0763 7.393 10.708 5.37449 10.708C3.35716 10.708 1.71484 9.0763 1.71484 7.06955C1.71484 5.0628 3.35716 3.42871 5.37449 3.42871ZM5.37449 5.19211C4.32938 5.19211 3.47825 6.03384 3.47825 7.06955C3.47825 8.10408 4.32938 8.94464 5.37449 8.94464C6.42078 8.94464 7.27074 8.10408 7.27074 7.06955C7.27074 6.03384 6.42078 5.19211 5.37449 5.19211ZM20.7491 6.25063C21.2358 6.25063 21.6308 6.64563 21.6308 7.13233C21.6308 7.61903 21.2358 8.01403 20.7491 8.01403H13.3428C12.8561 8.01403 12.4611 7.61903 12.4611 7.13233C12.4611 6.64563 12.8561 6.25063 13.3428 6.25063H20.7491Z" fill="#717972"/>
</svg>
