<svg width="96" height="88" viewBox="0 0 96 88" fill="none" xmlns="http://www.w3.org/2000/svg">
<path d="M70.9311 75.2001L71.6406 73.8785L71.4893 73.7972L71.3235 73.7523L70.9311 75.2001ZM95.6393 71.9226C95.7801 71.1063 95.2324 70.3303 94.4161 70.1895C93.5997 70.0487 92.8238 70.5964 92.683 71.4128L95.6393 71.9226ZM8.83571 28.491C9.58325 28.5733 10.4762 28.6841 11.4907 28.8239L11.9002 25.852C10.8632 25.7091 9.94298 25.5948 9.16429 25.509L8.83571 28.491ZM16.8498 29.6599C18.5118 29.9464 20.3035 30.279 22.1771 30.6585L22.7726 27.7182C20.8689 27.3326 19.0485 26.9946 17.3594 26.7035L16.8498 29.6599ZM27.4723 31.8144C29.2036 32.2208 30.9625 32.6631 32.7171 33.1416L33.5064 30.2473C31.7139 29.7584 29.9202 29.3075 28.1579 28.8938L27.4723 31.8144ZM37.8945 34.6726C39.6343 35.2313 41.3341 35.8267 42.9613 36.4587L44.0475 33.6623C42.3567 33.0055 40.5998 32.3905 38.8118 31.8163L37.8945 34.6726ZM47.8495 38.591C49.5355 39.4241 51.0584 40.3002 52.3731 41.2168L54.0889 38.7559C52.6235 37.7342 50.9649 36.7841 49.1783 35.9014L47.8495 38.591ZM56.0452 44.5813C56.5493 45.2462 56.9231 45.9092 57.1705 46.5697L59.9799 45.5175C59.6154 44.5442 59.0875 43.6284 58.4359 42.769L56.0452 44.5813ZM57.1705 46.5697C57.418 47.2304 57.5958 47.8883 57.7171 48.5445L60.6671 47.9994C60.5155 47.1785 60.2918 46.3503 59.9799 45.5175L57.1705 46.5697ZM57.8412 52.7383C57.6984 54.2 57.4058 55.6501 57.0898 57.1327L60.0239 57.758C60.3402 56.2739 60.6661 54.6769 60.827 53.0299L57.8412 52.7383ZM56.2202 61.8197C56.0194 63.5277 56.0171 65.2917 56.5475 67.0196L59.4154 66.1392C59.0542 64.9628 59.0244 63.6608 59.1997 62.1699L56.2202 61.8197ZM59.5088 71.5074C60.6109 72.4935 62.0048 73.395 63.7331 74.222L65.028 71.5158C63.4934 70.7815 62.3535 70.0272 61.5094 69.2718L59.5088 71.5074ZM68.2489 75.9754C68.9714 76.2056 69.734 76.4297 70.5387 76.6478L71.3235 73.7523C70.5576 73.5447 69.8372 73.3328 69.1597 73.117L68.2489 75.9754ZM70.2216 76.5216C70.7839 76.8235 71.3979 77.1215 72.0765 77.3982L73.2094 74.6204C72.643 74.3894 72.1249 74.1385 71.6406 73.8785L70.2216 76.5216ZM76.0253 78.5191C77.2222 78.7261 78.5516 78.8497 80.0428 78.8605L80.0646 75.8606C78.7271 75.8509 77.5619 75.7404 76.5366 75.563L76.0253 78.5191ZM83.9951 78.6503C84.6204 78.5832 85.2688 78.4991 85.9416 78.3968L85.4906 75.4309C84.8594 75.5268 84.2546 75.6052 83.6747 75.6675L83.9951 78.6503ZM85.9416 78.3968C86.9513 78.2432 87.8677 78.0381 88.6978 77.7925L87.8468 74.9158C87.1566 75.1199 86.3745 75.2965 85.4906 75.4309L85.9416 78.3968ZM93.8785 74.943C94.8917 73.9436 95.4782 72.8569 95.6393 71.9226L92.683 71.4128C92.6535 71.5838 92.4573 72.131 91.7718 72.8072L93.8785 74.943Z" fill="#015AC3"/>
<path d="M36.5 37L41 30.5L15 26.5L9 27.5L36.5 37Z" fill="#EEF5EE"/>
<path fill-rule="evenodd" clip-rule="evenodd" d="M24.2883 22.0443C37.6439 20.6582 48.582 19.5408 48.5953 19.5613C48.6337 19.6207 40.4941 31.446 40.3954 31.474C40.3247 31.4941 24.7393 29.363 13.9922 27.8636C12.9316 27.7157 12.1238 27.6212 12.1969 27.6536C12.2701 27.6861 17.9742 29.5652 24.8729 31.8295L37.1 35.8427C37.305 35.91 37.4827 36.0418 37.6067 36.2184L40.7748 40.7326L42.5888 43.3172C43.1211 44.0758 42.4244 45.0879 41.5258 44.8613L38.5546 44.1122C35.486 43.3386 32.9371 42.6966 32.8902 42.6855C32.8435 42.6744 31.4958 44.5767 29.8956 46.9129L27.1169 50.9693C27.0461 51.0726 26.9025 51.0943 26.8043 51.0165C26.5961 50.8514 -0.00874845 24.6172 -0.000180553 24.5854C0.00292829 24.5739 10.9327 23.4304 24.2883 22.0443Z" fill="url(#paint0_linear_1938_6)"/>
<defs>
<linearGradient id="paint0_linear_1938_6" x1="35.6631" y1="-0.638942" x2="-13.7545" y2="47.6699" gradientUnits="userSpaceOnUse">
<stop stop-color="#00CDFF"/>
<stop offset="1" stop-color="#27D400"/>
</linearGradient>
</defs>
</svg>
