<svg width="32" height="41" viewBox="0 0 32 41" fill="none" xmlns="http://www.w3.org/2000/svg">
<path fill-rule="evenodd" clip-rule="evenodd" d="M30.9648 22.5503C30.8443 20.4594 30.4242 18.4488 29.437 16.5841C29.0443 15.8418 28.5879 15.1396 28.0071 14.4658C28.6359 17.9014 27.159 20.7121 25.6126 23.5189C25.5059 23.4347 25.5059 23.3387 25.501 23.2535C25.4128 21.7326 24.9251 20.3223 24.2934 18.9561C23.3954 17.0121 22.225 15.2189 21.1556 13.3709C19.997 11.3681 18.9188 9.33303 18.6455 6.98553C18.386 4.75946 18.7053 2.67247 20.1772 0.877316C20.1958 0.854791 20.1988 0.818555 20.2233 0.75C19.4026 1.03401 18.6406 1.36307 17.8875 1.7127C14.8006 3.14941 12.028 5.01899 9.89698 7.71416C7.62587 10.5866 6.53977 13.8576 6.7895 17.537C6.81595 17.9298 6.88646 18.3195 6.93739 18.7103C5.52027 17.1257 4.89348 15.2708 4.91993 13.1368C4.85431 13.1603 4.85039 13.2191 4.82101 13.2592C2.15228 16.8407 0.641144 20.7963 0.90459 25.3307C0.985876 26.7312 1.26597 28.0905 1.73312 29.4107C2.44707 31.4291 3.62914 33.1724 4.96889 34.8157C5.87283 35.9244 6.71703 37.0868 7.91478 37.9252C9.52385 39.0524 11.2602 39.878 13.1896 40.2795C13.3619 40.3716 13.547 40.4088 13.74 40.4157C13.6166 40.2844 13.4393 40.2737 13.2855 40.211C13.2855 40.2012 13.2846 40.1904 13.2826 40.1796C13.2101 40.0797 13.1024 40.0298 12.9966 39.9818C11.8077 39.4373 10.7725 38.6832 9.88817 37.7185C8.59641 36.3083 7.85798 34.6649 7.8286 32.7405C7.80803 31.4272 8.13611 30.1824 8.70316 29.0043C8.97542 28.4382 9.32798 27.9191 9.754 27.3599C9.93028 28.7016 10.5218 29.7398 11.3768 30.6398C11.5217 30.7926 11.7274 31.0482 11.9203 30.9297C12.1446 30.7906 11.9399 30.5252 11.8635 30.3332C11.1936 28.638 10.9606 26.8742 11.1388 25.0741C11.3689 22.7589 12.3277 20.7425 13.8614 19.0012C14.213 18.6026 14.5744 18.202 15.1061 17.8622C14.8917 19.4615 15.1992 20.8864 15.7878 22.2634C16.3862 23.6629 17.2255 24.9194 18.0785 26.17C18.8717 27.3335 19.6758 28.494 20.2683 29.776C21.0714 31.5134 21.5542 33.3056 20.995 35.23C20.9627 35.3407 20.9137 35.4788 21.0273 35.5561C21.1478 35.6384 21.2408 35.5179 21.3289 35.4484C21.421 35.3749 21.4993 35.2878 21.5718 35.1947C22.0409 34.5944 22.4043 33.9333 22.6589 33.2155C23.1779 31.7533 23.2759 30.2441 23.1466 28.7555C23.1652 28.8378 23.225 28.9524 23.2857 29.066C24.0006 30.3871 24.1994 31.813 24.0251 33.2752C23.7646 35.4552 22.7167 37.2367 21.0733 38.6724C20.1155 39.5088 19.0147 40.0856 17.7837 40.4157C17.6632 40.448 17.4693 40.4225 17.438 40.5988C17.435 40.5968 17.4311 40.5959 17.4282 40.5949C17.2147 40.6194 17.0002 40.637 16.8024 40.731C17.3538 40.7349 17.9081 40.7956 18.4555 40.6742C18.4565 40.6742 18.4565 40.6742 18.4575 40.6742C20.0705 40.6644 21.5983 40.3295 23.0438 39.5803C24.9467 38.5941 26.6125 37.3356 27.9092 35.6149C29.7269 33.2027 30.431 30.3891 30.7993 27.4667C31.0049 25.8351 31.0588 24.1947 30.9648 22.5503Z" fill="#F2705A"/>
<path fill-rule="evenodd" clip-rule="evenodd" d="M13.2665 40.2052C10.6115 39.0427 8.68514 37.2006 7.9281 34.3321C7.49229 32.6799 7.74007 31.0591 8.37567 29.4872C8.7155 28.6469 9.20028 27.8987 9.80748 27.1172C10.0141 28.6979 10.6781 29.9671 11.9327 30.9151C10.9749 28.5754 10.6722 26.1662 11.2647 23.712C11.8553 21.2665 13.152 19.2354 15.188 17.6851C15.1567 18.0484 15.1586 18.4029 15.143 18.7565C15.0842 20.0806 15.474 21.2989 16.0009 22.4858C16.66 23.9696 17.6129 25.276 18.507 26.6177C19.2572 27.744 20.0211 28.8673 20.5431 30.1248C21.2659 31.8631 21.6596 33.6406 21.0103 35.5239C21.6997 35.1488 22.4705 33.7396 22.823 32.294C23.1247 31.0561 23.1129 29.8016 23.0796 28.5402C24.2862 30.5146 24.5291 32.626 23.7818 34.7924C22.7251 37.8538 20.6195 39.837 17.4258 40.594C17.2398 40.7429 17.0057 40.6685 16.8 40.7302C15.7619 40.8017 14.7434 40.6753 13.7386 40.4168C13.5848 40.3384 13.3899 40.3512 13.2665 40.2052Z" fill="#FED05C"/>
</svg>
