<svg width="24" height="24" viewBox="0 0 24 24" fill="none" xmlns="http://www.w3.org/2000/svg">
<mask id="mask0_352_4366" style="mask-type:alpha" maskUnits="userSpaceOnUse" x="0" y="0" width="24" height="24">
<rect width="24" height="24" fill="#D9D9D9"/>
</mask>
<g mask="url(#mask0_352_4366)">
<path d="M12 20.3249L10.9 19.3249C9.23333 17.8249 7.85833 16.5332 6.775 15.4499C5.69167 14.3666 4.83333 13.4039 4.2 12.5619C3.56667 11.7206 3.125 10.9539 2.875 10.2619C2.625 9.57057 2.5 8.86657 2.5 8.1499C2.5 6.73324 2.97933 5.54557 3.938 4.5869C4.896 3.6289 6.08333 3.1499 7.5 3.1499C8.36667 3.1499 9.19167 3.3539 9.975 3.7619C10.7583 4.17057 11.4333 4.75824 12 5.5249C12.5667 4.75824 13.2417 4.17057 14.025 3.7619C14.8083 3.3539 15.6333 3.1499 16.5 3.1499C17.9167 3.1499 19.104 3.6289 20.062 4.5869C21.0207 5.54557 21.5 6.73324 21.5 8.1499C21.5 8.86657 21.375 9.57057 21.125 10.2619C20.875 10.9539 20.4333 11.7206 19.8 12.5619C19.1667 13.4039 18.3083 14.3666 17.225 15.4499C16.1417 16.5332 14.7667 17.8249 13.1 19.3249L12 20.3249ZM12 18.2999C13.6 16.8666 14.9167 15.6332 15.95 14.5999C16.9833 13.5666 17.8 12.6706 18.4 11.9119C19 11.1539 19.4167 10.4832 19.65 9.8999C19.8833 9.31657 20 8.73324 20 8.1499C20 7.1499 19.6667 6.31657 19 5.6499C18.3333 4.98324 17.5 4.6499 16.5 4.6499C15.7167 4.6499 14.9873 4.8749 14.312 5.3249C13.6373 5.7749 13.1083 6.3999 12.725 7.1999H11.275C10.875 6.38324 10.3417 5.7539 9.675 5.3119C9.00833 4.87057 8.28333 4.6499 7.5 4.6499C6.5 4.6499 5.66667 4.98324 5 5.6499C4.33333 6.31657 4 7.1499 4 8.1499C4 8.73324 4.11667 9.31657 4.35 9.8999C4.58333 10.4832 5 11.1539 5.6 11.9119C6.2 12.6706 7.01667 13.5622 8.05 14.5869C9.08333 15.6122 10.4 16.8499 12 18.2999Z" fill="#191C1A"/>
</g>
</svg>
