<svg width="20" height="18" viewBox="0 0 20 18" fill="none" xmlns="http://www.w3.org/2000/svg">
<path fill-rule="evenodd" clip-rule="evenodd" d="M5.80996 1.10615C3.20707 1.8083 1.68016 2.23803 1.61473 2.28689C1.55813 2.32912 1.4793 2.42439 1.43949 2.49857C1.36992 2.6283 1.36719 2.88643 1.36719 9.30392V15.9745H0.683594H0V16.619V17.2635H10H20V16.619V15.9745H15.332H10.6641V10.7401V5.50572H14.0037H17.3433L17.3533 9.03111L17.3633 12.5565L17.9986 12.5672L18.6339 12.578L18.6236 8.59549C18.6133 4.62381 18.613 4.61267 18.5316 4.50271C18.4866 4.44205 18.3917 4.35291 18.3207 4.30455L18.1916 4.21666H14.0433H9.89512L9.72293 4.30627C9.60063 4.36994 9.52535 4.4458 9.46289 4.56846L9.375 4.74103V10.3578V15.9745H6.01562H2.65625V9.62834V3.28217L2.80273 3.24369C3.10484 3.16428 9.24113 1.5165 9.30664 1.49717C9.37 1.47849 9.375 1.5299 9.375 2.20232V2.9276H10.0195H10.6641V1.72279C10.6641 0.540487 10.6624 0.514823 10.5741 0.347909C10.4721 0.155018 10.2211 -0.00345824 10.0232 5.73873e-05C9.95672 0.00122926 8.06078 0.498964 5.80996 1.10615ZM4.49219 4.88072V5.50572H6.01562H7.53906V4.88072V4.25572H6.01562H4.49219V4.88072ZM4.49219 7.79088V8.43541H6.01562H7.53906V7.79088V7.14635H6.01562H4.49219V7.79088ZM12.4609 7.79088V8.43541H13.9844H15.5078V7.79088V7.14635H13.9844H12.4609V7.79088ZM4.49219 10.7206V11.3651H6.01562H7.53906V10.7206V10.076H6.01562H4.49219V10.7206ZM12.4609 10.7206V11.3651H13.9844H15.5078V10.7206V10.076H13.9844H12.4609V10.7206ZM4.49219 13.6307V14.2557H6.01562H7.53906V13.6307V13.0057H6.01562H4.49219V13.6307ZM12.4609 13.6307V14.2557H13.9844H15.5078V13.6307V13.0057H13.9844H12.4609V13.6307ZM17.4023 13.7695C17.3916 13.7974 17.3964 14.0557 17.4023 14.3555L17.4609 14.8828L17.998 14.911H18.5423V14.2969L18.5547 13.7305L18.0066 13.7088C17.5293 13.7088 17.4172 13.7309 17.4023 13.7695Z" fill="#191C1A"/>
<path d="M17.3633 11.9922H18.6329V16.2109H17.3829C17.3752 14.5634 17.3709 13.6397 17.3633 11.9922Z" fill="#191C1A"/>
</svg>
