<svg width="84" height="84" viewBox="0 0 84 84" fill="none" xmlns="http://www.w3.org/2000/svg">
<rect width="84" height="84" rx="8" fill="#EEF5EE"/>
<mask id="mask0_4970_175" style="mask-type:alpha" maskUnits="userSpaceOnUse" x="20" y="20" width="44" height="44">
<rect x="20" y="20" width="44" height="44" fill="#D9D9D9"/>
</mask>
<g mask="url(#mask0_4970_175)">
<path d="M29.1667 58.5C28.1583 58.5 27.2948 58.1413 26.5762 57.4238C25.8587 56.7052 25.5 55.8417 25.5 54.8333V36.5C25.5 35.4917 25.8587 34.6282 26.5762 33.9095C27.2948 33.1921 28.1583 32.8333 29.1667 32.8333H32.8333V29.1667C32.8333 28.1583 33.1927 27.2948 33.9113 26.5762C34.6288 25.8587 35.4917 25.5 36.5 25.5H47.5C48.5083 25.5 49.3718 25.8587 50.0905 26.5762C50.8079 27.2948 51.1667 28.1583 51.1667 29.1667V40.1667H54.8333C55.8417 40.1667 56.7052 40.5254 57.4238 41.2428C58.1413 41.9615 58.5 42.825 58.5 43.8333V54.8333C58.5 55.8417 58.1413 56.7052 57.4238 57.4238C56.7052 58.1413 55.8417 58.5 54.8333 58.5H43.8333V51.1667H40.1667V58.5H29.1667ZM29.1667 54.8333H32.8333V51.1667H29.1667V54.8333ZM29.1667 47.5H32.8333V43.8333H29.1667V47.5ZM29.1667 40.1667H32.8333V36.5H29.1667V40.1667ZM36.5 47.5H40.1667V43.8333H36.5V47.5ZM36.5 40.1667H40.1667V36.5H36.5V40.1667ZM36.5 32.8333H40.1667V29.1667H36.5V32.8333ZM43.8333 47.5H47.5V43.8333H43.8333V47.5ZM43.8333 40.1667H47.5V36.5H43.8333V40.1667ZM43.8333 32.8333H47.5V29.1667H43.8333V32.8333ZM51.1667 54.8333H54.8333V51.1667H51.1667V54.8333ZM51.1667 47.5H54.8333V43.8333H51.1667V47.5Z" fill="#D2E0D7"/>
</g>
</svg>
