<svg width="32" height="32" viewBox="0 0 32 32" fill="none" xmlns="http://www.w3.org/2000/svg">
<mask id="mask0_1542_300" style="mask-type:alpha" maskUnits="userSpaceOnUse" x="0" y="0" width="32" height="32">
<rect width="32" height="32" fill="#D9D9D9"/>
</mask>
<g mask="url(#mask0_1542_300)">
<path d="M14.9997 22.334H16.9997V14.6673H14.9997V22.334ZM15.9997 12.4007C16.3108 12.4007 16.5663 12.2949 16.7663 12.0833C16.9663 11.8727 17.0663 11.6118 17.0663 11.3007C17.0663 11.0118 16.9663 10.7615 16.7663 10.55C16.5663 10.3393 16.3108 10.234 15.9997 10.234C15.6886 10.234 15.433 10.3393 15.233 10.55C15.033 10.7615 14.933 11.0118 14.933 11.3007C14.933 11.6118 15.033 11.8727 15.233 12.0833C15.433 12.2949 15.6886 12.4007 15.9997 12.4007ZM15.9997 28.6673C14.2441 28.6673 12.5943 28.334 11.0503 27.6673C9.50545 27.0007 8.16634 26.1007 7.03301 24.9673C5.89967 23.834 4.99967 22.4949 4.33301 20.95C3.66634 19.406 3.33301 17.7562 3.33301 16.0007C3.33301 14.2451 3.66634 12.5949 4.33301 11.05C4.99967 9.50598 5.89967 8.16732 7.03301 7.03398C8.16634 5.90065 9.50545 5.00065 11.0503 4.33398C12.5943 3.66732 14.2441 3.33398 15.9997 3.33398C17.7552 3.33398 19.4055 3.66732 20.9503 4.33398C22.4943 5.00065 23.833 5.90065 24.9663 7.03398C26.0997 8.16732 26.9997 9.50598 27.6663 11.05C28.333 12.5949 28.6663 14.2451 28.6663 16.0007C28.6663 17.7562 28.333 19.406 27.6663 20.95C26.9997 22.4949 26.0997 23.834 24.9663 24.9673C23.833 26.1007 22.4943 27.0007 20.9503 27.6673C19.4055 28.334 17.7552 28.6673 15.9997 28.6673ZM15.9997 26.6673C18.9775 26.6673 21.4997 25.634 23.5663 23.5673C25.633 21.5007 26.6663 18.9784 26.6663 16.0007C26.6663 13.0229 25.633 10.5007 23.5663 8.43398C21.4997 6.36732 18.9775 5.33398 15.9997 5.33398C13.0219 5.33398 10.4997 6.36732 8.43301 8.43398C6.36634 10.5007 5.33301 13.0229 5.33301 16.0007C5.33301 18.9784 6.36634 21.5007 8.43301 23.5673C10.4997 25.634 13.0219 26.6673 15.9997 26.6673Z" fill="#D17D00"/>
</g>
</svg>
