<svg width="20" height="20" viewBox="0 0 20 20" fill="none" xmlns="http://www.w3.org/2000/svg">
<mask id="mask0_1548_12295" style="mask-type:alpha" maskUnits="userSpaceOnUse" x="0" y="0" width="20" height="20">
<rect width="20" height="20" fill="#D9D9D9"/>
</mask>
<g mask="url(#mask0_1548_12295)">
<path d="M9.44737 13.5H10.5526V9.26316H9.44737V13.5ZM10 8.01053C10.1719 8.01053 10.3132 7.95207 10.4237 7.83516C10.5342 7.71874 10.5895 7.57456 10.5895 7.40263C10.5895 7.24298 10.5342 7.1047 10.4237 6.98779C10.3132 6.87137 10.1719 6.81316 10 6.81316C9.82807 6.81316 9.68684 6.87137 9.57632 6.98779C9.46579 7.1047 9.41053 7.24298 9.41053 7.40263C9.41053 7.57456 9.46579 7.71874 9.57632 7.83516C9.68684 7.95207 9.82807 8.01053 10 8.01053ZM10 17C9.02982 17 8.11811 16.8158 7.26484 16.4474C6.41109 16.0789 5.67105 15.5816 5.04474 14.9553C4.41842 14.3289 3.92105 13.5889 3.55263 12.7352C3.18421 11.8819 3 10.9702 3 10C3 9.02982 3.18421 8.11786 3.55263 7.2641C3.92105 6.41084 4.41842 5.67105 5.04474 5.04474C5.67105 4.41842 6.41109 3.92105 7.26484 3.55263C8.11811 3.18421 9.02982 3 10 3C10.9702 3 11.8821 3.18421 12.7359 3.55263C13.5892 3.92105 14.3289 4.41842 14.9553 5.04474C15.5816 5.67105 16.0789 6.41084 16.4474 7.2641C16.8158 8.11786 17 9.02982 17 10C17 10.9702 16.8158 11.8819 16.4474 12.7352C16.0789 13.5889 15.5816 14.3289 14.9553 14.9553C14.3289 15.5816 13.5892 16.0789 12.7359 16.4474C11.8821 16.8158 10.9702 17 10 17ZM10 15.8947C11.6456 15.8947 13.0395 15.3237 14.1816 14.1816C15.3237 13.0395 15.8947 11.6456 15.8947 10C15.8947 8.35439 15.3237 6.96053 14.1816 5.81842C13.0395 4.67632 11.6456 4.10526 10 4.10526C8.35439 4.10526 6.96053 4.67632 5.81842 5.81842C4.67632 6.96053 4.10526 8.35439 4.10526 10C4.10526 11.6456 4.67632 13.0395 5.81842 14.1816C6.96053 15.3237 8.35439 15.8947 10 15.8947Z" fill="#015AC3"/>
</g>
</svg>
