<svg width="20" height="20" viewBox="0 0 20 20" fill="none" xmlns="http://www.w3.org/2000/svg">
<mask id="mask0_1412_1403" style="mask-type:alpha" maskUnits="userSpaceOnUse" x="0" y="0" width="20" height="20">
<rect width="20" height="20" fill="#D9D9D9"/>
</mask>
<g mask="url(#mask0_1412_1403)">
<path d="M9.36979 13.9609H10.6198V9.16927H9.36979V13.9609ZM9.99479 7.7526C10.1892 7.7526 10.349 7.68649 10.474 7.55427C10.599 7.42261 10.6615 7.25955 10.6615 7.0651C10.6615 6.88455 10.599 6.72816 10.474 6.59594C10.349 6.46427 10.1892 6.39844 9.99479 6.39844C9.80035 6.39844 9.64063 6.46427 9.51563 6.59594C9.39063 6.72816 9.32813 6.88455 9.32813 7.0651C9.32813 7.25955 9.39063 7.42261 9.51563 7.55427C9.64063 7.68649 9.80035 7.7526 9.99479 7.7526ZM9.99479 17.9193C8.89757 17.9193 7.86646 17.7109 6.90146 17.2943C5.9359 16.8776 5.09896 16.3151 4.39063 15.6068C3.68229 14.8984 3.11979 14.0615 2.70313 13.0959C2.28646 12.1309 2.07812 11.0998 2.07812 10.0026C2.07812 8.90538 2.28646 7.87399 2.70313 6.90844C3.11979 5.94344 3.68229 5.10677 4.39063 4.39844C5.09896 3.6901 5.9359 3.1276 6.90146 2.71094C7.86646 2.29427 8.89757 2.08594 9.99479 2.08594C11.092 2.08594 12.1234 2.29427 13.089 2.71094C14.054 3.1276 14.8906 3.6901 15.599 4.39844C16.3073 5.10677 16.8698 5.94344 17.2865 6.90844C17.7031 7.87399 17.9115 8.90538 17.9115 10.0026C17.9115 11.0998 17.7031 12.1309 17.2865 13.0959C16.8698 14.0615 16.3073 14.8984 15.599 15.6068C14.8906 16.3151 14.054 16.8776 13.089 17.2943C12.1234 17.7109 11.092 17.9193 9.99479 17.9193ZM9.99479 16.6693C11.8559 16.6693 13.4323 16.0234 14.724 14.7318C16.0156 13.4401 16.6615 11.8637 16.6615 10.0026C16.6615 8.14149 16.0156 6.5651 14.724 5.27344C13.4323 3.98177 11.8559 3.33594 9.99479 3.33594C8.13368 3.33594 6.55729 3.98177 5.26563 5.27344C3.97396 6.5651 3.32813 8.14149 3.32813 10.0026C3.32813 11.8637 3.97396 13.4401 5.26563 14.7318C6.55729 16.0234 8.13368 16.6693 9.99479 16.6693Z" fill="#717972"/>
</g>
</svg>
