<svg width="28" height="28" viewBox="0 0 28 28" fill="none" xmlns="http://www.w3.org/2000/svg">
<path fill-rule="evenodd" clip-rule="evenodd" d="M14.291 2.33398C19.5982 2.33398 23.916 6.68448 23.916 12.0325C23.916 18.6067 16.384 25.084 14.291 25.084C12.198 25.084 4.66602 18.6067 4.66602 12.0325C4.66602 6.68448 8.98385 2.33398 14.291 2.33398ZM14.291 4.08398C9.94868 4.08398 6.41602 7.65048 6.41602 12.0325C6.41602 17.608 12.9773 23.04 14.291 23.3293C15.6047 23.0388 22.166 17.6068 22.166 12.0325C22.166 7.65048 18.6333 4.08398 14.291 4.08398ZM14.2922 8.16732C16.3828 8.16732 18.0838 9.86832 18.0838 11.9602C18.0838 14.0508 16.3828 15.7507 14.2922 15.7507C12.2015 15.7507 10.5005 14.0508 10.5005 11.9602C10.5005 9.86832 12.2015 8.16732 14.2922 8.16732ZM14.2922 9.91732C13.1663 9.91732 12.2505 10.8332 12.2505 11.9602C12.2505 13.086 13.1663 14.0007 14.2922 14.0007C15.418 14.0007 16.3338 13.086 16.3338 11.9602C16.3338 10.8332 15.418 9.91732 14.2922 9.91732Z" fill="#008952"/>
</svg>
