<svg width="20" height="20" viewBox="0 0 20 20" fill="none" xmlns="http://www.w3.org/2000/svg">
<mask id="mask0_227_6097" style="mask-type:alpha" maskUnits="userSpaceOnUse" x="0" y="0" width="20" height="20">
<rect width="20" height="20" fill="#D9D9D9"/>
</mask>
<g mask="url(#mask0_227_6097)">
<path d="M5.25 17.9165C4.83333 17.9165 4.47917 17.7707 4.1875 17.479C3.89583 17.1873 3.75 16.8332 3.75 16.4165V8.58317C3.75 8.1665 3.89583 7.81234 4.1875 7.52067C4.47917 7.229 4.83333 7.08317 5.25 7.08317H6.25V5.4165C6.25 4.37484 6.61444 3.48928 7.34333 2.75984C8.07278 2.03095 8.95833 1.6665 10 1.6665C11.0417 1.6665 11.9272 2.03095 12.6567 2.75984C13.3856 3.48928 13.75 4.37484 13.75 5.4165V7.08317H14.75C15.1667 7.08317 15.5208 7.229 15.8125 7.52067C16.1042 7.81234 16.25 8.1665 16.25 8.58317V16.4165C16.25 16.8332 16.1042 17.1873 15.8125 17.479C15.5208 17.7707 15.1667 17.9165 14.75 17.9165H5.25ZM5.25 16.6665H14.75C14.8194 16.6665 14.8786 16.6423 14.9275 16.594C14.9758 16.5451 15 16.4859 15 16.4165V8.58317C15 8.51373 14.9758 8.45456 14.9275 8.40567C14.8786 8.35734 14.8194 8.33317 14.75 8.33317H5.25C5.18056 8.33317 5.12167 8.35734 5.07333 8.40567C5.02444 8.45456 5 8.51373 5 8.58317V16.4165C5 16.4859 5.02444 16.5451 5.07333 16.594C5.12167 16.6423 5.18056 16.6665 5.25 16.6665ZM10 13.9582C10.4028 13.9582 10.7467 13.8159 11.0317 13.5315C11.3161 13.2465 11.4583 12.9026 11.4583 12.4998C11.4583 12.0971 11.3161 11.7532 11.0317 11.4682C10.7467 11.1837 10.4028 11.0415 10 11.0415C9.59722 11.0415 9.25333 11.1837 8.96833 11.4682C8.68389 11.7532 8.54167 12.0971 8.54167 12.4998C8.54167 12.9026 8.68389 13.2465 8.96833 13.5315C9.25333 13.8159 9.59722 13.9582 10 13.9582ZM7.5 7.08317H12.5V5.4165C12.5 4.72206 12.2569 4.13178 11.7708 3.64567C11.2847 3.15956 10.6944 2.9165 10 2.9165C9.30556 2.9165 8.71528 3.15956 8.22917 3.64567C7.74306 4.13178 7.5 4.72206 7.5 5.4165V7.08317Z" fill="#191C1A"/>
</g>
</svg>
