<svg width="20" height="20" viewBox="0 0 20 20" fill="none" xmlns="http://www.w3.org/2000/svg">
<mask id="mask0_227_6121" style="mask-type:alpha" maskUnits="userSpaceOnUse" x="0" y="0" width="20" height="20">
<rect width="20" height="20" fill="#D9D9D9"/>
</mask>
<g mask="url(#mask0_227_6121)">
<path d="M4.27083 17.0832C3.84028 17.0832 3.47917 16.9373 3.1875 16.6457C2.89583 16.354 2.75 15.9998 2.75 15.5832V12.604H4V15.5832C4 15.6387 4.02778 15.6943 4.08333 15.7498C4.13889 15.8054 4.20139 15.8332 4.27083 15.8332H15.7292C15.7986 15.8332 15.8611 15.8054 15.9167 15.7498C15.9722 15.6943 16 15.6387 16 15.5832V4.4165C16 4.36095 15.9722 4.30539 15.9167 4.24984C15.8611 4.19428 15.7986 4.1665 15.7292 4.1665H4.27083C4.20139 4.1665 4.13889 4.19428 4.08333 4.24984C4.02778 4.30539 4 4.36095 4 4.4165V7.39567H2.75V4.4165C2.75 3.99984 2.89583 3.64567 3.1875 3.354C3.47917 3.06234 3.84028 2.9165 4.27083 2.9165H15.7292C16.1597 2.9165 16.5208 3.06234 16.8125 3.354C17.1042 3.64567 17.25 3.99984 17.25 4.4165V15.5832C17.25 15.9998 17.1042 16.354 16.8125 16.6457C16.5208 16.9373 16.1597 17.0832 15.7292 17.0832H4.27083ZM8.75 13.7082L7.875 12.8123L10.0625 10.6248H2.75V9.37484H10.0625L7.875 7.18734L8.75 6.2915L12.4583 9.99984L8.75 13.7082Z" fill="#191C1A"/>
</g>
</svg>
