<svg width="24" height="24" viewBox="0 0 24 24" fill="none" xmlns="http://www.w3.org/2000/svg">
<path fill-rule="evenodd" clip-rule="evenodd" d="M8.4751 2.02285C8.14766 2.14564 2.34783 4.74608 2.25658 4.81105C1.97668 5.01034 1.99263 4.46354 2.00604 13.4154L2.01824 21.5558L2.11038 21.6792C2.25712 21.8757 2.41727 21.9726 2.63622 21.9973C2.82725 22.0188 3.02225 21.9393 5.77546 20.7164L8.71103 19.4126L11.9662 20.7169C14.7549 21.8342 15.2454 22.0178 15.3894 21.9981C15.5484 21.9764 21.5023 19.3576 21.726 19.211C21.7839 19.173 21.8726 19.0565 21.9232 18.9521C22.0151 18.7623 22.0151 18.7581 22.0036 10.6031L21.9921 2.44404L21.8999 2.32067C21.7533 2.12433 21.5931 2.02727 21.3749 2.00265C21.1848 1.98125 20.9867 2.06226 18.2451 3.28227L15.3181 4.58477L12.0752 3.28772C8.97784 2.0489 8.68248 1.9451 8.4751 2.02285ZM12.061 4.82754L14.5968 5.84254V13.037C14.5968 18.7745 14.5855 20.2269 14.541 20.2094C14.5103 20.1972 13.344 19.7306 11.9493 19.1723L9.41347 18.1573V10.9629C9.41347 5.22541 9.42478 3.77295 9.46933 3.79051C9.50007 3.80266 10.6663 4.2693 12.061 4.82754ZM7.97254 11.0021L7.96123 18.1814L5.72703 19.177C4.49821 19.7245 3.47767 20.1735 3.45917 20.1748C3.44067 20.1761 3.43062 16.9461 3.43683 12.997L3.44813 5.81676L5.68234 4.82182C6.91116 4.27462 7.9317 3.82599 7.9502 3.82483C7.9687 3.82366 7.97875 7.05344 7.97254 11.0021ZM20.5735 11.0042L20.5622 18.1857L18.328 19.1804C17.0991 19.7274 16.0786 20.1755 16.0601 20.1761C16.0416 20.1766 16.0316 16.9475 16.0378 13.0002L16.0491 5.82333L18.2833 4.82647C19.5121 4.27819 20.5326 3.82804 20.5511 3.82617C20.5696 3.82429 20.5797 7.05442 20.5735 11.0042Z" fill="#717972"/>
</svg>
