<svg width="56" height="61" viewBox="0 0 56 61" fill="none" xmlns="http://www.w3.org/2000/svg">
<g filter="url(#filter0_d_1502_62)">
<circle cx="28" cy="18" r="18" fill="#015AC3"/>
</g>
<path d="M28 29.25C26.4212 27.9033 24.9577 26.4269 23.625 24.8362C21.625 22.4475 19.25 18.89 19.25 15.5C19.2491 13.7687 19.7619 12.076 20.7234 10.6363C21.6848 9.1965 23.0518 8.07432 24.6513 7.41174C26.2508 6.74916 28.0109 6.57598 29.7089 6.91411C31.4069 7.25223 32.9663 8.08647 34.19 9.31124C35.0047 10.1223 35.6504 11.0869 36.0899 12.1492C36.5293 13.2115 36.7537 14.3504 36.75 15.5C36.75 18.89 34.375 22.4475 32.375 24.8362C31.0423 26.4269 29.5788 27.9033 28 29.25ZM28 11.75C27.0054 11.75 26.0516 12.1451 25.3484 12.8483C24.6451 13.5516 24.25 14.5054 24.25 15.5C24.25 16.4946 24.6451 17.4484 25.3484 18.1516C26.0516 18.8549 27.0054 19.25 28 19.25C28.9946 19.25 29.9484 18.8549 30.6517 18.1516C31.3549 17.4484 31.75 16.4946 31.75 15.5C31.75 14.5054 31.3549 13.5516 30.6517 12.8483C29.9484 12.1451 28.9946 11.75 28 11.75Z" fill="white"/>
<defs>
<filter id="filter0_d_1502_62" x="0" y="0" width="56" height="61" filterUnits="userSpaceOnUse" color-interpolation-filters="sRGB">
<feFlood flood-opacity="0" result="BackgroundImageFix"/>
<feColorMatrix in="SourceAlpha" type="matrix" values="0 0 0 0 0 0 0 0 0 0 0 0 0 0 0 0 0 0 127 0" result="hardAlpha"/>
<feOffset dy="15"/>
<feGaussianBlur stdDeviation="5"/>
<feComposite in2="hardAlpha" operator="out"/>
<feColorMatrix type="matrix" values="0 0 0 0 0 0 0 0 0 0 0 0 0 0 0 0 0 0 0.14 0"/>
<feBlend mode="normal" in2="BackgroundImageFix" result="effect1_dropShadow_1502_62"/>
<feBlend mode="normal" in="SourceGraphic" in2="effect1_dropShadow_1502_62" result="shape"/>
</filter>
</defs>
</svg>
