<svg width="16" height="16" viewBox="0 0 16 16" fill="none" xmlns="http://www.w3.org/2000/svg">
<path fill-rule="evenodd" clip-rule="evenodd" d="M7.99935 1.33325C8.35297 1.33325 8.69211 1.47373 8.94216 1.72378C9.19221 1.97382 9.33268 2.31296 9.33268 2.66659C9.33268 3.02021 9.19221 3.35935 8.94216 3.60939C8.69211 3.85944 8.35297 3.99992 7.99935 3.99992C7.64573 3.99992 7.30659 3.85944 7.05654 3.60939C6.80649 3.35935 6.66602 3.02021 6.66602 2.66659C6.66602 2.31296 6.80649 1.97382 7.05654 1.72378C7.30659 1.47373 7.64573 1.33325 7.99935 1.33325ZM7.99935 6.66658C8.35297 6.66658 8.69211 6.80706 8.94216 7.05711C9.19221 7.30716 9.33268 7.6463 9.33268 7.99992C9.33268 8.35354 9.19221 8.69268 8.94216 8.94273C8.69211 9.19278 8.35297 9.33325 7.99935 9.33325C7.64573 9.33325 7.30659 9.19278 7.05654 8.94273C6.80649 8.69268 6.66602 8.35354 6.66602 7.99992C6.66602 7.6463 6.80649 7.30716 7.05654 7.05711C7.30659 6.80706 7.64573 6.66658 7.99935 6.66658ZM7.99935 11.9999C8.35297 11.9999 8.69211 12.1404 8.94216 12.3904C9.19221 12.6405 9.33268 12.9796 9.33268 13.3333C9.33268 13.6869 9.19221 14.026 8.94216 14.2761C8.69211 14.5261 8.35297 14.6666 7.99935 14.6666C7.64573 14.6666 7.30659 14.5261 7.05654 14.2761C6.80649 14.026 6.66602 13.6869 6.66602 13.3333C6.66602 12.9796 6.80649 12.6405 7.05654 12.3904C7.30659 12.1404 7.64573 11.9999 7.99935 11.9999Z" fill="#717972"/>
</svg>
