<svg width="24" height="24" viewBox="0 0 24 24" fill="none" xmlns="http://www.w3.org/2000/svg">
<mask id="mask0_1554_67" style="mask-type:alpha" maskUnits="userSpaceOnUse" x="0" y="0" width="24" height="24">
<rect width="24" height="24" fill="#D9D9D9"/>
</mask>
<g mask="url(#mask0_1554_67)">
<path d="M10.95 17.975L7.75 14.775L8.825 13.7L10.95 15.825L15.175 11.6L16.25 12.675L10.95 17.975ZM5.3 21.5C4.8 21.5 4.375 21.325 4.025 20.975C3.675 20.625 3.5 20.2 3.5 19.7V6.3C3.5 5.8 3.675 5.375 4.025 5.025C4.375 4.675 4.8 4.5 5.3 4.5H6.7V2.375H8.225V4.5H15.8V2.375H17.3V4.5H18.7C19.2 4.5 19.625 4.675 19.975 5.025C20.325 5.375 20.5 5.8 20.5 6.3V19.7C20.5 20.2 20.325 20.625 19.975 20.975C19.625 21.325 19.2 21.5 18.7 21.5H5.3ZM5.3 20H18.7C18.7667 20 18.8333 19.9667 18.9 19.9C18.9667 19.8333 19 19.7667 19 19.7V10.3H5V19.7C5 19.7667 5.03333 19.8333 5.1 19.9C5.16667 19.9667 5.23333 20 5.3 20ZM5 8.8H19V6.3C19 6.23333 18.9667 6.16667 18.9 6.1C18.8333 6.03333 18.7667 6 18.7 6H5.3C5.23333 6 5.16667 6.03333 5.1 6.1C5.03333 6.16667 5 6.23333 5 6.3V8.8Z" fill="#1C1B1F"/>
</g>
</svg>
