<svg width="24" height="24" viewBox="0 0 24 24" fill="none" xmlns="http://www.w3.org/2000/svg">
<mask id="mask0_1548_12460" style="mask-type:alpha" maskUnits="userSpaceOnUse" x="0" y="0" width="24" height="24">
<rect width="24" height="24" fill="#D9D9D9"/>
</mask>
<g mask="url(#mask0_1548_12460)">
<path d="M14.2751 21.3754C13.5584 21.3754 12.8711 21.3087 12.2131 21.1754C11.5544 21.0421 11.0001 20.8587 10.5501 20.6254C10.4668 20.6587 10.3834 20.6877 10.3001 20.7124C10.2168 20.7377 10.1251 20.7504 10.0251 20.7504H6.1001C4.78343 20.7504 3.66243 20.2881 2.7371 19.3634C1.81243 18.4381 1.3501 17.3171 1.3501 16.0004C1.3501 14.9171 1.66276 13.9711 2.2881 13.1624C2.91276 12.3544 3.74176 11.8254 4.7751 11.5754C4.8251 9.62539 5.43343 7.84206 6.6001 6.22539C7.76676 4.60872 9.3501 3.48372 11.3501 2.85039C11.4834 2.80039 11.6251 2.75439 11.7751 2.71239C11.9251 2.67106 12.0501 2.65039 12.1501 2.65039C12.3834 2.65039 12.5751 2.73772 12.7251 2.91239C12.8751 3.08772 12.9501 3.28372 12.9501 3.50039C12.9501 3.55039 12.9461 3.60039 12.9381 3.65039C12.9294 3.70039 12.9168 3.75039 12.9001 3.80039C12.7334 4.30039 12.6128 4.80872 12.5381 5.32539C12.4628 5.84206 12.4251 6.40039 12.4251 7.00039C12.4251 9.35039 13.1834 11.4794 14.7001 13.3874C16.2168 15.2961 18.1668 16.5171 20.5501 17.0504C20.7834 17.1004 20.9628 17.2047 21.0881 17.3634C21.2128 17.5214 21.2751 17.7004 21.2751 17.9004C21.2751 18.0171 21.2501 18.1171 21.2001 18.2004C21.1501 18.2837 21.0834 18.3754 21.0001 18.4754C20.1834 19.3421 19.1834 20.0421 18.0001 20.5754C16.8168 21.1087 15.5751 21.3754 14.2751 21.3754ZM6.1001 19.2504H10.4001C10.8834 19.2504 11.2958 19.0797 11.6371 18.7384C11.9791 18.3964 12.1501 17.9837 12.1501 17.5004C12.1501 17.0171 11.9791 16.6087 11.6371 16.2754C11.2958 15.9421 10.8834 15.7754 10.4001 15.7754H9.1751C9.05843 14.8921 8.71676 14.1837 8.1501 13.6504C7.58343 13.1171 6.86676 12.8504 6.0001 12.8504C5.1001 12.8504 4.3501 13.1504 3.7501 13.7504C3.1501 14.3504 2.8501 15.1004 2.8501 16.0004C2.8501 16.9004 3.16676 17.6671 3.8001 18.3004C4.43343 18.9337 5.2001 19.2504 6.1001 19.2504ZM12.7751 19.7254C12.9918 19.7754 13.2251 19.8127 13.4751 19.8374C13.7251 19.8627 13.9918 19.8754 14.2751 19.8754C15.1251 19.8754 15.9628 19.7377 16.7881 19.4624C17.6128 19.1877 18.3834 18.7754 19.1001 18.2254C16.6668 17.4254 14.7001 15.9877 13.2001 13.9124C11.7001 11.8377 10.9418 9.53372 10.9251 7.00039C10.9251 6.58372 10.9418 6.16272 10.9751 5.73739C11.0084 5.31272 11.0668 4.90039 11.1501 4.50039C9.7001 5.08372 8.5501 5.99606 7.7001 7.23739C6.8501 8.47939 6.3751 9.85039 6.2751 11.3504C7.2251 11.4171 8.05443 11.7087 8.7631 12.2254C9.4711 12.7421 9.99176 13.4254 10.3251 14.2754C11.2751 14.2921 12.0668 14.6044 12.7001 15.2124C13.3334 15.8211 13.6501 16.5837 13.6501 17.5004C13.6501 17.9504 13.5751 18.3544 13.4251 18.7124C13.2751 19.0711 13.0584 19.4087 12.7751 19.7254Z" fill="#002110"/>
</g>
</svg>
