<svg width="40" height="40" viewBox="0 0 40 40" fill="none" xmlns="http://www.w3.org/2000/svg">
<circle cx="20" cy="20" r="20" fill="#DFEDE4"/>
<mask id="mask0_1974_9" style="mask-type:alpha" maskUnits="userSpaceOnUse" x="8" y="8" width="24" height="24">
<rect x="8" y="8" width="24" height="24" fill="#D9D9D9"/>
</mask>
<g mask="url(#mask0_1974_9)">
<path d="M12.001 27.002V25.002H14.001V18.002C14.001 16.6186 14.4176 15.3893 15.251 14.314C16.0843 13.2393 17.1676 12.5353 18.501 12.202V11.502C18.501 11.0853 18.647 10.7313 18.939 10.44C19.2303 10.148 19.5843 10.002 20.001 10.002C20.4176 10.002 20.7716 10.148 21.063 10.44C21.355 10.7313 21.501 11.0853 21.501 11.502V12.202C22.8343 12.5353 23.9176 13.2393 24.751 14.314C25.5843 15.3893 26.001 16.6186 26.001 18.002V25.002H28.001V27.002H12.001ZM20.001 30.002C19.451 30.002 18.9803 29.8063 18.589 29.415C18.197 29.023 18.001 28.552 18.001 28.002H22.001C22.001 28.552 21.8053 29.023 21.414 29.415C21.022 29.8063 20.551 30.002 20.001 30.002ZM16.001 25.002H24.001V18.002C24.001 16.902 23.6093 15.9603 22.826 15.177C22.0426 14.3936 21.101 14.002 20.001 14.002C18.901 14.002 17.9593 14.3936 17.176 15.177C16.3926 15.9603 16.001 16.902 16.001 18.002V25.002Z" fill="#008952"/>
</g>
</svg>
