<svg width="40" height="40" viewBox="0 0 40 40" fill="none" xmlns="http://www.w3.org/2000/svg">
<circle cx="20" cy="20" r="20" fill="#EEF5EE"/>
<mask id="mask0_221_689" style="mask-type:alpha" maskUnits="userSpaceOnUse" x="10" y="10" width="20" height="20">
<rect x="10" y="10" width="20" height="20" fill="#D9D9D9"/>
</mask>
<g mask="url(#mask0_221_689)">
<path d="M13.334 25.8327V24.166H15.0007V18.3327C15.0007 17.1799 15.3479 16.1555 16.0423 15.2593C16.7368 14.3638 17.6395 13.7771 18.7507 13.4993V12.916C18.7507 12.5688 18.8723 12.2738 19.1157 12.031C19.3584 11.7877 19.6534 11.666 20.0007 11.666C20.3479 11.666 20.6429 11.7877 20.8857 12.031C21.129 12.2738 21.2507 12.5688 21.2507 12.916V13.4993C22.3618 13.7771 23.2645 14.3638 23.959 15.2593C24.6534 16.1555 25.0007 17.1799 25.0007 18.3327V24.166H26.6673V25.8327H13.334ZM20.0007 28.3327C19.5423 28.3327 19.1501 28.1696 18.824 27.8435C18.4973 27.5168 18.334 27.1243 18.334 26.666H21.6673C21.6673 27.1243 21.5043 27.5168 21.1782 27.8435C20.8515 28.1696 20.459 28.3327 20.0007 28.3327ZM16.6673 24.166H23.334V18.3327C23.334 17.416 23.0076 16.6313 22.3548 15.9785C21.702 15.3257 20.9173 14.9993 20.0007 14.9993C19.084 14.9993 18.2993 15.3257 17.6465 15.9785C16.9937 16.6313 16.6673 17.416 16.6673 18.3327V24.166Z" fill="#008952"/>
</g>
</svg>
