<svg width="24" height="24" viewBox="0 0 24 24" fill="none" xmlns="http://www.w3.org/2000/svg">
<mask id="mask0_773_150" style="mask-type:alpha" maskUnits="userSpaceOnUse" x="0" y="0" width="24" height="24">
<rect width="24" height="24" fill="#D9D9D9"/>
</mask>
<g mask="url(#mask0_773_150)">
<path d="M4.25 18.8758V17.3758H6.25V10.1258C6.25 8.75911 6.671 7.55478 7.513 6.51278C8.35433 5.47145 9.43333 4.80078 10.75 4.50078V3.80078C10.75 3.45078 10.871 3.15478 11.113 2.91278C11.3543 2.67145 11.65 2.55078 12 2.55078C12.35 2.55078 12.6457 2.67145 12.887 2.91278C13.129 3.15478 13.25 3.45078 13.25 3.80078V4.50078C14.5667 4.80078 15.646 5.47145 16.488 6.51278C17.3293 7.55478 17.75 8.75911 17.75 10.1258V17.3758H19.75V18.8758H4.25ZM12 21.8008C11.5 21.8008 11.075 21.6258 10.725 21.2758C10.375 20.9258 10.2 20.5008 10.2 20.0008H13.8C13.8 20.5008 13.625 20.9258 13.275 21.2758C12.925 21.6258 12.5 21.8008 12 21.8008ZM7.75 17.3758H16.25V10.1258C16.25 8.94245 15.8373 7.93812 15.012 7.11278C14.1873 6.28811 13.1833 5.87578 12 5.87578C10.8167 5.87578 9.81267 6.28811 8.988 7.11278C8.16267 7.93812 7.75 8.94245 7.75 10.1258V17.3758Z" fill="#191C1A"/>
</g>
</svg>
