<svg width="40" height="40" viewBox="0 0 40 40" fill="none" xmlns="http://www.w3.org/2000/svg">
<rect width="40" height="40" rx="8" fill="#EEF5EE"/>
<path fill-rule="evenodd" clip-rule="evenodd" d="M31.5283 32.0437C23.8731 32.0437 16.2178 32.0437 8.56244 32.0437C8.33088 31.9315 8.15894 31.7597 8.04688 31.5281C8.04688 31.4031 8.04688 31.2782 8.04688 31.1532C8.23388 30.7474 8.55525 30.6276 8.991 30.6309C10.9667 30.6462 12.9426 30.6381 14.9184 30.6372C15.1992 30.637 15.5583 30.734 15.7391 30.5976C15.9296 30.4539 15.9554 30.0862 16.0431 29.8131C16.283 29.0656 16.5177 28.3163 16.7528 27.5728C16.2964 27.337 15.8572 27.1101 15.4186 26.8835C14.7956 27.9636 14.0697 28.3848 13.0874 28.2411C12.2537 28.1191 11.5386 27.4783 11.3716 26.6268C11.1424 25.4579 11.6553 24.6542 12.71 24.1483C12.1832 23.3082 11.8134 22.4123 11.5872 21.4482C10.5156 21.837 9.61263 21.6344 8.93625 20.7149C8.42744 20.0231 8.43994 19.0741 8.91925 18.3598C9.47919 17.5252 10.2607 17.3002 11.5623 17.5939C11.7209 17.13 11.8564 16.6578 12.0438 16.2071C12.2303 15.7586 12.4691 15.3319 12.6848 14.8958C11.6366 14.322 11.2169 13.6142 11.3293 12.6137C11.4194 11.8124 12.0528 11.0568 12.8609 10.8734C14.0627 10.6007 14.9003 11.1036 15.428 12.1946C16.2699 11.6636 17.1678 11.3001 18.1343 11.0679C18.1032 10.9811 18.0794 10.9166 18.0569 10.8517C17.7201 9.88 18.1212 8.80687 19.0236 8.32025C19.2529 8.19656 19.5165 8.13631 19.7643 8.04688C19.9518 8.04688 20.1392 8.04688 20.3267 8.04688C20.3628 8.06031 20.3978 8.07881 20.435 8.08656C21.6134 8.33088 22.3327 9.40031 22.1064 10.5804C22.075 10.7441 22.0169 10.9028 21.9677 11.0759C22.9419 11.2951 23.8307 11.6784 24.6709 12.1939C25.1384 11.1811 25.901 10.6929 27.0004 10.8228C27.8404 10.922 28.5522 11.5804 28.7178 12.4295C28.9458 13.5983 28.4387 14.4042 27.3794 14.9107C27.9091 15.7503 28.2751 16.6477 28.5016 17.6C29.8291 17.2999 30.6102 17.5249 31.1712 18.3596C31.6507 19.0731 31.6459 20.0102 31.1591 20.7175C30.5899 21.5447 29.8106 21.7649 28.5009 21.4584C28.2781 22.4156 27.9019 23.3134 27.3831 24.1484C28.4686 24.7589 28.8888 25.4773 28.7594 26.4689C28.6553 27.2664 28.0303 28.0039 27.23 28.1857C26.0284 28.4585 25.1909 27.9558 24.6719 26.8834C24.2249 27.115 23.7899 27.3405 23.3423 27.5724C23.3568 27.6258 23.3706 27.6849 23.3889 27.7425C23.6718 28.634 23.9599 29.5239 24.2349 30.4179C24.2871 30.5874 24.3597 30.6431 24.5411 30.6426C26.7275 30.6353 28.914 30.6456 31.1003 30.6313C31.5356 30.6284 31.8576 30.7469 32.0441 31.1534C32.0441 31.2784 32.0441 31.4033 32.0441 31.5283C31.9319 31.7598 31.7596 31.9313 31.5283 32.0437ZM18.05 23.489C18.2722 22.7894 18.4838 22.106 18.7089 21.4271C18.7599 21.2732 18.7418 21.1837 18.6167 21.0691C17.9657 20.4733 17.7645 19.5665 18.0848 18.754C18.3942 17.9687 19.1694 17.4323 20.0104 17.4214C20.879 17.4103 21.6722 17.9333 21.9982 18.7323C22.3297 19.5446 22.1263 20.4634 21.4766 21.0728C21.3906 21.1534 21.307 21.2088 21.3581 21.3613C21.5836 22.0339 21.7934 22.7116 22.0102 23.3871C22.0209 23.4203 22.0446 23.4493 22.0617 23.4792C23.6196 22.7437 24.8432 20.8043 24.4073 18.6288C24.0028 16.6097 22.1726 15.0927 20.0919 15.0776C17.9787 15.0622 16.1231 16.5425 15.6923 18.5832C15.2263 20.7907 16.4609 22.7358 18.05 23.489ZM22.8306 30.6296C22.5486 29.7413 22.2719 28.8695 21.9896 27.9804C20.6847 28.2733 19.3997 28.2708 18.1002 27.9812C17.8174 28.8734 17.5416 29.7436 17.2607 30.6296C19.1326 30.6296 20.9659 30.6296 22.8306 30.6296ZM14.4126 24.1102C14.7484 23.7756 15.0726 23.4528 15.4133 23.1133C14.7678 22.2764 14.3706 21.3092 14.2254 20.2473C13.7464 20.2473 13.2897 20.2473 12.8166 20.2473C12.9728 21.7125 13.509 22.9976 14.4126 24.1102ZM14.4099 14.9511C13.5089 16.0646 12.9679 17.3497 12.8185 18.8148C13.3077 18.8148 13.765 18.8148 14.2276 18.8148C14.3691 17.7395 14.7729 16.7816 15.4107 15.9474C15.0712 15.6094 14.7469 15.2865 14.4099 14.9511ZM27.2744 18.8188C27.1186 17.3496 26.583 16.0649 25.6941 14.9682C25.3579 15.3044 25.0308 15.6314 24.7265 15.9357C24.9639 16.3759 25.2491 16.8178 25.4469 17.2958C25.6471 17.7794 25.7607 18.2986 25.9172 18.8189C26.3343 18.8188 26.7847 18.8188 27.2744 18.8188ZM25.9181 20.2449C25.7573 20.7758 25.6447 21.2894 25.4452 21.7666C25.243 22.2501 24.9549 22.6978 24.7116 23.1478C25.0207 23.4569 25.3435 23.7798 25.6768 24.1131C26.5826 22.9914 27.1197 21.7081 27.2734 20.2449C26.7949 20.2449 26.3378 20.2449 25.9181 20.2449ZM20.756 13.7117C21.84 13.8557 22.7977 14.2601 23.6336 14.8977C23.9731 14.5576 24.2959 14.2343 24.6303 13.8992C23.5066 12.9916 22.2228 12.4501 20.756 12.3035C20.756 12.7898 20.756 13.2403 20.756 13.7117ZM16.4273 14.8613C16.8858 14.6142 17.3339 14.3258 17.8183 14.1247C18.3009 13.9244 18.8198 13.8117 19.326 13.6596C19.326 13.2284 19.326 12.7724 19.326 12.2998C17.8611 12.4608 16.5749 12.9926 15.4661 13.8964C15.8016 14.2332 16.1246 14.5574 16.4273 14.8613ZM21.5613 26.6311C21.4149 26.1707 21.2767 25.7359 21.1347 25.2887C20.4286 25.4107 19.7388 25.4257 19.0483 25.3038C19.0129 25.2975 18.9416 25.3426 18.9298 25.378C18.7935 25.7896 18.6655 26.2041 18.5314 26.6304C19.5474 26.8463 20.5353 26.8464 21.5613 26.6311ZM23.6454 24.178C23.2669 24.4091 22.8742 24.6489 22.4832 24.8876C22.6251 25.331 22.7617 25.7582 22.9207 26.2552C23.5257 25.8851 24.0965 25.5359 24.6566 25.1934C24.2913 24.8265 23.9687 24.5027 23.6454 24.178ZM17.6067 24.885C17.2012 24.6381 16.8122 24.4013 16.4518 24.1819C16.1213 24.5107 15.7982 24.832 15.4669 25.1616C15.9766 25.5813 16.5447 25.9322 17.1886 26.2014C17.3342 25.7428 17.4722 25.3086 17.6067 24.885ZM19.3806 23.9461C19.8409 23.9461 20.2636 23.9461 20.7099 23.9461C20.4888 23.2513 20.2803 22.5959 20.0717 21.9406C20.0543 21.9403 20.0368 21.94 20.0194 21.9398C19.811 22.5946 19.6024 23.2494 19.3806 23.9461Z" fill="#008952"/>
</svg>
