<svg width="22" height="24" viewBox="0 0 22 24" fill="none" xmlns="http://www.w3.org/2000/svg">
<path fill-rule="evenodd" clip-rule="evenodd" d="M11.2237 0.95724C11.8275 1.05448 12.287 1.3923 12.7011 1.81996C13.0282 2.15778 13.3811 2.47045 13.7124 2.80435C13.9322 3.02583 14.1815 3.09641 14.4863 3.04762C15.0535 2.95688 15.6219 2.87179 16.1919 2.80161C17.4362 2.64841 18.3415 3.32634 18.5632 4.56895C18.6615 5.11962 18.7575 5.67074 18.8464 6.22304C18.8952 6.52641 19.0446 6.73921 19.3227 6.88025C19.8415 7.14329 20.3543 7.41826 20.8656 7.69581C21.9295 8.27337 22.284 9.36564 21.7627 10.4602C21.5158 10.9786 21.2662 11.4959 21.0044 12.0069C20.8552 12.2982 20.858 12.5686 21.0077 12.8589C21.2606 13.3492 21.4969 13.8481 21.7384 14.3443C22.2972 15.4921 21.9429 16.588 20.8196 17.1874C20.3261 17.4507 19.8363 17.7215 19.3363 17.9719C19.0406 18.1201 18.8922 18.345 18.8416 18.6656C18.7508 19.2401 18.6552 19.8144 18.5392 20.3843C18.2926 21.5956 17.3392 22.2426 16.1182 22.0505C15.5507 21.9613 14.9812 21.8858 14.4126 21.8038C14.1501 21.7659 13.9302 21.8434 13.74 22.0299C13.3136 22.4482 12.8842 22.8637 12.452 23.2762C11.5779 24.1101 10.4202 24.1096 9.5459 23.2751C9.12994 22.8781 8.71236 22.4825 8.30738 22.0744C8.07604 21.8414 7.82079 21.7616 7.49647 21.8158C6.93006 21.9105 6.36096 21.993 5.79051 22.0592C4.53468 22.2051 3.63695 21.5118 3.42914 20.2548C3.33918 19.7102 3.23931 19.1673 3.14997 18.6227C3.10157 18.328 2.95313 18.1207 2.68359 17.9832C2.17208 17.7224 1.66672 17.4493 1.16064 17.1779C0.0633263 16.5894 -0.292305 15.4895 0.250917 14.3651C0.490992 13.8682 0.725185 13.3682 0.981056 12.8795C1.14092 12.5742 1.14512 12.2949 0.985033 11.9879C0.723112 11.4855 0.48046 10.973 0.2368 10.4613C-0.283848 9.36799 0.0711678 8.2727 1.13341 7.69587C1.63804 7.42179 2.14278 7.14699 2.65665 6.89112C2.96154 6.73932 3.10908 6.50815 3.15977 6.17907C3.24721 5.61165 3.34383 5.04501 3.45804 4.48236C3.70624 3.25974 4.66351 2.61329 5.89621 2.81191C6.4559 2.9021 7.01839 2.97497 7.57948 3.0563C7.84129 3.09428 8.06333 3.02168 8.2536 2.83465C8.59977 2.49437 8.96028 2.16826 9.29793 1.81991C9.71232 1.39247 10.1717 1.05442 10.7754 0.957184C10.925 0.95724 11.0743 0.95724 11.2237 0.95724ZM16.4957 20.7637C16.891 20.772 17.1605 20.5603 17.2295 20.1978C17.3258 19.6923 17.4372 19.1876 17.4938 18.6773C17.5978 17.7401 18.0547 17.0846 18.9167 16.692C19.3639 16.4884 19.7899 16.238 20.2239 16.006C20.6825 15.7608 20.7922 15.4292 20.5677 14.9653C20.3143 14.4418 20.0614 13.918 19.8007 13.3982C19.4767 12.752 19.476 12.111 19.7992 11.4645C20.0559 10.9511 20.3048 10.4336 20.5558 9.91726C20.7953 9.42473 20.6908 9.1031 20.2069 8.84516C19.7002 8.575 19.1944 8.30311 18.6848 8.03856C18.0261 7.69665 17.6559 7.15825 17.5411 6.42783C17.4509 5.85335 17.3448 5.28117 17.2375 4.70949C17.1524 4.25623 16.8502 4.04181 16.4027 4.10555C15.8341 4.18655 15.2648 4.26379 14.6975 4.35403C13.9421 4.47418 13.3001 4.27163 12.7592 3.72561C12.3599 3.32253 11.9463 2.93363 11.5372 2.54036C11.1749 2.19212 10.8218 2.19391 10.457 2.54523C10.0374 2.9492 9.6181 3.3534 9.20164 3.76056C8.71919 4.2322 8.15071 4.45833 7.47339 4.36831C6.85965 4.28676 6.24646 4.20111 5.63401 4.11065C5.15487 4.0399 4.85043 4.24183 4.76047 4.71644C4.66738 5.20729 4.56079 5.69741 4.50371 6.19285C4.39711 7.11864 3.94839 7.77249 3.09278 8.16156C2.64556 8.36489 2.22025 8.61668 1.78597 8.84829C1.31372 9.10024 1.20556 9.42664 1.43678 9.90359C1.68722 10.4202 1.93407 10.9387 2.19308 11.451C2.52334 12.1043 2.52457 12.7507 2.19527 13.4045C1.94035 13.9105 1.69613 14.4219 1.44838 14.9316C1.20186 15.4387 1.30476 15.7547 1.80177 16.0192C2.30209 16.2855 2.80022 16.556 3.304 16.8155C3.97191 17.1597 4.34558 17.7026 4.45962 18.4423C4.54717 19.0096 4.65282 19.5744 4.75963 20.1385C4.85026 20.6171 5.15274 20.8211 5.62936 20.7496C6.1974 20.6644 6.76661 20.5873 7.33459 20.5021C8.08265 20.39 8.71482 20.6095 9.24841 21.143C9.63911 21.5337 10.0411 21.913 10.4387 22.2967C10.8322 22.6765 11.1691 22.6745 11.567 22.2905C11.9538 21.9172 12.3499 21.5527 12.7242 21.1672C13.2975 20.5768 13.976 20.3746 14.7827 20.5194C15.3623 20.6234 15.9491 20.6871 16.4957 20.7637Z" fill="#191C1A"/>
<path fill-rule="evenodd" clip-rule="evenodd" d="M6.6308 17.4538C6.37067 17.4469 6.17148 17.3318 6.05133 17.1008C5.92676 16.8614 5.94776 16.6246 6.10583 16.4054C6.15345 16.3393 6.21366 16.2817 6.27158 16.2238C9.11114 13.3835 11.9513 10.5439 14.7904 7.70315C14.9466 7.54688 15.107 7.40819 15.3451 7.40634C15.6173 7.40427 15.8229 7.52055 15.9473 7.75917C16.0765 8.00658 16.0503 8.24957 15.8797 8.47217C15.8346 8.53109 15.7803 8.58336 15.7276 8.63612C12.8879 11.4763 10.0477 14.3159 7.20875 17.1568C7.04664 17.3189 6.8795 17.4625 6.6308 17.4538Z" fill="#191C1A"/>
<path fill-rule="evenodd" clip-rule="evenodd" d="M8.35621 11.3224C7.01944 11.3249 5.93642 10.2467 5.93166 8.90888C5.92695 7.57822 7.0107 6.48208 8.33918 6.47368C9.67298 6.46528 10.7777 7.56623 10.777 8.90322C10.7763 10.236 9.69169 11.3199 8.35621 11.3224ZM8.35229 7.80552C7.74561 7.8063 7.25588 8.29177 7.25156 8.89661C7.2472 9.49904 7.76437 10.0133 8.36546 10.0042C8.9648 9.99527 9.45828 9.49165 9.45279 8.89454C9.44714 8.28741 8.95942 7.80468 8.35229 7.80552Z" fill="#191C1A"/>
<path fill-rule="evenodd" clip-rule="evenodd" d="M13.6565 13.5388C15.0055 13.5447 16.0781 14.6333 16.0677 15.9864C16.0576 17.3041 14.9671 18.3855 13.6476 18.386C12.3125 18.3865 11.2168 17.2827 11.2232 15.9437C11.2296 14.6125 12.3218 13.533 13.6565 13.5388ZM13.641 17.0542C14.2495 17.0564 14.7369 16.5788 14.7478 15.9697C14.7585 15.369 14.2446 14.8522 13.6406 14.8566C13.0416 14.861 12.5459 15.3606 12.5466 15.9591C12.5472 16.565 13.0339 17.052 13.641 17.0542Z" fill="#191C1A"/>
</svg>
