<svg width="160" height="160" viewBox="0 0 160 160" fill="none" xmlns="http://www.w3.org/2000/svg">
<rect width="160" height="160" rx="16" fill="#EEF5EE"/>
<mask id="mask0_4970_108" style="mask-type:alpha" maskUnits="userSpaceOnUse" x="38" y="38" width="84" height="84">
<rect x="38" y="38" width="84" height="84" fill="#D9D9D9"/>
</mask>
<g mask="url(#mask0_4970_108)">
<path d="M80 80C76.15 80 72.8542 78.6292 70.1125 75.8875C67.3708 73.1458 66 69.85 66 66C66 62.15 67.3708 58.8542 70.1125 56.1125C72.8542 53.3708 76.15 52 80 52C83.85 52 87.1458 53.3708 89.8875 56.1125C92.6292 58.8542 94 62.15 94 66C94 69.85 92.6292 73.1458 89.8875 75.8875C87.1458 78.6292 83.85 80 80 80ZM59 108C57.075 108 55.4277 107.315 54.058 105.946C52.686 104.574 52 102.925 52 101V98.2C52 96.2167 52.511 94.3932 53.533 92.7295C54.5527 91.0682 55.9083 89.8 57.6 88.925C61.2167 87.1167 64.8917 85.7598 68.625 84.8545C72.3583 83.9515 76.15 83.5 80 83.5C83.85 83.5 87.6417 83.9515 91.375 84.8545C95.1083 85.7598 98.7833 87.1167 102.4 88.925C104.092 89.8 105.447 91.0682 106.467 92.7295C107.489 94.3932 108 96.2167 108 98.2V101C108 102.925 107.315 104.574 105.946 105.946C104.574 107.315 102.925 108 101 108H59Z" fill="#D2E0D7"/>
</g>
</svg>
