<svg width="24" height="24" viewBox="0 0 24 24" fill="none" xmlns="http://www.w3.org/2000/svg">
<mask id="mask0_1590_89" style="mask-type:alpha" maskUnits="userSpaceOnUse" x="0" y="0" width="24" height="24">
<rect width="24" height="24" fill="#D9D9D9"/>
</mask>
<g mask="url(#mask0_1590_89)">
<path d="M5.025 20.175C4.80833 20.175 4.62933 20.104 4.488 19.962C4.346 19.8207 4.275 19.6417 4.275 19.425V18.425H4C3.3 18.425 2.70833 18.1833 2.225 17.7C1.74167 17.2167 1.5 16.625 1.5 15.925V10.925C1.5 10.1917 1.75 9.59167 2.25 9.125C2.75 8.65833 3.33333 8.425 4 8.425V6.625C4 5.925 4.24167 5.33333 4.725 4.85C5.20833 4.36667 5.8 4.125 6.5 4.125H17.5C18.2 4.125 18.7917 4.36667 19.275 4.85C19.7583 5.33333 20 5.925 20 6.625V8.425C20.6833 8.425 21.271 8.66233 21.763 9.137C22.2543 9.61233 22.5 10.2083 22.5 10.925V15.925C22.5 16.625 22.2583 17.2167 21.775 17.7C21.2917 18.1833 20.7 18.425 20 18.425H19.725V19.425C19.725 19.6417 19.6583 19.8207 19.525 19.962C19.3917 20.104 19.2167 20.175 19 20.175C18.7833 20.175 18.604 20.104 18.462 19.962C18.3207 19.8207 18.25 19.6417 18.25 19.425V18.425H5.775V19.425C5.775 19.6417 5.704 19.8207 5.562 19.962C5.42067 20.104 5.24167 20.175 5.025 20.175ZM4 16.925H20C20.2833 16.925 20.5207 16.8293 20.712 16.638C20.904 16.446 21 16.2083 21 15.925V10.925C21 10.6417 20.904 10.404 20.712 10.212C20.5207 10.0207 20.2833 9.925 20 9.925C19.7167 9.925 19.4793 10.0207 19.288 10.212C19.096 10.404 19 10.6417 19 10.925V14.675H5V10.925C5 10.6417 4.90433 10.404 4.713 10.212C4.521 10.0207 4.28333 9.925 4 9.925C3.71667 9.925 3.47933 10.0207 3.288 10.212C3.096 10.404 3 10.6417 3 10.925V15.925C3 16.2083 3.096 16.446 3.288 16.638C3.47933 16.8293 3.71667 16.925 4 16.925ZM6.5 13.175H17.5V10.925C17.5 10.525 17.5917 10.154 17.775 9.812C17.9583 9.47067 18.2 9.19167 18.5 8.975V6.625C18.5 6.34167 18.404 6.104 18.212 5.912C18.0207 5.72067 17.7833 5.625 17.5 5.625H6.5C6.21667 5.625 5.979 5.72067 5.787 5.912C5.59567 6.104 5.5 6.34167 5.5 6.625V8.975C5.8 9.19167 6.04167 9.47067 6.225 9.812C6.40833 10.154 6.5 10.525 6.5 10.925V13.175Z" fill="#1C1B1F"/>
</g>
</svg>
