<svg width="28" height="28" viewBox="0 0 28 28" fill="none" xmlns="http://www.w3.org/2000/svg">
<path fill-rule="evenodd" clip-rule="evenodd" d="M13.6942 2.3335C19.9592 2.3335 25.0552 7.4295 25.0552 13.6945C25.0552 16.6503 23.9209 19.3462 22.0646 21.3694L25.7172 25.0143C26.059 25.3561 26.0602 25.9091 25.7183 26.251C25.548 26.4236 25.3228 26.5088 25.0988 26.5088C24.876 26.5088 24.652 26.4236 24.4805 26.2533L20.7839 22.567C18.8393 24.1243 16.3737 25.0567 13.6942 25.0567C7.4292 25.0567 2.33203 19.9595 2.33203 13.6945C2.33203 7.4295 7.4292 2.3335 13.6942 2.3335ZM13.6942 4.0835C8.39403 4.0835 4.08203 8.39433 4.08203 13.6945C4.08203 18.9947 8.39403 23.3067 13.6942 23.3067C18.9932 23.3067 23.3052 18.9947 23.3052 13.6945C23.3052 8.39433 18.9932 4.0835 13.6942 4.0835Z" fill="white"/>
</svg>
