<svg width="20" height="20" viewBox="0 0 20 20" fill="none" xmlns="http://www.w3.org/2000/svg">
<path fill-rule="evenodd" clip-rule="evenodd" d="M9.7838 1.66602C14.2588 1.66602 17.8988 5.30602 17.8988 9.78102C17.8988 11.8923 17.0886 13.8179 15.7627 15.2631L18.3716 17.8666C18.6158 18.1108 18.6166 18.5058 18.3725 18.7499C18.2508 18.8733 18.09 18.9341 17.93 18.9341C17.7708 18.9341 17.6108 18.8733 17.4883 18.7516L14.8479 16.1185C13.4589 17.2309 11.6977 17.8968 9.7838 17.8968C5.3088 17.8968 1.66797 14.256 1.66797 9.78102C1.66797 5.30602 5.3088 1.66602 9.7838 1.66602ZM9.7838 2.91602C5.99797 2.91602 2.91797 5.99518 2.91797 9.78102C2.91797 13.5668 5.99797 16.6468 9.7838 16.6468C13.5688 16.6468 16.6488 13.5668 16.6488 9.78102C16.6488 5.99518 13.5688 2.91602 9.7838 2.91602Z" fill="#717972"/>
</svg>
