<svg width="24" height="24" viewBox="0 0 24 24" fill="none" xmlns="http://www.w3.org/2000/svg">
<mask id="mask0_1296_1232" style="mask-type:alpha" maskUnits="userSpaceOnUse" x="0" y="0" width="24" height="24">
<rect width="24" height="24" fill="#D9D9D9"/>
</mask>
<g mask="url(#mask0_1296_1232)">
<path d="M9.7 21.5L9.3 18.45C9.03333 18.3667 8.76267 18.2417 8.488 18.075C8.21267 17.9083 7.95833 17.7333 7.725 17.55L4.9 18.75L2.6 14.75L5.05 12.9C5.01667 12.75 4.996 12.6 4.988 12.45C4.97933 12.3 4.975 12.15 4.975 12C4.975 11.8667 4.97933 11.725 4.988 11.575C4.996 11.425 5.01667 11.2667 5.05 11.1L2.6 9.25L4.9 5.275L7.725 6.45C7.95833 6.26667 8.21267 6.096 8.488 5.938C8.76267 5.77933 9.03333 5.65 9.3 5.55L9.7 2.5H14.3L14.7 5.55C15 5.66667 15.2707 5.79567 15.512 5.937C15.754 6.079 16 6.25 16.25 6.45L19.1 5.275L21.4 9.25L18.925 11.125C18.9583 11.2917 18.975 11.4417 18.975 11.575V12C18.975 12.1333 18.9707 12.2707 18.962 12.412C18.954 12.554 18.9333 12.7167 18.9 12.9L21.35 14.75L19.05 18.75L16.25 17.55C16 17.75 15.746 17.925 15.488 18.075C15.2293 18.225 14.9667 18.35 14.7 18.45L14.3 21.5H9.7ZM12 15C12.8333 15 13.5417 14.7083 14.125 14.125C14.7083 13.5417 15 12.8333 15 12C15 11.1667 14.7083 10.4583 14.125 9.875C13.5417 9.29167 12.8333 9 12 9C11.1667 9 10.4583 9.29167 9.875 9.875C9.29167 10.4583 9 11.1667 9 12C9 12.8333 9.29167 13.5417 9.875 14.125C10.4583 14.7083 11.1667 15 12 15ZM12 13.5C11.5833 13.5 11.2293 13.354 10.938 13.062C10.646 12.7707 10.5 12.4167 10.5 12C10.5 11.5833 10.646 11.2293 10.938 10.938C11.2293 10.646 11.5833 10.5 12 10.5C12.4167 10.5 12.7707 10.646 13.062 10.938C13.354 11.2293 13.5 11.5833 13.5 12C13.5 12.4167 13.354 12.7707 13.062 13.062C12.7707 13.354 12.4167 13.5 12 13.5ZM11 20H12.975L13.325 17.325C13.8417 17.1917 14.3083 17 14.725 16.75C15.1417 16.5 15.55 16.1833 15.95 15.8L18.425 16.85L19.425 15.15L17.25 13.525C17.3333 13.2583 17.3877 13 17.413 12.75C17.4377 12.5 17.45 12.25 17.45 12C17.45 11.7333 17.4377 11.4793 17.413 11.238C17.3877 10.996 17.3333 10.75 17.25 10.5L19.425 8.85L18.45 7.15L15.925 8.2C15.5917 7.85 15.1917 7.53733 14.725 7.262C14.2583 6.98733 13.7917 6.79167 13.325 6.675L13 4H11.025L10.675 6.675C10.175 6.79167 9.70833 6.975 9.275 7.225C8.84167 7.475 8.425 7.79167 8.025 8.175L5.55 7.15L4.575 8.85L6.725 10.45C6.64167 10.7 6.58333 10.95 6.55 11.2C6.51667 11.45 6.5 11.7167 6.5 12C6.5 12.2667 6.51667 12.525 6.55 12.775C6.58333 13.025 6.64167 13.275 6.725 13.525L4.575 15.15L5.55 16.85L8.025 15.8C8.40833 16.1833 8.81667 16.5 9.25 16.75C9.68333 17 10.1583 17.1917 10.675 17.325L11 20Z" fill="#191C1A"/>
</g>
</svg>
