<svg width="24" height="24" viewBox="0 0 24 24" fill="none" xmlns="http://www.w3.org/2000/svg">
<mask id="mask0_410_658" style="mask-type:alpha" maskUnits="userSpaceOnUse" x="0" y="0" width="24" height="24">
<rect width="24" height="24" fill="#D9D9D9"/>
</mask>
<g mask="url(#mask0_410_658)">
<path d="M7.62963 19.8806C7.40722 20.0343 7.1848 20.0396 6.96239 19.8964C6.73998 19.7541 6.67326 19.5511 6.76222 19.2875L8.39694 13.9171L4.2601 10.9519C4.01545 10.7762 3.94339 10.5618 4.04392 10.3087C4.14356 10.0566 4.3157 9.93051 4.56036 9.93051H9.76477L11.4662 4.39537C11.5107 4.26358 11.5828 4.16474 11.6824 4.09884C11.7829 4.03295 11.8888 4 12 4C12.1112 4 12.2171 4.03295 12.3176 4.09884C12.4172 4.16474 12.4893 4.26358 12.5338 4.39537L14.2352 9.93051H19.4396C19.6843 9.93051 19.8564 10.0566 19.9561 10.3087C20.0566 10.5618 19.9846 10.7762 19.7399 10.9519L15.6031 13.9171L17.2378 19.2875C17.3267 19.5511 17.26 19.7541 17.0376 19.8964C16.8152 20.0396 16.5928 20.0343 16.3704 19.8806L12 16.6188L7.62963 19.8806ZM8.79728 17.3766L12 14.9714L15.2027 17.3766L14.0351 13.39L17.0042 11.2484H13.2677L12 7.16294L10.7323 11.2484H6.99575L9.96494 13.39L8.79728 17.3766Z" fill="#015AC3"/>
</g>
</svg>
