<svg width="48" height="48" viewBox="0 0 48 48" fill="none" xmlns="http://www.w3.org/2000/svg">
<circle cx="24" cy="24" r="24" fill="#D8E2FF"/>
<path fill-rule="evenodd" clip-rule="evenodd" d="M22.9558 10.0297C22.8594 10.041 22.5306 10.0783 22.2252 10.1126C19.8754 10.3763 17.3078 11.4481 15.3465 12.9841C12.4196 15.2759 10.5118 18.6818 10.0651 22.4123C9.96683 23.2336 9.98214 24.9572 10.0952 25.7983C10.6448 29.8844 12.8448 33.4091 16.2633 35.6807C18.1115 36.9087 20.156 37.6558 22.4298 37.934C23.2037 38.0288 24.9396 38.0125 25.7614 37.9029C28.8836 37.4865 31.7026 36.1021 33.8988 33.9066C34.9759 32.8299 35.7716 31.7232 36.4899 30.303C38.0287 27.2602 38.4011 23.8734 37.5629 20.5421C37.3857 19.8378 37.2826 19.6484 36.9804 19.4728C36.4025 19.1369 35.6101 19.5805 35.6101 20.24C35.6101 20.3698 35.6621 20.6618 35.7257 20.8889C36.426 23.3896 36.2044 26.3203 35.1252 28.8315C33.433 32.7692 29.7231 35.5316 25.4173 36.0602C24.6715 36.1518 23.1226 36.1381 22.3781 36.0334C16.9069 35.2642 12.7428 31.1005 11.9639 25.6202C11.8444 24.7791 11.8466 23.194 11.9684 22.3285C12.9451 15.3931 19.6517 10.6687 26.4478 12.1287C26.8097 12.2065 27.238 12.3007 27.3997 12.3381C27.7924 12.4289 28.082 12.3659 28.325 12.1367C28.7173 11.7667 28.7318 11.1886 28.358 10.8148C27.9392 10.3959 25.6416 9.97994 23.8618 10.0007C23.4599 10.0055 23.0522 10.0185 22.9558 10.0297Z" fill="#015AC3"/>
<path fill-rule="evenodd" clip-rule="evenodd" d="M33.2198 10.4039C33.0292 10.4921 32.8583 10.6735 32.7858 10.8645C32.7522 10.9531 32.7309 11.5146 32.7309 12.3142V13.6193L31.345 13.6345C30.0384 13.6489 29.951 13.6558 29.8171 13.7557C29.5471 13.9572 29.4629 14.1215 29.4629 14.4465C29.4629 14.7715 29.5471 14.9357 29.8171 15.1372C29.951 15.2372 30.0384 15.2441 31.3426 15.2584L32.7262 15.2736L32.7414 16.6555C32.7558 17.9582 32.7627 18.0455 32.8628 18.1792C33.0645 18.4489 33.2289 18.533 33.5543 18.533C33.8798 18.533 34.0442 18.4489 34.2459 18.1792C34.346 18.0455 34.3529 17.9582 34.3673 16.6555L34.3825 15.2736L35.7661 15.2584C37.0703 15.2441 37.1577 15.2372 37.2916 15.1372C37.5616 14.9357 37.6458 14.7715 37.6458 14.4465C37.6458 14.1215 37.5616 13.9572 37.2916 13.7557C37.1577 13.6558 37.0703 13.6489 35.7661 13.6345L34.3825 13.6194L34.3673 12.2374C34.3529 10.9348 34.346 10.8475 34.2459 10.7138C34.1876 10.6357 34.0793 10.5267 34.0053 10.4716C33.8348 10.3444 33.4249 10.3091 33.2198 10.4039Z" fill="#015AC3"/>
<path fill-rule="evenodd" clip-rule="evenodd" d="M23.7708 15.5995C23.7139 15.6247 23.6418 15.6749 23.6106 15.7109C23.5794 15.7469 23.0771 16.7526 22.4944 17.9458C21.9117 19.139 21.4252 20.1257 21.4132 20.1384C21.4013 20.1511 20.3054 20.32 18.9779 20.5136C17.2503 20.7657 16.5348 20.883 16.4608 20.9263C16.228 21.0626 16.1266 21.413 16.2505 21.653C16.2771 21.7045 16.9948 22.4289 17.8453 23.2627C18.6958 24.0964 19.4811 24.8703 19.5903 24.9823L19.7891 25.186L19.3753 27.6122C18.9383 30.1743 18.9399 30.1595 19.0827 30.3642C19.1731 30.4937 19.3995 30.5908 19.5667 30.5718C19.6717 30.5599 20.3098 30.2393 21.8541 29.4225C23.0321 28.7995 24.0121 28.2897 24.032 28.2897C24.0519 28.2897 25.0311 28.7995 26.2081 29.4226C27.7453 30.2363 28.3889 30.5601 28.493 30.5719C28.6624 30.5911 28.893 30.4899 28.9783 30.3589C29.1167 30.1462 29.1194 30.1717 28.6839 27.6153L28.27 25.1858L28.4686 24.9822C28.5779 24.8702 29.3631 24.0964 30.2136 23.2627C31.0641 22.4289 31.7818 21.7045 31.8084 21.653C31.9325 21.4127 31.8309 21.0629 31.5972 20.9256C31.5219 20.8813 30.8254 20.7668 29.0802 20.5119C27.7531 20.3181 26.6575 20.1496 26.6454 20.1374C26.6334 20.1252 26.1468 19.139 25.5642 17.9458C24.9815 16.7526 24.4793 15.7469 24.4481 15.7108C24.3176 15.5598 23.9836 15.5049 23.7708 15.5995Z" fill="#015AC3"/>
</svg>
