<svg width="52" height="52" viewBox="0 0 52 52" fill="none" xmlns="http://www.w3.org/2000/svg">
<mask id="mask0_451_271" style="mask-type:alpha" maskUnits="userSpaceOnUse" x="0" y="0" width="52" height="52">
<rect width="52" height="52" fill="#D9D9D9"/>
</mask>
<g mask="url(#mask0_451_271)">
<path d="M17.8704 38.1864L25.9954 32.0114L34.1204 38.1864L31.0871 28.1655L39.1579 22.3697H29.2454L25.9954 11.8072L22.7454 22.3697H12.8329L20.9038 28.1655L17.8704 38.1864ZM25.9954 46.5822C23.1427 46.5822 20.4618 46.0405 17.9528 44.9572C15.4423 43.8739 13.2663 42.4114 11.4246 40.5697C9.58294 38.728 8.12044 36.552 7.03711 34.0415C5.95378 31.5325 5.41211 28.8516 5.41211 25.9989C5.41211 23.1461 5.95378 20.4645 7.03711 17.954C8.12044 15.445 9.58294 13.2697 11.4246 11.428C13.2663 9.58636 15.4423 8.12386 17.9528 7.04053C20.4618 5.95719 23.1427 5.41553 25.9954 5.41553C28.8482 5.41553 31.5298 5.95719 34.0403 7.04053C36.5493 8.12386 38.7246 9.58636 40.5663 11.428C42.4079 13.2697 43.8704 15.445 44.9538 17.954C46.0371 20.4645 46.5788 23.1461 46.5788 25.9989C46.5788 28.8516 46.0371 31.5325 44.9538 34.0415C43.8704 36.552 42.4079 38.728 40.5663 40.5697C38.7246 42.4114 36.5493 43.8739 34.0403 44.9572C31.5298 46.0405 28.8482 46.5822 25.9954 46.5822ZM25.9954 43.3322C30.8343 43.3322 34.9329 41.653 38.2913 38.2947C41.6496 34.9364 43.3288 30.8377 43.3288 25.9989C43.3288 21.16 41.6496 17.0614 38.2913 13.703C34.9329 10.3447 30.8343 8.66553 25.9954 8.66553C21.1566 8.66553 17.0579 10.3447 13.6996 13.703C10.3413 17.0614 8.66211 21.16 8.66211 25.9989C8.66211 30.8377 10.3413 34.9364 13.6996 38.2947C17.0579 41.653 21.1566 43.3322 25.9954 43.3322Z" fill="#015AC3"/>
</g>
</svg>
