<svg width="24" height="24" viewBox="0 0 24 24" fill="none" xmlns="http://www.w3.org/2000/svg">
<path fill-rule="evenodd" clip-rule="evenodd" d="M12.0001 6.97295C11.9441 6.97295 11.8062 6.98917 11.733 7.14354L10.6093 9.5117C10.4314 9.88596 10.0886 10.1461 9.69232 10.2057L7.17659 10.5878C7.01043 10.6131 6.95381 10.7428 6.93658 10.7973C6.9212 10.8498 6.89658 10.9834 7.01104 11.0989L8.83015 12.941C9.12 13.2349 9.2517 13.6584 9.18278 14.0729L8.75446 16.6739C8.728 16.8367 8.82462 16.9314 8.86769 16.9638C8.91323 17.0002 9.03508 17.0722 9.18585 16.9891L11.4351 15.76C11.7896 15.5673 12.2118 15.5673 12.565 15.76L14.8136 16.9885C14.965 17.0709 15.0869 16.9989 15.133 16.9638C15.1761 16.9314 15.2727 16.8367 15.2463 16.6739L14.8167 14.0729C14.7478 13.6584 14.8795 13.2349 15.1693 12.941L16.9885 11.0989C17.1035 10.9834 17.0789 10.8492 17.0629 10.7973C17.0463 10.7428 16.9897 10.6131 16.8235 10.5878L14.3078 10.2057C13.9121 10.1461 13.5693 9.88596 13.3915 9.51105L12.2665 7.14354C12.1939 6.98917 12.0561 6.97295 12.0001 6.97295ZM9.04431 17.9997C8.79015 17.9997 8.53784 17.9154 8.32184 17.7493C7.94891 17.4613 7.76613 16.9859 7.84552 16.5072L8.27384 13.9062C8.28984 13.8095 8.25845 13.7116 8.19076 13.6428L6.37165 11.8007C6.03687 11.4628 5.91687 10.9633 6.05841 10.4996C6.20118 10.0306 6.57904 9.69526 7.04489 9.62521L9.56063 9.24316C9.65786 9.22889 9.74155 9.16598 9.7834 9.07647L10.9077 6.70766C11.1151 6.27113 11.5336 6 12.0001 6C12.4665 6 12.885 6.27113 13.0924 6.70766L14.2173 9.07582C14.2598 9.16598 14.3429 9.22889 14.4395 9.24316L16.9552 9.62521C17.4211 9.69526 17.7989 10.0306 17.9417 10.4996C18.0832 10.9633 17.9626 11.4628 17.6279 11.8007L15.8087 13.6428C15.741 13.7116 15.7103 13.8095 15.7263 13.9055L16.1552 16.5072C16.234 16.9865 16.0512 17.462 15.6777 17.7493C15.2992 18.0419 14.8063 18.0814 14.3884 17.8518L12.1404 16.624C12.0524 16.576 11.9471 16.576 11.8591 16.624L9.61109 17.8525C9.4314 17.9511 9.23755 17.9997 9.04431 17.9997Z" fill="#191C1A"/>
<path fill-rule="evenodd" clip-rule="evenodd" d="M11.9998 0.799999C5.81422 0.799999 0.799805 5.81441 0.799805 12C0.799805 18.1856 5.81422 23.2 11.9998 23.2C18.1854 23.2 23.1998 18.1856 23.1998 12C23.1998 5.81441 18.1854 0.799999 11.9998 0.799999ZM2.1998 12C2.1998 6.58761 6.58741 2.2 11.9998 2.2C17.4122 2.2 21.7998 6.58761 21.7998 12C21.7998 17.4124 17.4122 21.8 11.9998 21.8C6.58741 21.8 2.1998 17.4124 2.1998 12Z" fill="#191C1A"/>
</svg>
