<svg width="20" height="18" viewBox="0 0 20 18" fill="none" xmlns="http://www.w3.org/2000/svg">
<path d="M15.4244 10.9586C15.187 11.1886 15.0779 11.5213 15.132 11.8476L15.9468 16.357C16.0156 16.7392 15.8542 17.126 15.5344 17.3469C15.2209 17.5761 14.8039 17.6036 14.462 17.4202L10.4026 15.303C10.2615 15.2279 10.1047 15.1875 9.94435 15.183H9.69596C9.60981 15.1958 9.52549 15.2233 9.4485 15.2654L5.38819 17.3927C5.18747 17.4936 4.96016 17.5293 4.73744 17.4936C4.19485 17.3909 3.83281 16.874 3.92172 16.3286L4.73744 11.8192C4.79152 11.4902 4.68245 11.1556 4.44507 10.9219L1.13541 7.71401C0.858617 7.44546 0.76238 7.04218 0.888863 6.67831C1.01168 6.31536 1.32514 6.05048 1.70367 5.9909L6.25891 5.33007C6.60537 5.29433 6.90966 5.08352 7.06547 4.77189L9.07271 0.656597C9.12037 0.564943 9.18178 0.48062 9.25602 0.40913L9.33851 0.344971C9.38159 0.297311 9.43108 0.257899 9.48607 0.22582L9.58598 0.189158L9.74179 0.125H10.1277C10.4723 0.160745 10.7757 0.366968 10.9342 0.674928L12.968 4.77189C13.1147 5.0716 13.3997 5.27966 13.7288 5.33007L18.284 5.9909C18.669 6.04589 18.9907 6.31169 19.1181 6.67831C19.2381 7.04585 19.1346 7.44913 18.8523 7.71401L15.4244 10.9586Z" fill="#D17D00"/>
</svg>
