<svg width="24" height="24" viewBox="0 0 24 24" fill="none" xmlns="http://www.w3.org/2000/svg">
<path d="M11.8365 2C5.85164 2 1 5.8254 1 10.5442C1 13.595 3.02831 16.2719 6.07942 17.7835C5.91343 18.356 5.01275 21.4663 4.97691 21.7106C4.97691 21.7106 4.95534 21.8942 5.07423 21.9642C5.19312 22.0343 5.33295 21.9799 5.33295 21.9799C5.67388 21.9322 9.28651 19.3946 9.9118 18.954C10.5365 19.0424 11.1797 19.0884 11.8365 19.0884C17.8214 19.0884 22.6731 15.2631 22.6731 10.5442C22.6731 5.8254 17.8214 2 11.8365 2Z" fill="black"/>
<path d="M5.84506 13.5268C5.50027 13.5268 5.21987 13.2591 5.21987 12.9298V9.21567H4.24437C3.90605 9.21567 3.63086 8.941 3.63086 8.60351C3.63086 8.26601 3.90615 7.99135 4.24437 7.99135H7.44574C7.78407 7.99135 8.05925 8.26601 8.05925 8.60351C8.05925 8.941 7.78396 9.21567 7.44574 9.21567H6.47024V12.9298C6.47024 13.2591 6.18985 13.5268 5.84506 13.5268ZM11.3271 13.5187C11.0664 13.5187 10.867 13.4128 10.8068 13.2426L10.4973 12.4321L8.59087 12.432L8.28109 13.243C8.22118 13.413 8.02185 13.5187 7.76114 13.5187C7.62401 13.5189 7.48846 13.4894 7.36373 13.4324C7.19139 13.3529 7.02572 13.1343 7.21557 12.5447L8.71101 8.60851C8.81635 8.30915 9.13634 8.00073 9.54355 7.99145C9.9519 8.00062 10.2719 8.30915 10.3774 8.60914L11.8723 12.5435C12.0625 13.1345 11.8968 13.3532 11.7245 13.4325C11.5997 13.4894 11.4642 13.5188 11.3271 13.5187C11.3271 13.5187 11.327 13.5187 11.3271 13.5187ZM10.1685 11.3247L9.54407 9.55077L8.91961 11.3247H10.1685ZM12.8784 13.4357C12.548 13.4357 12.2793 13.1785 12.2793 12.8626V8.61653C12.2793 8.27174 12.5656 7.99135 12.9175 7.99135C13.2693 7.99135 13.5557 8.27174 13.5557 8.61653V12.2895H14.8842C15.2146 12.2895 15.4833 12.5467 15.4833 12.8626C15.4833 13.1785 15.2146 13.4357 14.8842 13.4357H12.8784ZM16.3517 13.5187C16.0069 13.5187 15.7265 13.2383 15.7265 12.8935V8.61653C15.7265 8.27174 16.0069 7.99135 16.3517 7.99135C16.6965 7.99135 16.9769 8.27174 16.9769 8.61653V9.96026L18.7212 8.216C18.8109 8.12628 18.9341 8.07689 19.0679 8.07689C19.224 8.07689 19.3807 8.14421 19.4982 8.26153C19.6077 8.37094 19.673 8.51171 19.682 8.6579C19.691 8.80534 19.642 8.94048 19.544 9.03853L18.1193 10.463L19.6582 12.5017C19.7079 12.5671 19.7441 12.6418 19.7647 12.7213C19.7853 12.8008 19.7899 12.8836 19.7782 12.9649C19.7671 13.0463 19.7399 13.1246 19.6983 13.1954C19.6566 13.2661 19.6014 13.328 19.5357 13.3772C19.4276 13.4594 19.2954 13.5037 19.1596 13.5034C19.0628 13.5038 18.9671 13.4816 18.8804 13.4384C18.7937 13.3953 18.7183 13.3324 18.6602 13.2549L17.194 11.3122L16.9771 11.5292V12.8932C16.9769 13.059 16.911 13.218 16.7937 13.3353C16.6765 13.4525 16.5175 13.5185 16.3517 13.5187Z" fill="#FFE812"/>
</svg>
