<svg width="20" height="20" viewBox="0 0 20 20" fill="none" xmlns="http://www.w3.org/2000/svg">
<path fill-rule="evenodd" clip-rule="evenodd" d="M4.27367 1.70644C3.03724 1.93552 2.08115 2.82043 1.74423 4.04752L1.66406 4.33955V9.9668V15.5941L1.74423 15.8861C2.05846 17.0305 2.90081 17.868 4.05317 18.1816L4.34326 18.2605H9.99739C15.2736 18.2605 15.6674 18.2565 15.8891 18.1998C17.0573 17.9012 17.9328 17.0424 18.2514 15.8828L18.3307 15.5941V9.9668V4.33955L18.2506 4.04752C17.9382 2.90974 17.1045 2.07542 15.9542 1.74921L15.6863 1.67327L10.1018 1.66728C5.64012 1.6625 4.46824 1.67039 4.27367 1.70644ZM15.6426 2.83092C16.4203 3.02887 16.9685 3.57445 17.1674 4.34841C17.2325 4.60187 17.2347 4.78408 17.2347 9.9668C17.2347 15.1495 17.2325 15.3317 17.1674 15.5852C16.9685 16.3592 16.4203 16.9047 15.6426 17.1027C15.388 17.1675 15.2049 17.1697 9.99739 17.1697C4.75154 17.1697 4.60853 17.168 4.3466 17.1013C3.56062 16.9012 2.98598 16.3115 2.81197 15.5263C2.76413 15.3104 2.75905 14.6576 2.76772 9.8456L2.77749 4.40881L2.8515 4.21668C3.05602 3.68558 3.28939 3.38475 3.71187 3.10761C3.92669 2.96667 4.21542 2.84571 4.44764 2.79931C4.52419 2.784 7.01517 2.7698 9.98313 2.76773C15.2115 2.76402 15.3877 2.766 15.6426 2.83092ZM4.63076 4.48032C4.42756 4.59006 4.43024 4.56145 4.43024 6.61244C4.43024 8.44118 4.43212 8.4944 4.5023 8.63867C4.59677 8.83283 4.76479 8.93593 4.98696 8.93593C5.20912 8.93593 5.37714 8.83283 5.47161 8.63867C5.53981 8.49845 5.54367 8.43217 5.54367 7.40202V6.31352L9.59736 10.3478L13.6511 14.382L12.5288 14.3993C11.2776 14.4186 11.2579 14.4223 11.1102 14.6601C10.9407 14.933 11.0449 15.2975 11.3319 15.4358C11.4768 15.5056 11.5303 15.5075 13.3678 15.5075C15.438 15.5075 15.4026 15.5109 15.5118 15.3009C15.557 15.2137 15.5645 14.9322 15.5645 13.3212C15.5645 11.4924 15.5627 11.4392 15.4925 11.2949C15.3 10.8993 14.7203 10.8933 14.5196 11.2848C14.4557 11.4095 14.4511 11.4926 14.4511 12.5193V13.6201L10.3974 9.58581L6.34371 5.55157L7.46598 5.53426C8.54308 5.51764 8.59312 5.5139 8.70999 5.44142C8.87714 5.33777 8.96159 5.18246 8.96159 4.97863C8.96159 4.75919 8.85745 4.59158 8.66291 4.49784C8.51782 4.42792 8.46605 4.42616 6.62001 4.42751C5.0126 4.42868 4.71159 4.43668 4.63076 4.48032Z" fill="#717972"/>
</svg>
