<svg width="24" height="24" viewBox="0 0 24 24" fill="none" xmlns="http://www.w3.org/2000/svg">
<mask id="mask0_692_273" style="mask-type:alpha" maskUnits="userSpaceOnUse" x="0" y="0" width="24" height="24">
<rect width="24" height="24" fill="#D9D9D9"/>
</mask>
<g mask="url(#mask0_692_273)">
<path d="M7.3 20.5C6.8 20.5 6.375 20.325 6.025 19.975C5.675 19.625 5.5 19.2 5.5 18.7V6H4.5V4.5H9V3.625H15V4.5H19.5V6H18.5V18.7C18.5 19.2 18.325 19.625 17.975 19.975C17.625 20.325 17.2 20.5 16.7 20.5H7.3ZM17 6H7V18.7C7 18.7833 7.02933 18.8543 7.088 18.913C7.146 18.971 7.21667 19 7.3 19H16.7C16.7667 19 16.8333 18.9667 16.9 18.9C16.9667 18.8333 17 18.7667 17 18.7V6ZM9.4 17H10.9V8H9.4V17ZM13.1 17H14.6V8H13.1V17ZM7 6V19V18.7V6Z" fill="#B3261E"/>
</g>
</svg>
