<svg width="20" height="20" viewBox="0 0 20 20" fill="none" xmlns="http://www.w3.org/2000/svg">
<mask id="mask0_762_277" style="mask-type:alpha" maskUnits="userSpaceOnUse" x="0" y="0" width="20" height="20">
<rect width="20" height="20" fill="#D9D9D9"/>
</mask>
<g mask="url(#mask0_762_277)">
<path d="M6.08333 17.0859C5.66667 17.0859 5.3125 16.9401 5.02083 16.6484C4.72917 16.3568 4.58333 16.0026 4.58333 15.5859V5.0026H3.75V3.7526H7.5V3.02344H12.5V3.7526H16.25V5.0026H15.4167V15.5859C15.4167 16.0026 15.2708 16.3568 14.9792 16.6484C14.6875 16.9401 14.3333 17.0859 13.9167 17.0859H6.08333ZM14.1667 5.0026H5.83333V15.5859C5.83333 15.6554 5.85778 15.7145 5.90667 15.7634C5.955 15.8118 6.01389 15.8359 6.08333 15.8359H13.9167C13.9722 15.8359 14.0278 15.8082 14.0833 15.7526C14.1389 15.697 14.1667 15.6415 14.1667 15.5859V5.0026ZM7.83333 14.1693H9.08333V6.66927H7.83333V14.1693ZM10.9167 14.1693H12.1667V6.66927H10.9167V14.1693ZM5.83333 5.0026V15.8359V15.5859V5.0026Z" fill="#191C1A"/>
</g>
</svg>
