<svg width="28" height="28" viewBox="0 0 28 28" fill="none" xmlns="http://www.w3.org/2000/svg">
<path fill-rule="evenodd" clip-rule="evenodd" d="M13.1342 2.35521C11.4421 2.51738 10.156 2.87739 8.7504 3.58235C7.63372 4.14237 6.72545 4.80706 5.76648 5.766C4.74092 6.7916 4.09748 7.69221 3.48405 8.96084C2.765 10.4478 2.40162 11.9274 2.34165 13.6125C2.27242 15.5575 2.67237 17.4086 3.53772 19.1486C4.14732 20.3744 4.77366 21.2415 5.76648 22.2343C6.77024 23.2381 7.64129 23.8649 8.87011 24.4677C9.72753 24.8883 10.2811 25.093 11.1504 25.311C13.4312 25.8831 15.7188 25.7734 17.9472 24.9851C18.6227 24.7462 19.8019 24.1552 20.4081 23.7518C22.0726 22.6442 23.4482 21.1149 24.359 19.3593C25.183 17.7709 25.5953 16.1949 25.6597 14.3878C25.7289 12.4428 25.3289 10.5917 24.4636 8.85171C23.8953 7.70917 23.2628 6.81372 22.3746 5.89465C21.3896 4.87538 20.4235 4.17215 19.1312 3.5336C17.7803 2.86617 16.5217 2.5099 15.0268 2.37177C14.5621 2.32885 13.5059 2.3196 13.1342 2.35521ZM17.3676 8.82772C17.7152 8.94429 18.0662 9.14581 18.3395 9.38583L18.4992 9.52602L18.8152 9.44402C19.1952 9.34543 19.6982 9.14905 19.9635 8.99577C20.0708 8.93375 20.1573 8.90662 20.1573 8.93498C20.1573 9.03385 19.8896 9.51517 19.7043 9.74967C19.6013 9.87991 19.4142 10.0633 19.2884 10.1572C19.1626 10.2511 19.0797 10.3346 19.1042 10.3428C19.1755 10.3666 20.0683 10.1395 20.3077 10.0367L20.5265 9.94271L20.4445 10.0842C20.33 10.2818 19.6099 11.0375 19.3926 11.1881L19.2126 11.3129L19.1857 12.0066C19.1417 13.1423 18.892 14.0906 18.3545 15.1631C17.2624 17.3425 15.3102 18.8079 12.9827 19.1955C11.2582 19.4826 9.693 19.261 8.18604 18.5162C7.36383 18.1099 7.36333 18.1284 8.19712 18.1216C8.80708 18.1166 8.9818 18.0983 9.35284 18.0007C10.0883 17.8072 10.7675 17.4969 11.2572 17.1309L11.4096 17.0169L11.1887 16.9884C10.8616 16.9461 10.4082 16.7944 10.1242 16.6321C9.78471 16.438 9.31184 15.9526 9.13749 15.6191C8.88425 15.1347 8.8661 15.1631 9.42932 15.1631C10.0947 15.1631 10.1892 15.1194 9.80437 14.9894C9.6417 14.9344 9.40597 14.8297 9.28055 14.7567C8.96077 14.5704 8.48726 14.0745 8.31031 13.7406C8.14946 13.437 7.98082 12.8517 7.98082 12.597C7.98082 12.4643 7.99327 12.4453 8.06063 12.475C8.28655 12.5745 8.75774 12.7156 8.94107 12.7386L9.14885 12.7647L8.80344 12.4133C8.25212 11.8525 8.00959 11.2614 8.01383 10.4886C8.01616 10.0628 8.06779 9.81967 8.23666 9.43933L8.34821 9.18813L8.92839 9.76025C10.0178 10.8344 11.3224 11.5414 12.7465 11.8294C13.1081 11.9025 13.8532 11.989 13.8811 11.9611C13.8891 11.9531 13.8776 11.8391 13.8556 11.7078C13.7731 11.2151 13.924 10.4866 14.2093 9.99981C14.5857 9.35746 15.3621 8.82466 16.0868 8.71138C16.4665 8.65196 16.9836 8.69893 17.3676 8.82772Z" fill="#1DA1F2"/>
</svg>
