<svg width="36" height="36" viewBox="0 0 36 36" fill="none" xmlns="http://www.w3.org/2000/svg">
<mask id="mask0_683_115" style="mask-type:alpha" maskUnits="userSpaceOnUse" x="0" y="0" width="36" height="36">
<rect width="36" height="36" fill="#D9D9D9"/>
</mask>
<g mask="url(#mask0_683_115)">
<path d="M9.45 29.2469C8.7 29.2469 8.0625 28.9844 7.5375 28.4594C7.0125 27.9344 6.75 27.2969 6.75 26.5469V22.4969H9V26.5469C9 26.6469 9.05 26.7469 9.15 26.8469C9.25 26.9469 9.35 26.9969 9.45 26.9969H26.55C26.65 26.9969 26.75 26.9469 26.85 26.8469C26.95 26.7469 27 26.6469 27 26.5469V22.4969H29.25V26.5469C29.25 27.2969 28.9875 27.9344 28.4625 28.4594C27.9375 28.9844 27.3 29.2469 26.55 29.2469H9.45ZM16.875 23.4344V10.8344L13.1625 14.5094L11.5875 12.8969L18 6.48438L24.4125 12.8969L22.8375 14.5094L19.125 10.8344V23.4344H16.875Z" fill="#015AC3"/>
</g>
</svg>
