<svg width="16" height="16" viewBox="0 0 16 16" fill="none" xmlns="http://www.w3.org/2000/svg">
<path d="M7.9974 10.6161C9.43146 10.6161 10.6938 10.7346 11.5818 11.0491C12.0224 11.2052 12.3358 11.3976 12.5355 11.6155C12.7248 11.8221 12.8307 12.0709 12.8307 12.3995C12.8307 12.7272 12.7246 12.9744 12.5348 13.1795C12.3345 13.3961 12.0199 13.587 11.5779 13.7414C10.6873 14.0524 9.42434 14.1668 7.9974 14.1668C6.56368 14.1668 5.3013 14.0483 4.41323 13.7338C3.97253 13.5778 3.65907 13.3854 3.45936 13.1674C3.26997 12.9608 3.16406 12.712 3.16406 12.3835C3.16406 12.0557 3.27023 11.8085 3.45995 11.6034C3.66032 11.3868 3.97489 11.196 4.41693 11.0416C5.30752 10.7305 6.57045 10.6161 7.9974 10.6161ZM7.9974 1.8335C9.68089 1.8335 11.0267 3.17922 11.0267 4.86086C11.0267 6.54263 9.68076 7.8889 7.9974 7.8889C6.31463 7.8889 4.96807 6.54257 4.96807 4.86086C4.96807 3.17928 6.31451 1.8335 7.9974 1.8335Z" stroke="black"/>
</svg>
