<svg width="24" height="24" viewBox="0 0 24 24" fill="none" xmlns="http://www.w3.org/2000/svg">
<mask id="mask0_1548_12522" style="mask-type:alpha" maskUnits="userSpaceOnUse" x="0" y="0" width="24" height="24">
<rect width="24" height="24" fill="#D9D9D9"/>
</mask>
<g mask="url(#mask0_1548_12522)">
<path d="M1.7998 19.2992V17.0742C1.7998 16.5576 1.93314 16.0992 2.1998 15.6992C2.46647 15.2992 2.8248 14.9826 3.2748 14.7492C4.2248 14.2992 5.17914 13.9452 6.1378 13.6872C7.09581 13.4286 8.1498 13.2992 9.2998 13.2992C10.4498 13.2992 11.5041 13.4286 12.4628 13.6872C13.4208 13.9452 14.3748 14.2992 15.3248 14.7492C15.7748 14.9826 16.1331 15.2992 16.3998 15.6992C16.6665 16.0992 16.7998 16.5576 16.7998 17.0742V19.2992H1.7998ZM18.7998 19.2992V16.9492C18.7998 16.2992 18.6371 15.6782 18.3118 15.0862C17.9871 14.4949 17.5331 13.9826 16.9498 13.5492C17.6165 13.6492 18.2498 13.8032 18.8498 14.0112C19.4498 14.2199 20.0248 14.4659 20.5748 14.7492C21.0915 15.0326 21.4915 15.3619 21.7748 15.7372C22.0581 16.1119 22.1998 16.5159 22.1998 16.9492V19.2992H18.7998ZM9.2998 11.6992C8.33314 11.6992 7.50814 11.3532 6.8248 10.6612C6.14147 9.96989 5.7998 9.14922 5.7998 8.19922C5.7998 7.23255 6.14147 6.40755 6.8248 5.72422C7.50814 5.04089 8.33314 4.69922 9.2998 4.69922C10.2665 4.69922 11.0915 5.04089 11.7748 5.72422C12.4581 6.40755 12.7998 7.23255 12.7998 8.19922C12.7998 9.14922 12.4581 9.96989 11.7748 10.6612C11.0915 11.3532 10.2665 11.6992 9.2998 11.6992ZM17.9248 8.19922C17.9248 9.14922 17.5831 9.96989 16.8998 10.6612C16.2165 11.3532 15.3915 11.6992 14.4248 11.6992C14.3248 11.6992 14.1871 11.6866 14.0118 11.6612C13.8371 11.6366 13.6915 11.6076 13.5748 11.5742C13.9748 11.0909 14.2791 10.5619 14.4878 9.98722C14.6958 9.41189 14.7998 8.81589 14.7998 8.19922C14.7998 7.56589 14.6915 6.96589 14.4748 6.39922C14.2581 5.83255 13.9581 5.30755 13.5748 4.82422C13.7081 4.77422 13.8498 4.74089 13.9998 4.72422C14.1498 4.70755 14.2915 4.69922 14.4248 4.69922C15.3915 4.69922 16.2165 5.04089 16.8998 5.72422C17.5831 6.40755 17.9248 7.23255 17.9248 8.19922ZM3.2998 17.7992H15.2998V17.0742C15.2998 16.8742 15.2458 16.6909 15.1378 16.5242C15.0291 16.3576 14.8665 16.2159 14.6498 16.0992C13.8165 15.6826 12.9665 15.3616 12.0998 15.1362C11.2331 14.9116 10.2998 14.7992 9.2998 14.7992C8.2998 14.7992 7.36247 14.9116 6.4878 15.1362C5.61247 15.3616 4.76647 15.6826 3.9498 16.0992C3.71647 16.2159 3.5498 16.3576 3.4498 16.5242C3.3498 16.6909 3.2998 16.8742 3.2998 17.0742V17.7992ZM9.2998 10.1992C9.8498 10.1992 10.3208 10.0032 10.7128 9.61122C11.1041 9.21989 11.2998 8.74922 11.2998 8.19922C11.2998 7.64922 11.1041 7.17822 10.7128 6.78622C10.3208 6.39489 9.8498 6.19922 9.2998 6.19922C8.7498 6.19922 8.27914 6.39489 7.8878 6.78622C7.4958 7.17822 7.2998 7.64922 7.2998 8.19922C7.2998 8.74922 7.4958 9.21989 7.8878 9.61122C8.27914 10.0032 8.7498 10.1992 9.2998 10.1992Z" fill="#002110"/>
</g>
</svg>
