<svg width="28" height="28" viewBox="0 0 28 28" fill="none" xmlns="http://www.w3.org/2000/svg">
<path fill-rule="evenodd" clip-rule="evenodd" d="M11.1894 16.2833C14.9915 16.2833 20.0467 16.7115 20.0467 20.4157C20.0467 24.3176 14.1563 24.5517 11.6297 24.5658L10.7123 24.5658C8.01829 24.5518 2.33203 24.319 2.33203 20.439C2.33203 16.5327 8.2224 16.2983 10.7491 16.2842L11.0526 16.2834C11.0999 16.2833 11.1455 16.2833 11.1894 16.2833ZM11.1894 18.0333C7.9472 18.0333 4.08203 18.4498 4.08203 20.439C4.08203 22.0163 6.4737 22.8167 11.1894 22.8167C15.905 22.8167 18.2967 22.0082 18.2967 20.4157C18.2967 18.8348 15.905 18.0333 11.1894 18.0333ZM21.8232 15.7384C24.9802 16.2109 25.6417 17.6727 25.6417 18.8149C25.6417 19.6654 25.2742 20.8169 23.5207 21.4807C23.4192 21.5192 23.3142 21.5379 23.2103 21.5379C22.8568 21.5379 22.5243 21.322 22.3925 20.9732C22.221 20.5217 22.4485 20.0154 22.9 19.845C23.8917 19.4694 23.8917 19.0109 23.8917 18.8149C23.8917 18.1534 23.1088 17.7007 21.5653 17.4709C21.087 17.3985 20.7568 16.9529 20.828 16.4757C20.9003 15.9974 21.3542 15.6765 21.8232 15.7384ZM11.1894 2.3335C14.4922 2.3335 17.1803 5.0215 17.1803 8.32433C17.1872 9.91566 16.57 11.4183 15.4454 12.55C14.323 13.6828 12.8239 14.3093 11.229 14.3152H11.1894C7.88536 14.3152 5.19736 11.6272 5.19736 8.32433C5.19736 5.0215 7.88536 2.3335 11.1894 2.3335ZM19.4582 3.6446C21.7507 4.02026 23.4144 5.98143 23.4144 8.3066C23.4097 10.6458 21.6632 12.6548 19.3509 12.9791C19.3101 12.9849 19.2692 12.9873 19.2284 12.9873C18.7991 12.9873 18.4246 12.6711 18.3627 12.2336C18.2962 11.7553 18.6287 11.3119 19.1071 11.2454C20.5631 11.0413 21.6621 9.77776 21.6644 8.30543C21.6644 6.84243 20.6167 5.6081 19.1759 5.37243C18.6987 5.2931 18.3756 4.84393 18.4537 4.36676C18.5319 3.8896 18.9834 3.56876 19.4582 3.6446ZM11.1894 4.0835C8.8502 4.0835 6.94736 5.98633 6.94736 8.32433C6.94736 10.6623 8.8502 12.5652 11.1894 12.5652H11.2255C12.3502 12.5605 13.4095 12.1183 14.204 11.3168C14.9997 10.5177 15.4349 9.45483 15.4302 8.32783C15.4302 5.98633 13.5274 4.0835 11.1894 4.0835Z" fill="#008952"/>
</svg>
