<svg width="24" height="24" viewBox="0 0 24 24" fill="none" xmlns="http://www.w3.org/2000/svg">
<mask id="mask0_1520_1025" style="mask-type:alpha" maskUnits="userSpaceOnUse" x="0" y="0" width="24" height="24">
<rect width="24" height="24" fill="#D9D9D9"/>
</mask>
<g mask="url(#mask0_1520_1025)">
<path d="M10.95 15.1998L16.25 9.8998L15.175 8.8248L10.95 13.0748L8.825 10.9498L7.75 12.0248L10.95 15.1998ZM12 21.4748C9.83333 20.8915 8.04167 19.6208 6.625 17.6628C5.20833 15.7041 4.5 13.5165 4.5 11.0998V5.3498L12 2.5498L19.5 5.3498V11.0998C19.5 13.5165 18.7917 15.7041 17.375 17.6628C15.9583 19.6208 14.1667 20.8915 12 21.4748ZM12 19.8998C13.7333 19.3498 15.1667 18.2498 16.3 16.5998C17.4333 14.9498 18 13.1165 18 11.0998V6.3748L12 4.1248L6 6.3748V11.0998C6 13.1165 6.56667 14.9498 7.7 16.5998C8.83333 18.2498 10.2667 19.3498 12 19.8998Z" fill="#008952"/>
</g>
</svg>
