<svg width="64" height="64" viewBox="0 0 64 64" fill="none" xmlns="http://www.w3.org/2000/svg">
<mask id="mask0_859_5505" style="mask-type:alpha" maskUnits="userSpaceOnUse" x="0" y="0" width="64" height="64">
<rect width="64" height="64" fill="#D9D9D9"/>
</mask>
<g mask="url(#mask0_859_5505)">
<path d="M42.6673 36.0026C43.8229 36.0026 44.7784 35.6248 45.534 34.8693C46.2895 34.1137 46.6673 33.1582 46.6673 32.0026C46.6673 30.847 46.2895 29.8915 45.534 29.1359C44.7784 28.3804 43.8229 28.0026 42.6673 28.0026C41.5118 28.0026 40.5562 28.3804 39.8007 29.1359C39.0451 29.8915 38.6673 30.847 38.6673 32.0026C38.6673 33.1582 39.0451 34.1137 39.8007 34.8693C40.5562 35.6248 41.5118 36.0026 42.6673 36.0026ZM14.134 54.6693C12.8007 54.6693 11.6673 54.2026 10.734 53.2693C9.80065 52.3359 9.33398 51.2026 9.33398 49.8693V14.1359C9.33398 12.8026 9.80065 11.6693 10.734 10.7359C11.6673 9.8026 12.8007 9.33594 14.134 9.33594H49.8673C51.2007 9.33594 52.334 9.8026 53.2673 10.7359C54.2007 11.6693 54.6673 12.8026 54.6673 14.1359V21.4026H50.6673V14.1359C50.6673 13.9137 50.59 13.7253 50.4353 13.5706C50.2789 13.4142 50.0895 13.3359 49.8673 13.3359H14.134C13.9118 13.3359 13.7233 13.4142 13.5687 13.5706C13.4122 13.7253 13.334 13.9137 13.334 14.1359V49.8693C13.334 50.0915 13.4122 50.2808 13.5687 50.4373C13.7233 50.5919 13.9118 50.6693 14.134 50.6693H49.8673C50.0895 50.6693 50.2789 50.5919 50.4353 50.4373C50.59 50.2808 50.6673 50.0915 50.6673 49.8693V42.6026H54.6673V49.8693C54.6673 51.2026 54.2007 52.3359 53.2673 53.2693C52.334 54.2026 51.2007 54.6693 49.8673 54.6693H14.134ZM35.4673 44.0026C34.134 44.0026 33.0007 43.5359 32.0673 42.6026C31.134 41.6693 30.6673 40.5359 30.6673 39.2026V24.8026C30.6673 23.4693 31.134 22.3359 32.0673 21.4026C33.0007 20.4693 34.134 20.0026 35.4673 20.0026H52.534C53.8673 20.0026 55.0007 20.4693 55.934 21.4026C56.8673 22.3359 57.334 23.4693 57.334 24.8026V39.2026C57.334 40.5359 56.8673 41.6693 55.934 42.6026C55.0007 43.5359 53.8673 44.0026 52.534 44.0026H35.4673ZM52.534 40.0026C52.7562 40.0026 52.9455 39.9244 53.102 39.7679C53.2567 39.6133 53.334 39.4248 53.334 39.2026V24.8026C53.334 24.5804 53.2567 24.391 53.102 24.2346C52.9455 24.0799 52.7562 24.0026 52.534 24.0026H35.4673C35.2451 24.0026 35.0567 24.0799 34.902 24.2346C34.7455 24.391 34.6673 24.5804 34.6673 24.8026V39.2026C34.6673 39.4248 34.7455 39.6133 34.902 39.7679C35.0567 39.9244 35.2451 40.0026 35.4673 40.0026H52.534Z" fill="#008952"/>
</g>
</svg>
