<svg width="56" height="56" viewBox="0 0 56 56" fill="none" xmlns="http://www.w3.org/2000/svg">
<circle cx="28" cy="28" r="28" fill="#FBFDF8"/>
<mask id="mask0_1911_6" style="mask-type:alpha" maskUnits="userSpaceOnUse" x="12" y="12" width="32" height="32">
<rect x="12" y="12" width="32" height="32" fill="#D9D9D9"/>
</mask>
<g mask="url(#mask0_1911_6)">
<path d="M33.3333 29.9993C33.9111 29.9993 34.3889 29.8105 34.7667 29.4327C35.1444 29.0549 35.3333 28.5771 35.3333 27.9993C35.3333 27.4216 35.1444 26.9438 34.7667 26.566C34.3889 26.1882 33.9111 25.9993 33.3333 25.9993C32.7556 25.9993 32.2778 26.1882 31.9 26.566C31.5222 26.9438 31.3333 27.4216 31.3333 27.9993C31.3333 28.5771 31.5222 29.0549 31.9 29.4327C32.2778 29.8105 32.7556 29.9993 33.3333 29.9993ZM19.0667 39.3327C18.4 39.3327 17.8333 39.0993 17.3667 38.6327C16.9 38.166 16.6667 37.5993 16.6667 36.9327V19.066C16.6667 18.3993 16.9 17.8327 17.3667 17.366C17.8333 16.8993 18.4 16.666 19.0667 16.666H36.9333C37.6 16.666 38.1667 16.8993 38.6333 17.366C39.1 17.8327 39.3333 18.3993 39.3333 19.066V22.6993H37.3333V19.066C37.3333 18.9549 37.2947 18.8607 37.2173 18.7833C37.1391 18.7051 37.0444 18.666 36.9333 18.666H19.0667C18.9556 18.666 18.8613 18.7051 18.784 18.7833C18.7058 18.8607 18.6667 18.9549 18.6667 19.066V36.9327C18.6667 37.0438 18.7058 37.1385 18.784 37.2167C18.8613 37.294 18.9556 37.3327 19.0667 37.3327H36.9333C37.0444 37.3327 37.1391 37.294 37.2173 37.2167C37.2947 37.1385 37.3333 37.0438 37.3333 36.9327V33.2993H39.3333V36.9327C39.3333 37.5993 39.1 38.166 38.6333 38.6327C38.1667 39.0993 37.6 39.3327 36.9333 39.3327H19.0667ZM29.7333 33.9993C29.0667 33.9993 28.5 33.766 28.0333 33.2993C27.5667 32.8327 27.3333 32.266 27.3333 31.5993V24.3993C27.3333 23.7327 27.5667 23.166 28.0333 22.6993C28.5 22.2327 29.0667 21.9993 29.7333 21.9993H38.2667C38.9333 21.9993 39.5 22.2327 39.9667 22.6993C40.4333 23.166 40.6667 23.7327 40.6667 24.3993V31.5993C40.6667 32.266 40.4333 32.8327 39.9667 33.2993C39.5 33.766 38.9333 33.9993 38.2667 33.9993H29.7333ZM38.2667 31.9993C38.3778 31.9993 38.4724 31.9602 38.5507 31.882C38.628 31.8047 38.6667 31.7105 38.6667 31.5993V24.3993C38.6667 24.2882 38.628 24.1936 38.5507 24.1153C38.4724 24.038 38.3778 23.9993 38.2667 23.9993H29.7333C29.6222 23.9993 29.528 24.038 29.4507 24.1153C29.3724 24.1936 29.3333 24.2882 29.3333 24.3993V31.5993C29.3333 31.7105 29.3724 31.8047 29.4507 31.882C29.528 31.9602 29.6222 31.9993 29.7333 31.9993H38.2667Z" fill="#015AC3"/>
</g>
</svg>
