<svg width="24" height="19" viewBox="0 0 24 19" fill="none" xmlns="http://www.w3.org/2000/svg">
<path fill-rule="evenodd" clip-rule="evenodd" d="M18.2074 9.92207C18.0617 9.92212 17.9154 9.93016 17.7703 9.92053C17.3973 9.8958 17.1307 9.62283 17.1299 9.2745C17.129 8.92677 17.3954 8.64597 17.7679 8.62748C18.0587 8.61303 18.3514 8.6133 18.6422 8.62726C19.0155 8.64521 19.2819 8.92381 19.2827 9.27209C19.2835 9.61987 19.017 9.89487 18.6446 9.92037C18.4995 9.93027 18.3532 9.92201 18.2074 9.92207Z" fill="#191C1A"/>
<path fill-rule="evenodd" clip-rule="evenodd" d="M21.9146 11.2094C20.5735 11.2109 19.2324 11.2155 17.8915 11.207C16.8272 11.2002 16.0286 10.497 15.9082 9.48754C15.7801 8.41366 16.6006 7.3909 17.681 7.35571C18.8903 7.3163 20.1016 7.34011 21.312 7.33699C21.512 7.33644 21.712 7.33639 21.9146 7.3365V6.03682C20.5742 6.03611 19.2337 6.0325 17.8933 6.03852C16.2912 6.04568 14.9631 7.11437 14.6656 8.62282C14.2639 10.6589 15.7718 12.4911 17.8747 12.507C19.2213 12.5172 20.5681 12.5107 21.9147 12.5096V11.2094H21.9146Z" fill="#191C1A"/>
<path fill-rule="evenodd" clip-rule="evenodd" d="M22.9191 1.9251C22.3018 0.630291 21.2487 0.00286147 19.8238 0.00193113C14.7974 -0.00135241 9.77105 0.000287931 4.74472 0.0014919C4.41664 0.00154662 4.08736 -0.00195576 3.76081 0.0234369C2.2622 0.139729 1.05835 1.26899 0.830965 2.75819C0.824562 2.80005 0.804642 2.83978 0.791016 2.88055C0.791016 7.1422 0.791016 11.4039 0.791016 15.6656C0.885198 15.9852 0.938884 16.3241 1.08046 16.6211C1.69782 17.9159 2.7508 18.5432 4.17574 18.5442C9.22402 18.5475 14.2722 18.5458 19.3205 18.5446C19.6266 18.5446 19.9339 18.5468 20.2388 18.5229C21.7373 18.4059 22.9412 17.2771 23.1686 15.7879C23.175 15.7461 23.1949 15.7063 23.2085 15.6656C23.2085 11.4039 23.2085 7.1422 23.2085 2.88055C23.1144 2.56096 23.0607 2.2221 22.9191 1.9251ZM21.8918 15.4444C21.8522 16.4039 21.1007 17.1433 20.1428 17.234C20.0413 17.2436 19.9387 17.2453 19.8367 17.2453C14.6119 17.2458 9.38715 17.2446 4.16239 17.2469C3.32186 17.2473 2.66531 16.9196 2.29893 16.1519C2.16288 15.8669 2.09529 15.522 2.09425 15.204C2.0809 11.249 2.08161 7.2939 2.0879 3.33883C2.08982 2.11259 2.91798 1.30139 4.14378 1.30101C9.3831 1.29953 14.6225 1.29969 19.8619 1.30101C20.8689 1.30128 21.6005 1.84482 21.8505 2.78183C21.895 2.94869 21.9099 3.12764 21.9111 3.30117C21.9159 4.00949 21.9147 4.71797 21.9138 5.42634H21.9142V13.5949C21.9165 14.2118 21.9172 14.8286 21.8918 15.4444Z" fill="#191C1A"/>
</svg>
