<svg width="48" height="48" viewBox="0 0 48 48" fill="none" xmlns="http://www.w3.org/2000/svg">
<mask id="mask0_1298_147" style="mask-type:alpha" maskUnits="userSpaceOnUse" x="0" y="0" width="48" height="48">
<rect width="48" height="48" fill="#D9D9D9"/>
</mask>
<g mask="url(#mask0_1298_147)">
<path d="M3.75 41L24 6L44.25 41H3.75ZM8.9 38H39.1L24 12L8.9 38ZM24 35.6C24.4667 35.6 24.85 35.45 25.15 35.15C25.45 34.85 25.6 34.4667 25.6 34C25.6 33.5333 25.45 33.15 25.15 32.85C24.85 32.55 24.4667 32.4 24 32.4C23.5333 32.4 23.15 32.55 22.85 32.85C22.55 33.15 22.4 33.5333 22.4 34C22.4 34.4667 22.55 34.85 22.85 35.15C23.15 35.45 23.5333 35.6 24 35.6ZM22.5 30.4H25.5V20.4H22.5V30.4Z" fill="#B3261E"/>
</g>
</svg>
