<svg width="18" height="16" viewBox="0 0 18 16" fill="none" xmlns="http://www.w3.org/2000/svg">
<path d="M17.7683 13.0275L10.3843 0.782455C10.2405 0.543727 10.0373 0.346233 9.79467 0.209137C9.552 0.0720413 9.27802 0 8.9993 0C8.72058 0 8.4466 0.0720413 8.20393 0.209137C7.96126 0.346233 7.75815 0.543727 7.6143 0.782455L0.231298 13.0275C0.0833658 13.2728 0.00326345 13.553 -0.000812819 13.8394C-0.00488909 14.1259 0.0672071 14.4083 0.208099 14.6577C0.348991 14.9071 0.55362 15.1147 0.801049 15.2591C1.04848 15.4034 1.32982 15.4795 1.6163 15.4795H16.3833C16.6698 15.4795 16.9511 15.4034 17.1985 15.2591C17.446 15.1147 17.6506 14.9071 17.7915 14.6577C17.9324 14.4083 18.0045 14.1259 18.0004 13.8394C17.9963 13.553 17.9162 13.2728 17.7683 13.0275V13.0275ZM16.7683 14.0815C16.7294 14.1501 16.673 14.2071 16.6048 14.2468C16.5367 14.2865 16.4592 14.3075 16.3803 14.3075H1.6163C1.53744 14.3075 1.46 14.2865 1.3919 14.2468C1.3238 14.207 1.26748 14.1499 1.22872 14.0812C1.18996 14.0125 1.17014 13.9348 1.1713 13.8559C1.17245 13.7771 1.19454 13.7 1.2353 13.6325L8.6183 1.38745C8.6579 1.32183 8.71379 1.26754 8.78054 1.22986C8.84729 1.19218 8.92265 1.17238 8.9993 1.17238C9.07595 1.17238 9.1513 1.19218 9.21806 1.22986C9.28481 1.26754 9.34069 1.32183 9.3803 1.38745L16.7633 13.6325C16.8041 13.7 16.8262 13.7771 16.8274 13.856C16.8287 13.9349 16.8089 14.0127 16.7703 14.0815H16.7683Z" fill="#B3261E"/>
<path d="M9.00591 4.82339C8.55991 4.82339 8.21191 5.06238 8.21191 5.48638C8.21191 6.78038 8.36391 8.63939 8.36391 9.93339C8.36391 10.2704 8.65791 10.4114 9.00591 10.4114C9.26691 10.4114 9.63692 10.2704 9.63692 9.93339C9.63692 8.63939 9.78891 6.78038 9.78891 5.48638C9.78451 5.39018 9.76031 5.29593 9.71782 5.20951C9.67533 5.12309 9.61548 5.04636 9.54199 4.98414C9.4685 4.92191 9.38295 4.87552 9.29071 4.84786C9.19847 4.8202 9.10151 4.81187 9.00591 4.82339Z" fill="#B3261E"/>
<path d="M9.01669 11.1602C8.79471 11.1602 8.5818 11.2483 8.42484 11.4053C8.26787 11.5623 8.17969 11.7752 8.17969 11.9972C8.17969 12.2191 8.26787 12.432 8.42484 12.589C8.5818 12.746 8.79471 12.8341 9.01669 12.8341C9.23868 12.8341 9.45157 12.746 9.60854 12.589C9.7655 12.432 9.85368 12.2191 9.85368 11.9972C9.85368 11.7752 9.7655 11.5623 9.60854 11.4053C9.45157 11.2483 9.23868 11.1602 9.01669 11.1602Z" fill="#B3261E"/>
</svg>
